SplineFontDB: 3.2
FontName: Gontserrat-BoldItalic
FullName: Gontserrat Bold Italic
FamilyName: Gontserrat
Weight: Bold
Copyright: Gontserrat is a derivative work of Montserrat under the Open Font License, version 1.1. Copyright 2020 Gabriel Classon (gabeclasson.com). Montserrat copyright 2011 The Montserrat Project Authors (https://github.com/JulietaUla/Montserrat). 
Version: 6.002
ItalicAngle: -11.3
UnderlinePosition: -100
UnderlineWidth: 50
Ascent: 800
Descent: 200
InvalidEm: 0
sfntRevision: 0x00010000
LayerCount: 2
Layer: 0 1 "Back" 1
Layer: 1 1 "Fore" 0
XUID: [1021 930 -1503615855 22478]
StyleMap: 0x0021
FSType: 0
OS2Version: 4
OS2_WeightWidthSlopeOnly: 0
OS2_UseTypoMetrics: 1
CreationTime: 1485852814
ModificationTime: 1642920860
PfmFamily: 81
TTFWeight: 700
TTFWidth: 5
LineGap: 0
VLineGap: 0
Panose: 0 0 8 0 0 0 0 0 0 0
OS2TypoAscent: 968
OS2TypoAOffset: 0
OS2TypoDescent: -251
OS2TypoDOffset: 0
OS2TypoLinegap: 0
OS2WinAscent: 1177
OS2WinAOffset: 0
OS2WinDescent: 496
OS2WinDOffset: 0
HheadAscent: 968
HheadAOffset: 0
HheadDescent: -251
HheadDOffset: 0
OS2SubXSize: 650
OS2SubYSize: 600
OS2SubXOff: -15
OS2SubYOff: 75
OS2SupXSize: 650
OS2SupYSize: 600
OS2SupXOff: 70
OS2SupYOff: 350
OS2StrikeYSize: 50
OS2StrikeYPos: 324
OS2CapHeight: 701
OS2XHeight: 541
OS2Vendor: 'ULA '
OS2CodePages: 20000193.00000000
OS2UnicodeRanges: 20000007.00000001.00000000.00000000
Lookup: 1 0 0 "'rtla' Right to Left Alternates lookup 0" { "'rtla' Right to Left Alternates lookup 0 subtable"  } ['rtla' ('DFLT' <'dflt' > ) ]
Lookup: 1 0 0 "<10,2> Inferiors lookup 1" { "<10,2> Inferiors lookup 1 subtable" ("inferior") } [<10,2> ('DFLT' <'dflt' > ) 'subs' ('DFLT' <'dflt' > ) ]
Lookup: 1 0 0 "<10,1> Superiors lookup 2" { "<10,1> Superiors lookup 2 subtable" ("superior") } [<10,1> ('DFLT' <'dflt' > ) 'sups' ('DFLT' <'dflt' > ) ]
Lookup: 1 0 0 "<11,2> Diagonal Fractions lookup 3" { "<11,2> Diagonal Fractions lookup 3 subtable"  } [<11,2> ('DFLT' <'dflt' > ) 'frac' ('DFLT' <'dflt' > ) ]

StartChar: .notdef
Encoding: 65536 -1 0
Width: 587
Flags: W
LayerCount: 2
Fore
SplineSet
40 0 m 1,0,-1
 40 700 l 1,1,-1
 547 700 l 1,2,-1
 547 0 l 1,3,-1
 40 0 l 1,0,-1
120 70 m 1,4,-1
 467 70 l 1,5,-1
 467 630 l 1,6,-1
 120 630 l 1,7,-1
 120 70 l 1,4,-1
EndSplineSet
EndChar

StartChar: exclam
Encoding: 33 33 5
Width: 261
Flags: W
LayerCount: 2
Fore
SplineSet
304 697 m 1,0,-1
 269 518 l 1,1,-1
 183 243 l 1,2,-1
 75 243 l 1,3,-1
 100 518 l 1,4,-1
 135 697 l 1,5,-1
 304 697 l 1,0,-1
164.5 143.5 m 128,-1,7
 186 122 186 122 186 87 c 0,8,9
 186 46 186 46 159 19 c 128,-1,10
 132 -8 132 -8 92 -8 c 0,11,12
 57 -8 57 -8 36 13.5 c 128,-1,13
 15 35 15 35 15 70 c 0,14,15
 15 112 15 112 41.5 138.5 c 128,-1,16
 68 165 68 165 108 165 c 0,17,6
 143 165 143 165 164.5 143.5 c 128,-1,7
EndSplineSet
Substitution2: "<3,3> Small Caps in Latin lookup 11 subtable" exclam.sc
EndChar

StartChar: numbersign
Encoding: 35 35 7
Width: 694
Flags: W
LayerCount: 2
Fore
SplineSet
708 415 m 1,0,-1
 573 415 l 1,1,-1
 543 277 l 1,2,-1
 677 277 l 1,3,-1
 652 153 l 1,4,-1
 517 153 l 1,5,-1
 485 0 l 1,6,-1
 357 0 l 1,7,-1
 389 153 l 1,8,-1
 253 153 l 1,9,-1
 220 0 l 1,10,-1
 93 0 l 1,11,-1
 125 153 l 1,12,-1
 -9 153 l 1,13,-1
 16 277 l 1,14,-1
 151 277 l 1,15,-1
 181 415 l 1,16,-1
 47 415 l 1,17,-1
 72 540 l 1,18,-1
 207 540 l 1,19,-1
 241 701 l 1,20,-1
 369 701 l 1,21,-1
 335 540 l 1,22,-1
 471 540 l 1,23,-1
 505 701 l 1,24,-1
 633 701 l 1,25,-1
 599 540 l 1,26,-1
 733 540 l 1,27,-1
 708 415 l 1,0,-1
415 277 m 1,28,-1
 445 415 l 1,29,-1
 308 415 l 1,30,-1
 279 277 l 1,31,-1
 415 277 l 1,28,-1
EndSplineSet
EndChar

StartChar: dollar
Encoding: 36 36 8
Width: 635
Flags: W
LayerCount: 2
Fore
SplineSet
293 462 m 128,-1,1
 322 446 322 446 385 427 c 0,2,3
 451 408 451 408 493.5 388.5 c 128,-1,4
 536 369 536 369 567 331 c 128,-1,5
 598 293 598 293 598 232 c 0,6,7
 598 160 598 160 562 108.5 c 128,-1,8
 526 57 526 57 464.5 28.5 c 128,-1,9
 403 0 403 0 326 -5 c 1,10,-1
 297 -155 l 1,11,-1
 164 -155 l 1,12,-1
 195 4 l 1,13,14
 133 17 133 17 78.5 43 c 128,-1,15
 24 69 24 69 -17 105 c 1,16,-1
 68 248 l 1,17,18
 116 202 116 202 186 172 c 128,-1,19
 256 142 256 142 311 142 c 0,20,21
 355 142 355 142 380 158 c 128,-1,22
 405 174 405 174 405 204 c 256,23,24
 405 234 405 234 375.5 250 c 128,-1,25
 346 266 346 266 280 285 c 256,26,27
 214 304 214 304 172.5 322 c 128,-1,28
 131 340 131 340 100.5 376.5 c 128,-1,29
 70 413 70 413 70 472 c 0,30,31
 70 538 70 538 103 589 c 128,-1,32
 136 640 136 640 196 670.5 c 128,-1,33
 256 701 256 701 335 707 c 1,34,-1
 363 851 l 1,35,-1
 496 851 l 1,36,-1
 466 700 l 1,37,38
 572 680 572 680 644 629 c 1,39,-1
 560 484 l 1,40,41
 508 516 508 516 446.5 537.5 c 128,-1,42
 385 559 385 559 342 559 c 0,43,44
 306 559 306 559 285 545.5 c 128,-1,45
 264 532 264 532 264 507 c 0,46,0
 264 478 264 478 293 462 c 128,-1,1
EndSplineSet
EndChar

StartChar: ampersand
Encoding: 38 38 10
Width: 695
Flags: W
LayerCount: 2
Fore
SplineSet
548 -28 m 1,0,-1
 466 64 l 1,1,2
 369 -8 369 -8 261 -8 c 0,3,4
 197 -8 197 -8 147 15.5 c 128,-1,5
 97 39 97 39 69 81 c 128,-1,6
 41 123 41 123 41 177 c 0,7,8
 41 249 41 249 84.5 298.5 c 128,-1,9
 128 348 128 348 205 390 c 1,10,11
 168 455 168 455 168 512 c 0,12,13
 168 602 168 602 227.5 655.5 c 128,-1,14
 287 709 287 709 387 709 c 0,15,16
 471 709 471 709 522.5 668.5 c 128,-1,17
 574 628 574 628 574 562 c 0,18,19
 574 487 574 487 524 440 c 128,-1,20
 474 393 474 393 384 351 c 1,21,22
 419 305 419 305 470 247 c 1,23,24
 507 298 507 298 535 364 c 1,25,-1
 638 272 l 1,26,27
 606 208 606 208 557 149 c 1,28,-1
 645 54 l 1,29,-1
 548 -28 l 1,0,-1
322 448 m 1,31,32
 376 476 376 476 405 501.5 c 128,-1,33
 434 527 434 527 436 559 c 0,34,35
 438 581 438 581 425.5 594 c 128,-1,36
 413 607 413 607 389 607 c 0,37,38
 353 607 353 607 329.5 579.5 c 128,-1,39
 306 552 306 552 306 512 c 0,40,30
 306 483 306 483 322 448 c 1,31,32
383 159 m 1,42,43
 307 247 307 247 270 295 c 1,44,45
 230 273 230 273 208 247 c 128,-1,46
 186 221 186 221 186 188 c 0,47,48
 186 157 186 157 209 137.5 c 128,-1,49
 232 118 232 118 269 118 c 0,50,41
 325 118 325 118 383 159 c 1,42,43
EndSplineSet
Substitution2: "<3,3> Small Caps in Latin lookup 11 subtable" ampersand.sc
EndChar

StartChar: quotesingle
Encoding: 39 39 11
Width: 254
Flags: W
LayerCount: 2
Fore
SplineSet
280 701 m 1,0,-1
 225 423 l 1,1,-1
 91 423 l 1,2,-1
 146 701 l 1,3,-1
 280 701 l 1,0,-1
EndSplineSet
Substitution2: "<3,3> Small Caps in Latin lookup 11 subtable" quotesingle.sc
EndChar

StartChar: parenleft
Encoding: 40 40 12
Width: 349
Flags: W
LayerCount: 2
Fore
SplineSet
311.5 530 m 128,-1,1
 256 416 256 416 232 295 c 0,2,3
 216 215 216 215 216 133 c 0,4,5
 216 -15 216 -15 265 -125 c 1,6,-1
 114 -125 l 1,7,8
 54 3 54 3 54 159 c 0,9,10
 54 240 54 240 70 323 c 0,11,12
 95 443 95 443 148.5 551.5 c 128,-1,13
 202 660 202 660 281 742 c 1,14,-1
 443 742 l 1,15,0
 367 644 367 644 311.5 530 c 128,-1,1
EndSplineSet
Substitution2: "'rtla' Right to Left Alternates lookup 0 subtable" parenright
EndChar

StartChar: parenright
Encoding: 41 41 13
Width: 360
Flags: W
LayerCount: 2
Fore
SplineSet
97.5 87 m 128,-1,1
 153 201 153 201 177 322 c 0,2,3
 193 402 193 402 193 484 c 0,4,5
 193 632 193 632 144 742 c 1,6,-1
 295 742 l 1,7,8
 355 614 355 614 355 458 c 0,9,10
 355 377 355 377 339 294 c 0,11,12
 314 174 314 174 260.5 65.5 c 128,-1,13
 207 -43 207 -43 128 -125 c 1,14,-1
 -34 -125 l 1,15,0
 42 -27 42 -27 97.5 87 c 128,-1,1
EndSplineSet
Substitution2: "'rtla' Right to Left Alternates lookup 0 subtable" parenleft
EndChar

StartChar: asterisk
Encoding: 42 42 14
Width: 399
Flags: W
LayerCount: 2
Fore
SplineSet
379 425 m 1,0,-1
 298 474 l 1,1,-1
 300 380 l 1,2,-1
 211 380 l 1,3,-1
 213 475 l 1,4,-1
 131 426 l 1,5,-1
 87 504 l 1,6,-1
 170 550 l 1,7,-1
 87 595 l 1,8,-1
 131 675 l 1,9,-1
 212 625 l 1,10,-1
 211 719 l 1,11,-1
 300 719 l 1,12,-1
 298 625 l 1,13,-1
 379 673 l 1,14,-1
 423 595 l 1,15,-1
 339 550 l 1,16,-1
 423 504 l 1,17,-1
 379 425 l 1,0,-1
EndSplineSet
EndChar

StartChar: plus
Encoding: 43 43 15
Width: 511
Flags: W
LayerCount: 2
Fore
SplineSet
501 384 m 1,0,-1
 478 270 l 1,1,-1
 311 270 l 1,2,-1
 278 103 l 1,3,-1
 166 103 l 1,4,-1
 199 270 l 1,5,-1
 32 270 l 1,6,-1
 55 384 l 1,7,-1
 222 384 l 1,8,-1
 255 551 l 1,9,-1
 367 551 l 1,10,-1
 334 384 l 1,11,-1
 501 384 l 1,0,-1
EndSplineSet
EndChar

StartChar: comma
Encoding: 44 44 16
Width: 235
Flags: W
LayerCount: 2
Fore
SplineSet
138 143.5 m 128,-1,1
 160 123 160 123 160 87 c 0,2,3
 160 54 160 54 131 11 c 2,4,-1
 40 -122 l 1,5,-1
 -45 -122 l 1,6,-1
 19 11 l 1,7,8
 -11 31 -11 31 -11 69 c 0,9,10
 -11 110 -11 110 16 137 c 128,-1,11
 43 164 43 164 83 164 c 0,12,0
 116 164 116 164 138 143.5 c 128,-1,1
EndSplineSet
EndChar

StartChar: hyphen
Encoding: 45 45 17
Width: 375
Flags: W
LayerCount: 2
Fore
SplineSet
339 364 m 1,0,-1
 316 250 l 1,1,-1
 51 250 l 1,2,-1
 74 364 l 1,3,-1
 339 364 l 1,0,-1
EndSplineSet
EndChar

StartChar: period
Encoding: 46 46 18
Width: 249
Flags: W
LayerCount: 2
Fore
SplineSet
150.5 143.5 m 128,-1,1
 172 122 172 122 172 87 c 0,2,3
 172 46 172 46 145 19 c 128,-1,4
 118 -8 118 -8 78 -8 c 0,5,6
 43 -8 43 -8 21.5 13.5 c 128,-1,7
 0 35 0 35 0 70 c 0,8,9
 0 112 0 112 26.5 138.5 c 128,-1,10
 53 165 53 165 93 165 c 0,11,0
 129 165 129 165 150.5 143.5 c 128,-1,1
EndSplineSet
Substitution2: "<3,3> Small Caps in Latin lookup 11 subtable" period.sc
EndChar

StartChar: slash
Encoding: 47 47 19
Width: 381
Flags: W
LayerCount: 2
Fore
SplineSet
477 810 m 1,0,-1
 86 -110 l 1,1,-1
 -64 -110 l 1,2,-1
 327 810 l 1,3,-1
 477 810 l 1,0,-1
EndSplineSet
Substitution2: "<11,2> Diagonal Fractions lookup 3 subtable" fraction
EndChar

StartChar: zero
Encoding: 48 48 20
Width: 752
Flags: W
LayerCount: 2
Fore
SplineSet
650 637.5 m 128,-1,1
 715 568 715 568 715 440 c 0,2,3
 715 306 715 306 668.5 205.5 c 128,-1,4
 622 105 622 105 533.5 49.5 c 128,-1,5
 445 -6 445 -6 324 -6 c 0,6,7
 200 -6 200 -6 134.5 63.5 c 128,-1,8
 69 133 69 133 69 261 c 0,9,10
 69 395 69 395 115.5 495.5 c 128,-1,11
 162 596 162 596 250.5 651.5 c 128,-1,12
 339 707 339 707 462 707 c 256,13,0
 585 707 585 707 650 637.5 c 128,-1,1
303.5 495 m 128,-1,15
 256 419 256 419 256 260 c 0,16,17
 256 193 256 193 279 161.5 c 128,-1,18
 302 130 302 130 349 130 c 0,19,20
 433 130 433 130 481 206 c 128,-1,21
 529 282 529 282 529 441 c 0,22,23
 529 508 529 508 506 539.5 c 128,-1,24
 483 571 483 571 436 571 c 0,25,14
 351 571 351 571 303.5 495 c 128,-1,15
EndSplineSet
Substitution2: "<21,0> Lower Case Numbers lookup 10 subtable" zero.osf
Substitution2: "<6,0> Monospaced Numbers lookup 9 subtable" zero.tf
Substitution2: "<11,2> Diagonal Fractions lookup 4 subtable" zero.numr
Substitution2: "<10,1> Superiors lookup 2 subtable" uni2070
Substitution2: "<10,2> Inferiors lookup 1 subtable" uni2080
EndChar

StartChar: one
Encoding: 49 49 21
Width: 450
Flags: W
LayerCount: 2
Fore
SplineSet
117 701 m 1,0,-1
 435 701 l 1,1,-1
 299 0 l 1,2,-1
 115 0 l 1,3,-1
 222 551 l 1,4,-1
 89 551 l 1,5,-1
 117 701 l 1,0,-1
EndSplineSet
Substitution2: "<21,0> Lower Case Numbers lookup 10 subtable" one.osf
Substitution2: "<6,0> Monospaced Numbers lookup 9 subtable" one.tf
Substitution2: "<11,2> Diagonal Fractions lookup 4 subtable" one.numr
Substitution2: "<10,1> Superiors lookup 2 subtable" uni00B9
Substitution2: "<10,2> Inferiors lookup 1 subtable" uni2081
EndChar

StartChar: two
Encoding: 50 50 22
Width: 648
Flags: W
LayerCount: 2
Fore
SplineSet
580.5 429.5 m 128,-1,1
 533 366 533 366 444 291 c 2,2,-1
 273 147 l 1,3,-1
 572 147 l 1,4,-1
 543 0 l 1,5,-1
 9 0 l 1,6,-1
 32 121 l 1,7,-1
 338 383 l 2,8,9
 377 416 377 416 402 448 c 128,-1,10
 427 480 427 480 429 503 c 0,11,12
 433 529 433 529 415 543.5 c 128,-1,13
 397 558 397 558 360 558 c 0,14,15
 318 558 318 558 262.5 534.5 c 128,-1,16
 207 511 207 511 150 469 c 1,17,-1
 106 604 l 1,18,19
 272 709 272 709 416 709 c 0,20,21
 512 709 512 709 570 667 c 128,-1,22
 628 625 628 625 628 555 c 0,23,0
 628 493 628 493 580.5 429.5 c 128,-1,1
EndSplineSet
Substitution2: "<21,0> Lower Case Numbers lookup 10 subtable" two.osf
Substitution2: "<6,0> Monospaced Numbers lookup 9 subtable" two.tf
Substitution2: "<11,2> Diagonal Fractions lookup 4 subtable" two.numr
Substitution2: "<10,1> Superiors lookup 2 subtable" uni00B2
Substitution2: "<10,2> Inferiors lookup 1 subtable" uni2082
EndChar

StartChar: three
Encoding: 51 51 23
Width: 648
Flags: W
LayerCount: 2
Fore
SplineSet
626 595 m 1,0,-1
 401 420 l 1,1,-1
 436 413 l 2,2,3
 508 402 508 402 549.5 360 c 128,-1,4
 591 318 591 318 591 253 c 0,5,6
 591 180 591 180 548.5 120 c 128,-1,7
 506 60 506 60 430 26 c 128,-1,8
 354 -8 354 -8 258 -8 c 0,9,10
 182 -8 182 -8 112 15.5 c 128,-1,11
 42 39 42 39 -2 78 c 1,12,-1
 91 207 l 1,13,14
 128 170 128 170 174 151 c 128,-1,15
 220 132 220 132 270 132 c 0,16,17
 336 132 336 132 373 159.5 c 128,-1,18
 410 187 410 187 410 235 c 0,19,20
 410 269 410 269 383 287 c 128,-1,21
 356 305 356 305 304 305 c 2,22,-1
 186 305 l 1,23,-1
 204 405 l 1,24,-1
 397 561 l 1,25,-1
 130 561 l 1,26,-1
 156 701 l 1,27,-1
 646 701 l 1,28,-1
 626 595 l 1,0,-1
EndSplineSet
Substitution2: "<21,0> Lower Case Numbers lookup 10 subtable" three.osf
Substitution2: "<6,0> Monospaced Numbers lookup 9 subtable" three.tf
Substitution2: "<11,2> Diagonal Fractions lookup 4 subtable" three.numr
Substitution2: "<10,1> Superiors lookup 2 subtable" uni00B3
Substitution2: "<10,2> Inferiors lookup 1 subtable" uni2083
EndChar

StartChar: four
Encoding: 52 52 24
Width: 654
Flags: W
LayerCount: 2
Fore
SplineSet
621 290 m 1,0,-1
 594 151 l 1,1,-1
 503 151 l 1,2,-1
 474 0 l 1,3,-1
 306 0 l 1,4,-1
 336 151 l 1,5,-1
 19 151 l 1,6,-1
 43 275 l 1,7,-1
 324 701 l 1,8,-1
 498 701 l 1,9,-1
 232 290 l 1,10,-1
 363 290 l 1,11,-1
 392 439 l 1,12,-1
 559 439 l 1,13,-1
 530 290 l 1,14,-1
 621 290 l 1,0,-1
EndSplineSet
Substitution2: "<21,0> Lower Case Numbers lookup 10 subtable" four.osf
Substitution2: "<6,0> Monospaced Numbers lookup 9 subtable" four.tf
Substitution2: "<11,2> Diagonal Fractions lookup 4 subtable" four.numr
Substitution2: "<10,1> Superiors lookup 2 subtable" uni2074
Substitution2: "<10,2> Inferiors lookup 1 subtable" uni2084
EndChar

StartChar: five
Encoding: 53 53 25
Width: 663
Flags: W
LayerCount: 2
Fore
SplineSet
327 554 m 1,0,-1
 307 447 l 1,1,-1
 369 447 l 2,2,3
 441 447 441 447 494.5 424.5 c 128,-1,4
 548 402 548 402 576 361 c 128,-1,5
 604 320 604 320 604 267 c 0,6,7
 604 189 604 189 561 126 c 128,-1,8
 518 63 518 63 440.5 27.5 c 128,-1,9
 363 -8 363 -8 266 -8 c 0,10,11
 196 -8 196 -8 125.5 16 c 128,-1,12
 55 40 55 40 6 79 c 1,13,-1
 99 211 l 1,14,15
 137 175 137 175 181.5 154 c 128,-1,16
 226 133 226 133 273 133 c 0,17,18
 333 133 333 133 368 161.5 c 128,-1,19
 403 190 403 190 403 237 c 0,20,21
 403 270 403 270 378 287.5 c 128,-1,22
 353 305 353 305 303 305 c 0,23,24
 170 305 170 305 110 301 c 1,25,-1
 187 701 l 1,26,-1
 658 701 l 1,27,-1
 631 554 l 1,28,-1
 327 554 l 1,0,-1
EndSplineSet
Substitution2: "<21,0> Lower Case Numbers lookup 10 subtable" five.osf
Substitution2: "<6,0> Monospaced Numbers lookup 9 subtable" five.tf
Substitution2: "<11,2> Diagonal Fractions lookup 4 subtable" five.numr
Substitution2: "<10,1> Superiors lookup 2 subtable" uni2075
Substitution2: "<10,2> Inferiors lookup 1 subtable" uni2085
EndChar

StartChar: six
Encoding: 54 54 26
Width: 674
Flags: W
LayerCount: 2
Fore
SplineSet
128 62.5 m 128,-1,1
 65 133 65 133 65 257 c 0,2,3
 65 386 65 386 117.5 489 c 128,-1,4
 170 592 170 592 261.5 650.5 c 128,-1,5
 353 709 353 709 466 709 c 0,6,7
 524 709 524 709 582 693 c 128,-1,8
 640 677 640 677 678 651 c 1,9,-1
 586 525 l 1,10,11
 560 547 560 547 525 558.5 c 128,-1,12
 490 570 490 570 450 570 c 0,13,14
 370 570 370 570 319.5 521.5 c 128,-1,15
 269 473 269 473 254 386 c 1,16,17
 321 461 321 461 432 461 c 0,18,19
 519 461 519 461 568 411.5 c 128,-1,20
 617 362 617 362 617 279 c 0,21,22
 617 195 617 195 576.5 129.5 c 128,-1,23
 536 64 536 64 465 28 c 128,-1,24
 394 -8 394 -8 306 -8 c 0,25,0
 191 -8 191 -8 128 62.5 c 128,-1,1
416.5 168.5 m 128,-1,27
 450 201 450 201 450 255 c 0,28,29
 450 291 450 291 428.5 310.5 c 128,-1,30
 407 330 407 330 368 330 c 0,31,32
 315 330 315 330 281 299.5 c 128,-1,33
 247 269 247 269 243 222 c 0,34,35
 242 218 242 218 242 209 c 0,36,37
 242 177 242 177 263 156.5 c 128,-1,38
 284 136 284 136 327 136 c 0,39,26
 383 136 383 136 416.5 168.5 c 128,-1,27
EndSplineSet
Substitution2: "<21,0> Lower Case Numbers lookup 10 subtable" six.osf
Substitution2: "<6,0> Monospaced Numbers lookup 9 subtable" six.tf
Substitution2: "<11,2> Diagonal Fractions lookup 4 subtable" six.numr
Substitution2: "<10,1> Superiors lookup 2 subtable" uni2076
Substitution2: "<10,2> Inferiors lookup 1 subtable" uni2086
EndChar

StartChar: seven
Encoding: 55 55 27
Width: 639
Flags: W
LayerCount: 2
Fore
SplineSet
130 701 m 1,0,-1
 689 701 l 1,1,-1
 665 574 l 1,2,-1
 289 0 l 1,3,-1
 95 0 l 1,4,-1
 458 554 l 1,5,-1
 264 554 l 1,6,-1
 244 455 l 1,7,-1
 83 455 l 1,8,-1
 130 701 l 1,0,-1
EndSplineSet
Substitution2: "<21,0> Lower Case Numbers lookup 10 subtable" seven.osf
Substitution2: "<6,0> Monospaced Numbers lookup 9 subtable" seven.tf
Substitution2: "<11,2> Diagonal Fractions lookup 4 subtable" seven.numr
Substitution2: "<10,1> Superiors lookup 2 subtable" uni2077
Substitution2: "<10,2> Inferiors lookup 1 subtable" uni2087
EndChar

StartChar: eight
Encoding: 56 56 28
Width: 670
Flags: W
LayerCount: 2
Fore
SplineSet
576 665.5 m 128,-1,1
 633 622 633 622 633 549 c 0,2,3
 633 495 633 495 601.5 449 c 128,-1,4
 570 403 570 403 518 375 c 1,5,6
 559 354 559 354 583 314.5 c 128,-1,7
 607 275 607 275 607 227 c 0,8,9
 607 158 607 158 565.5 104.5 c 128,-1,10
 524 51 524 51 450 21.5 c 128,-1,11
 376 -8 376 -8 281 -8 c 0,12,13
 166 -8 166 -8 100 38.5 c 128,-1,14
 34 85 34 85 34 164 c 0,15,16
 34 232 34 232 80.5 289 c 128,-1,17
 127 346 127 346 202 375 c 1,18,19
 170 396 170 396 152.5 429.5 c 128,-1,20
 135 463 135 463 135 501 c 0,21,22
 135 561 135 561 171 608.5 c 128,-1,23
 207 656 207 656 272 682.5 c 128,-1,24
 337 709 337 709 419 709 c 0,25,0
 519 709 519 709 576 665.5 c 128,-1,1
314.5 561.5 m 128,-1,27
 285 537 285 537 285 495 c 0,28,29
 285 465 285 465 306 449.5 c 128,-1,30
 327 434 327 434 366 434 c 0,31,32
 419 434 419 434 448 458 c 128,-1,33
 477 482 477 482 477 524 c 0,34,35
 477 554 477 554 456.5 570 c 128,-1,36
 436 586 436 586 396 586 c 0,37,26
 344 586 344 586 314.5 561.5 c 128,-1,27
245.5 272.5 m 128,-1,39
 211 245 211 245 211 197 c 0,40,41
 211 163 211 163 235.5 144.5 c 128,-1,42
 260 126 260 126 306 126 c 0,43,44
 367 126 367 126 402 153.5 c 128,-1,45
 437 181 437 181 437 229 c 0,46,47
 437 263 437 263 412 281.5 c 128,-1,48
 387 300 387 300 341 300 c 0,49,38
 280 300 280 300 245.5 272.5 c 128,-1,39
EndSplineSet
Substitution2: "<21,0> Lower Case Numbers lookup 10 subtable" eight.osf
Substitution2: "<6,0> Monospaced Numbers lookup 9 subtable" eight.tf
Substitution2: "<11,2> Diagonal Fractions lookup 4 subtable" eight.numr
Substitution2: "<10,1> Superiors lookup 2 subtable" uni2078
Substitution2: "<10,2> Inferiors lookup 1 subtable" uni2088
EndChar

StartChar: nine
Encoding: 57 57 29
Width: 673
Flags: W
LayerCount: 2
Fore
SplineSet
179.5 142.5 m 128,-1,1
 214 131 214 131 254 131 c 0,2,3
 334 131 334 131 384.5 179.5 c 128,-1,4
 435 228 435 228 451 316 c 1,5,6
 381 240 381 240 272 240 c 0,7,8
 187 240 187 240 138.5 289.5 c 128,-1,9
 90 339 90 339 90 422 c 0,10,11
 90 506 90 506 130 571.5 c 128,-1,12
 170 637 170 637 240.5 673 c 128,-1,13
 311 709 311 709 399 709 c 0,14,15
 513 709 513 709 576 638 c 128,-1,16
 639 567 639 567 639 443 c 0,17,18
 639 315 639 315 587 212 c 128,-1,19
 535 109 535 109 443.5 50.5 c 128,-1,20
 352 -8 352 -8 238 -8 c 0,21,22
 181 -8 181 -8 123.5 8 c 128,-1,23
 66 24 66 24 27 50 c 1,24,-1
 119 176 l 1,25,0
 145 154 145 154 179.5 142.5 c 128,-1,1
290 532.5 m 128,-1,27
 257 500 257 500 257 446 c 0,28,29
 257 411 257 411 277.5 391 c 128,-1,30
 298 371 298 371 337 371 c 0,31,32
 390 371 390 371 424 401.5 c 128,-1,33
 458 432 458 432 462 479 c 0,34,35
 463 483 463 483 463 492 c 0,36,37
 463 524 463 524 442 544.5 c 128,-1,38
 421 565 421 565 378 565 c 0,39,26
 323 565 323 565 290 532.5 c 128,-1,27
EndSplineSet
Substitution2: "<21,0> Lower Case Numbers lookup 10 subtable" nine.osf
Substitution2: "<6,0> Monospaced Numbers lookup 9 subtable" nine.tf
Substitution2: "<11,2> Diagonal Fractions lookup 4 subtable" nine.numr
Substitution2: "<10,1> Superiors lookup 2 subtable" uni2079
Substitution2: "<10,2> Inferiors lookup 1 subtable" uni2089
EndChar

StartChar: less
Encoding: 60 60 32
Width: 513
Flags: W
LayerCount: 2
Fore
SplineSet
541 582 m 1,0,-1
 516 446 l 1,1,-1
 159 319 l 1,2,-1
 463 185 l 1,3,-1
 440 66 l 1,4,-1
 31 252 l 1,5,-1
 58 397 l 1,6,-1
 541 582 l 1,0,-1
EndSplineSet
Substitution2: "'rtla' Right to Left Alternates lookup 0 subtable" greater
EndChar

StartChar: equal
Encoding: 61 61 33
Width: 511
Flags: W
LayerCount: 2
Fore
SplineSet
523 492 m 1,0,-1
 500 378 l 1,1,-1
 54 378 l 1,2,-1
 77 492 l 1,3,-1
 523 492 l 1,0,-1
480 276 m 1,4,-1
 457 162 l 1,5,-1
 11 162 l 1,6,-1
 33 276 l 1,7,-1
 480 276 l 1,4,-1
EndSplineSet
EndChar

StartChar: greater
Encoding: 62 62 34
Width: 513
Flags: W
LayerCount: 2
Fore
SplineSet
-4 74 m 1,0,-1
 21 210 l 1,1,-1
 378 337 l 1,2,-1
 74 471 l 1,3,-1
 97 590 l 1,4,-1
 506 404 l 1,5,-1
 479 259 l 1,6,-1
 -4 74 l 1,0,-1
EndSplineSet
Substitution2: "'rtla' Right to Left Alternates lookup 0 subtable" less
EndChar

StartChar: question
Encoding: 63 63 35
Width: 473
Flags: W
LayerCount: 2
Fore
SplineSet
125.5 643 m 128,-1,1
 193 704 193 704 300 704 c 0,2,3
 394 704 394 704 446.5 661.5 c 128,-1,4
 499 619 499 619 499 544 c 0,5,6
 499 503 499 503 484.5 470.5 c 128,-1,7
 470 438 470 438 449.5 415 c 128,-1,8
 429 392 429 392 395 361 c 0,9,10
 355 324 355 324 335 298.5 c 128,-1,11
 315 273 315 273 311 240 c 1,12,-1
 178 240 l 1,13,14
 183 280 183 280 197 310 c 128,-1,15
 211 340 211 340 227.5 360 c 128,-1,16
 244 380 244 380 271 407 c 0,17,18
 302 437 302 437 316.5 458.5 c 128,-1,19
 331 480 331 480 331 509 c 0,20,21
 331 561 331 561 270 561 c 0,22,23
 194 561 194 561 181 472 c 1,24,-1
 44 473 l 1,25,0
 58 582 58 582 125.5 643 c 128,-1,1
296.5 143.5 m 128,-1,27
 318 122 318 122 318 87 c 0,28,29
 318 46 318 46 291 19 c 128,-1,30
 264 -8 264 -8 224 -8 c 0,31,32
 189 -8 189 -8 167.5 13.5 c 128,-1,33
 146 35 146 35 146 70 c 0,34,35
 146 112 146 112 172.5 138.5 c 128,-1,36
 199 165 199 165 239 165 c 0,37,26
 275 165 275 165 296.5 143.5 c 128,-1,27
EndSplineSet
Substitution2: "<3,3> Small Caps in Latin lookup 11 subtable" question.sc
EndChar

StartChar: at
Encoding: 64 64 36
Width: 917
Flags: W
LayerCount: 2
Fore
SplineSet
718.5 652.5 m 128,-1,1
 803 605 803 605 849.5 520.5 c 128,-1,2
 896 436 896 436 896 329 c 0,3,4
 896 240 896 240 865 172 c 128,-1,5
 834 104 834 104 781.5 66.5 c 128,-1,6
 729 29 729 29 666 29 c 0,7,8
 619 29 619 29 591 48 c 128,-1,9
 563 67 563 67 559 106 c 1,10,-1
 559 118 l 1,11,12
 526 78 526 78 484.5 58.5 c 128,-1,13
 443 39 443 39 399 39 c 0,14,15
 348 39 348 39 305 64.5 c 128,-1,16
 262 90 262 90 236.5 135.5 c 128,-1,17
 211 181 211 181 211 240 c 0,18,19
 211 309 211 309 242.5 370 c 128,-1,20
 274 431 274 431 329 468 c 128,-1,21
 384 505 384 505 451 505 c 0,22,23
 487 505 487 505 514.5 492.5 c 128,-1,24
 542 480 542 480 558 465 c 128,-1,25
 574 450 574 450 576 443 c 1,26,-1
 583 494 l 1,27,-1
 707 494 l 1,28,-1
 659 159 l 2,29,30
 658 154 658 154 658 145 c 0,31,32
 658 110 658 110 689 110 c 0,33,34
 714 110 714 110 739.5 137 c 128,-1,35
 765 164 765 164 781.5 212.5 c 128,-1,36
 798 261 798 261 798 320 c 0,37,38
 798 403 798 403 764.5 468.5 c 128,-1,39
 731 534 731 534 666.5 571.5 c 128,-1,40
 602 609 602 609 512 609 c 0,41,42
 411 609 411 609 320.5 557 c 128,-1,43
 230 505 230 505 175.5 417 c 128,-1,44
 121 329 121 329 121 227 c 0,45,46
 121 146 121 146 157 81.5 c 128,-1,47
 193 17 193 17 258 -19.5 c 128,-1,48
 323 -56 323 -56 406 -56 c 0,49,50
 452 -56 452 -56 505.5 -40.5 c 128,-1,51
 559 -25 559 -25 603 5 c 1,52,-1
 638 -75 l 1,53,54
 591 -108 591 -108 521.5 -128.5 c 128,-1,55
 452 -149 452 -149 393 -149 c 0,56,57
 285 -149 285 -149 200 -102 c 128,-1,58
 115 -55 115 -55 68 28.5 c 128,-1,59
 21 112 21 112 21 216 c 0,60,61
 21 347 21 347 91 458 c 128,-1,62
 161 569 161 569 277.5 634.5 c 128,-1,63
 394 700 394 700 525 700 c 0,64,0
 634 700 634 700 718.5 652.5 c 128,-1,1
403.5 372.5 m 128,-1,66
 378 354 378 354 363 322.5 c 128,-1,67
 348 291 348 291 348 255 c 0,68,69
 348 210 348 210 369 180.5 c 128,-1,70
 390 151 390 151 428 151 c 0,71,72
 462 151 462 151 489 171 c 128,-1,73
 516 191 516 191 531 223.5 c 128,-1,74
 546 256 546 256 546 293 c 0,75,76
 546 336 546 336 523 363.5 c 128,-1,77
 500 391 500 391 460 391 c 0,78,65
 429 391 429 391 403.5 372.5 c 128,-1,66
EndSplineSet
EndChar

StartChar: A
Encoding: 65 65 37
Width: 773
Flags: W
LayerCount: 2
Fore
SplineSet
528 0 m 1,0,-1
 501 124 l 1,1,-1
 197 124 l 1,2,-1
 128 0 l 1,3,-1
 -59 0 l 1,4,-1
 358 701 l 1,5,-1
 546 701 l 1,6,-1
 724 0 l 1,7,-1
 528 0 l 1,0,-1
275 264 m 1,8,-1
 471 264 l 1,9,-1
 416 518 l 1,10,-1
 275 264 l 1,8,-1
EndSplineSet
Substitution2: "<11,2> Diagonal Fractions lookup 7 nested-substitutions 0 subtable" ordfeminine
Substitution2: "<11,2> Diagonal Fractions lookup 5 nested-substitutions 0 subtable" ordfeminine
EndChar

StartChar: B
Encoding: 66 66 38
Width: 718
Flags: W
LayerCount: 2
Fore
SplineSet
643.5 322 m 128,-1,1
 673 283 673 283 673 228 c 0,2,3
 673 159 673 159 633.5 107.5 c 128,-1,4
 594 56 594 56 523 28 c 128,-1,5
 452 0 452 0 360 0 c 2,6,-1
 14 0 l 1,7,-1
 154 701 l 1,8,-1
 487 701 l 2,9,10
 594 701 594 701 654.5 660 c 128,-1,11
 715 619 715 619 715 550 c 0,12,13
 715 488 715 488 672 438.5 c 128,-1,14
 629 389 629 389 561 372 c 1,15,0
 614 361 614 361 643.5 322 c 128,-1,1
491 444.5 m 128,-1,17
 518 467 518 467 518 504 c 0,18,19
 518 530 518 530 500 544 c 128,-1,20
 482 558 482 558 449 558 c 2,21,-1
 308 558 l 1,22,-1
 281 422 l 1,23,-1
 421 422 l 2,24,16
 464 422 464 422 491 444.5 c 128,-1,17
452 166 m 128,-1,26
 485 190 485 190 485 229 c 0,27,28
 485 257 485 257 461 273 c 128,-1,29
 437 289 437 289 395 289 c 2,30,-1
 254 289 l 1,31,-1
 225 142 l 1,32,-1
 365 142 l 2,33,25
 419 142 419 142 452 166 c 128,-1,26
EndSplineSet
EndChar

StartChar: C
Encoding: 67 67 39
Width: 718
Flags: W
LayerCount: 2
Fore
SplineSet
606 679.5 m 128,-1,1
 679 647 679 647 726 591 c 1,2,-1
 606 463 l 1,3,4
 576 506 576 506 532 531.5 c 128,-1,5
 488 557 488 557 442 557 c 0,6,7
 385 557 385 557 336 527.5 c 128,-1,8
 287 498 287 498 258.5 447 c 128,-1,9
 230 396 230 396 230 335 c 0,10,11
 230 283 230 283 252 241 c 128,-1,12
 274 199 274 199 313 175 c 128,-1,13
 352 151 352 151 401 151 c 0,14,15
 444 151 444 151 493.5 173 c 128,-1,16
 543 195 543 195 584 233 c 1,17,-1
 679 118 l 1,18,19
 616 58 616 58 534 22.5 c 128,-1,20
 452 -13 452 -13 375 -13 c 0,21,22
 278 -13 278 -13 202 30 c 128,-1,23
 126 73 126 73 84 148.5 c 128,-1,24
 42 224 42 224 42 319 c 0,25,26
 42 429 42 429 97 519 c 128,-1,27
 152 609 152 609 247 660.5 c 128,-1,28
 342 712 342 712 455 712 c 0,29,0
 533 712 533 712 606 679.5 c 128,-1,1
EndSplineSet
EndChar

StartChar: D
Encoding: 68 68 40
Width: 768
Flags: W
LayerCount: 2
Fore
SplineSet
611.5 664 m 128,-1,1
 685 627 685 627 724.5 560 c 128,-1,2
 764 493 764 493 764 405 c 0,3,4
 764 288 764 288 707 195.5 c 128,-1,5
 650 103 650 103 550 51.5 c 128,-1,6
 450 0 450 0 327 0 c 2,7,-1
 15 0 l 1,8,-1
 154 701 l 1,9,-1
 440 701 l 2,10,0
 538 701 538 701 611.5 664 c 128,-1,1
531 506 m 128,-1,12
 487 552 487 552 414 552 c 2,13,-1
 308 552 l 1,14,-1
 227 148 l 1,15,-1
 360 148 l 2,16,17
 419 148 419 148 468.5 178.5 c 128,-1,18
 518 209 518 209 546.5 263 c 128,-1,19
 575 317 575 317 575 385 c 0,20,11
 575 460 575 460 531 506 c 128,-1,12
EndSplineSet
EndChar

StartChar: E
Encoding: 69 69 41
Width: 675
Flags: W
LayerCount: 2
Fore
SplineSet
678 555 m 1,0,-1
 308 555 l 1,1,-1
 281 424 l 1,2,-1
 616 424 l 1,3,-1
 587 279 l 1,4,-1
 252 279 l 1,5,-1
 225 146 l 1,6,-1
 606 146 l 1,7,-1
 577 0 l 1,8,-1
 14 0 l 1,9,-1
 154 701 l 1,10,-1
 707 701 l 1,11,-1
 678 555 l 1,0,-1
EndSplineSet
EndChar

StartChar: F
Encoding: 70 70 42
Width: 607
Flags: W
LayerCount: 2
Fore
SplineSet
648 555 m 1,0,-1
 308 555 l 1,1,-1
 277 399 l 1,2,-1
 591 399 l 1,3,-1
 562 253 l 1,4,-1
 248 253 l 1,5,-1
 197 0 l 1,6,-1
 14 0 l 1,7,-1
 154 701 l 1,8,-1
 677 701 l 1,9,-1
 648 555 l 1,0,-1
EndSplineSet
EndChar

StartChar: G
Encoding: 71 71 43
Width: 752
Flags: W
LayerCount: 2
Fore
SplineSet
455 411 m 1,0,-1
 744 411 l 1,1,-1
 678 79 l 1,2,3
 616 37 616 37 535 12 c 128,-1,4
 454 -13 454 -13 382 -13 c 0,5,6
 283 -13 283 -13 205.5 30 c 128,-1,7
 128 73 128 73 85 148.5 c 128,-1,8
 42 224 42 224 42 319 c 0,9,10
 42 428 42 428 99 518 c 128,-1,11
 156 608 156 608 253 660 c 128,-1,12
 350 712 350 712 467 712 c 0,13,14
 537 712 537 712 611.5 683.5 c 128,-1,15
 686 655 686 655 736 607 c 1,16,-1
 620 479 l 1,17,18
 586 515 586 515 542.5 536 c 128,-1,19
 499 557 499 557 450 557 c 0,20,21
 391 557 391 557 340.5 527 c 128,-1,22
 290 497 290 497 260 445.5 c 128,-1,23
 230 394 230 394 230 332 c 0,24,25
 230 279 230 279 253 235.5 c 128,-1,26
 276 192 276 192 317 167.5 c 128,-1,27
 358 143 358 143 410 143 c 256,28,29
 462 143 462 143 531 175 c 1,30,-1
 545 245 l 1,31,-1
 422 245 l 1,32,-1
 455 411 l 1,0,-1
EndSplineSet
EndChar

StartChar: H
Encoding: 72 72 44
Width: 856
Flags: W
LayerCount: 2
Fore
SplineSet
655 701 m 1,0,-1
 838 701 l 1,1,-1
 698 0 l 1,2,-1
 515 0 l 1,3,-1
 569 269 l 1,4,-1
 286 269 l 1,5,-1
 232 0 l 1,6,-1
 49 0 l 1,7,-1
 189 701 l 1,8,-1
 372 701 l 1,9,-1
 315 415 l 1,10,-1
 598 415 l 1,11,-1
 655 701 l 1,0,-1
EndSplineSet
EndChar

StartChar: I
Encoding: 73 73 45
Width: 319
Flags: W
LayerCount: 2
Fore
SplineSet
337 701 m 1,0,-1
 197 0 l 1,1,-1
 14 0 l 1,2,-1
 154 701 l 1,3,-1
 337 701 l 1,0,-1
EndSplineSet
EndChar

StartChar: J
Encoding: 74 74 46
Width: 540
Flags: W
LayerCount: 2
Fore
SplineSet
570 701 m 1,0,-1
 475 228 l 2,1,2
 453 116 453 116 375 54 c 128,-1,3
 297 -8 297 -8 184 -8 c 0,4,5
 37 -8 37 -8 -38 105 c 1,6,-1
 70 230 l 1,7,8
 100 192 100 192 135 171.5 c 128,-1,9
 170 151 170 151 202 151 c 0,10,11
 236 151 236 151 260 172 c 128,-1,12
 284 193 284 193 292 232 c 2,13,-1
 355 550 l 1,14,-1
 116 550 l 1,15,-1
 146 701 l 1,16,-1
 570 701 l 1,0,-1
EndSplineSet
EndChar

StartChar: K
Encoding: 75 75 47
Width: 747
Flags: W
LayerCount: 2
Fore
SplineSet
816 701 m 1,0,-1
 497 404 l 1,1,-1
 686 0 l 1,2,-1
 472 0 l 1,3,-1
 347 265 l 1,4,-1
 228 154 l 1,5,-1
 197 0 l 1,6,-1
 14 0 l 1,7,-1
 154 701 l 1,8,-1
 337 701 l 1,9,-1
 277 400 l 1,10,-1
 595 701 l 1,11,-1
 816 701 l 1,0,-1
EndSplineSet
EndChar

StartChar: L
Encoding: 76 76 48
Width: 563
Flags: W
LayerCount: 2
Fore
SplineSet
228 156 m 1,0,-1
 525 156 l 1,1,-1
 494 0 l 1,2,-1
 14 0 l 1,3,-1
 154 701 l 1,4,-1
 337 701 l 1,5,-1
 228 156 l 1,0,-1
EndSplineSet
EndChar

StartChar: M
Encoding: 77 77 49
Width: 942
Flags: W
LayerCount: 2
Fore
SplineSet
758 701 m 1,0,-1
 956 701 l 1,1,-1
 820 0 l 1,2,-1
 659 0 l 1,3,-1
 747 450 l 1,4,-1
 491 70 l 1,5,-1
 374 70 l 1,6,-1
 267 451 l 1,7,-1
 179 0 l 1,8,-1
 18 0 l 1,9,-1
 154 701 l 1,10,-1
 351 701 l 1,11,-1
 475 286 l 1,12,-1
 758 701 l 1,0,-1
EndSplineSet
EndChar

StartChar: N
Encoding: 78 78 50
Width: 786
Flags: W
LayerCount: 2
Fore
SplineSet
633 701 m 1,0,-1
 803 701 l 1,1,-1
 663 0 l 1,2,-1
 503 0 l 1,3,-1
 270 420 l 1,4,-1
 185 0 l 1,5,-1
 14 0 l 1,6,-1
 154 701 l 1,7,-1
 314 701 l 1,8,-1
 548 279 l 1,9,-1
 633 701 l 1,0,-1
EndSplineSet
EndChar

StartChar: O
Encoding: 79 79 51
Width: 811
Flags: W
LayerCount: 2
Fore
SplineSet
637.5 669.5 m 128,-1,1
 716 627 716 627 760 552 c 128,-1,2
 804 477 804 477 804 383 c 0,3,4
 804 274 804 274 748 183 c 128,-1,5
 692 92 692 92 596 39.5 c 128,-1,6
 500 -13 500 -13 386 -13 c 0,7,8
 286 -13 286 -13 207.5 30 c 128,-1,9
 129 73 129 73 85.5 148.5 c 128,-1,10
 42 224 42 224 42 319 c 0,11,12
 42 429 42 429 98 519 c 128,-1,13
 154 609 154 609 249.5 660.5 c 128,-1,14
 345 712 345 712 459 712 c 0,15,0
 559 712 559 712 637.5 669.5 c 128,-1,1
340 527 m 128,-1,17
 290 497 290 497 260 445 c 128,-1,18
 230 393 230 393 230 332 c 0,19,20
 230 279 230 279 253 236 c 128,-1,21
 276 193 276 193 316 168 c 128,-1,22
 356 143 356 143 404 143 c 0,23,24
 459 143 459 143 508 173.5 c 128,-1,25
 557 204 557 204 586 256 c 128,-1,26
 615 308 615 308 615 370 c 0,27,28
 615 423 615 423 593 465.5 c 128,-1,29
 571 508 571 508 532 532.5 c 128,-1,30
 493 557 493 557 446 557 c 0,31,16
 390 557 390 557 340 527 c 128,-1,17
EndSplineSet
Substitution2: "<11,2> Diagonal Fractions lookup 7 nested-substitutions 0 subtable" ordmasculine
Substitution2: "<11,2> Diagonal Fractions lookup 5 nested-substitutions 0 subtable" ordmasculine
EndChar

StartChar: P
Encoding: 80 80 52
Width: 693
Flags: W
LayerCount: 2
Fore
SplineSet
639 649.5 m 128,-1,1
 701 598 701 598 701 504 c 0,2,3
 701 411 701 411 660 341 c 128,-1,4
 619 271 619 271 542 232.5 c 128,-1,5
 465 194 465 194 360 194 c 2,6,-1
 236 194 l 1,7,-1
 197 0 l 1,8,-1
 14 0 l 1,9,-1
 154 701 l 1,10,-1
 461 701 l 2,11,0
 577 701 577 701 639 649.5 c 128,-1,1
485 375.5 m 128,-1,13
 523 411 523 411 523 472 c 0,14,15
 523 512 523 512 497.5 533.5 c 128,-1,16
 472 555 472 555 424 555 c 2,17,-1
 308 555 l 1,18,-1
 265 340 l 1,19,-1
 381 340 l 2,20,12
 447 340 447 340 485 375.5 c 128,-1,13
EndSplineSet
EndChar

StartChar: Q
Encoding: 81 81 53
Width: 814
Flags: W
LayerCount: 2
Fore
SplineSet
805 -89 m 1,0,1
 760 -125 760 -125 702.5 -146 c 128,-1,2
 645 -167 645 -167 592 -167 c 0,3,4
 521 -167 521 -167 467 -126 c 128,-1,5
 413 -85 413 -85 387 -13 c 1,6,-1
 386 -13 l 2,7,8
 286 -13 286 -13 207.5 30 c 128,-1,9
 129 73 129 73 85.5 148.5 c 128,-1,10
 42 224 42 224 42 319 c 0,11,12
 42 429 42 429 98 519 c 128,-1,13
 154 609 154 609 249.5 660.5 c 128,-1,14
 345 712 345 712 459 712 c 0,15,16
 559 712 559 712 637.5 669.5 c 128,-1,17
 716 627 716 627 760 552 c 128,-1,18
 804 477 804 477 804 383 c 0,19,20
 804 260 804 260 734.5 162 c 128,-1,21
 665 64 665 64 550 18 c 1,22,23
 564 -4 564 -4 583.5 -16 c 128,-1,24
 603 -28 603 -28 625 -28 c 0,25,26
 653 -28 653 -28 684.5 -15 c 128,-1,27
 716 -2 716 -2 756 24 c 1,28,-1
 805 -89 l 1,0,1
253 236 m 128,-1,30
 276 193 276 193 316 168 c 128,-1,31
 356 143 356 143 404 143 c 0,32,33
 459 143 459 143 508 173.5 c 128,-1,34
 557 204 557 204 586 256 c 128,-1,35
 615 308 615 308 615 370 c 0,36,37
 615 423 615 423 593 465.5 c 128,-1,38
 571 508 571 508 532 532.5 c 128,-1,39
 493 557 493 557 446 557 c 0,40,41
 390 557 390 557 340 527 c 128,-1,42
 290 497 290 497 260 445 c 128,-1,43
 230 393 230 393 230 332 c 0,44,29
 230 279 230 279 253 236 c 128,-1,30
EndSplineSet
EndChar

StartChar: R
Encoding: 82 82 54
Width: 724
Flags: W
LayerCount: 2
Fore
SplineSet
673 335.5 m 128,-1,1
 628 264 628 264 544 227 c 1,2,-1
 642 0 l 1,3,-1
 434 0 l 1,4,-1
 371 194 l 1,5,-1
 368 194 l 1,6,-1
 236 194 l 1,7,-1
 197 0 l 1,8,-1
 14 0 l 1,9,-1
 154 701 l 1,10,-1
 469 701 l 2,11,12
 589 701 589 701 653.5 649 c 128,-1,13
 718 597 718 597 718 503 c 0,14,0
 718 407 718 407 673 335.5 c 128,-1,1
265 340 m 1,15,-1
 397 340 l 2,16,17
 464 340 464 340 502 375 c 128,-1,18
 540 410 540 410 540 472 c 0,19,20
 540 512 540 512 514.5 533.5 c 128,-1,21
 489 555 489 555 441 555 c 2,22,-1
 308 555 l 1,23,-1
 265 340 l 1,15,-1
EndSplineSet
EndChar

StartChar: S
Encoding: 83 83 55
Width: 635
Flags: W
LayerCount: 2
Fore
SplineSet
521 692.5 m 128,-1,1
 593 671 593 671 646 635 c 1,2,-1
 561 489 l 1,3,4
 510 522 510 522 448.5 543.5 c 128,-1,5
 387 565 387 565 344 565 c 0,6,7
 309 565 309 565 288 552 c 128,-1,8
 267 539 267 539 265 514 c 0,9,10
 264 482 264 482 293.5 465 c 128,-1,11
 323 448 323 448 388 428 c 256,12,13
 453 408 453 408 495.5 388.5 c 128,-1,14
 538 369 538 369 568.5 330.5 c 128,-1,15
 599 292 599 292 599 230 c 0,16,17
 599 153 599 153 558.5 98.5 c 128,-1,18
 518 44 518 44 448.5 16.5 c 128,-1,19
 379 -11 379 -11 295 -11 c 0,20,21
 207 -11 207 -11 124 19 c 128,-1,22
 41 49 41 49 -17 102 c 1,23,-1
 68 246 l 1,24,25
 116 199 116 199 185.5 168.5 c 128,-1,26
 255 138 255 138 311 138 c 0,27,28
 355 138 355 138 380 154.5 c 128,-1,29
 405 171 405 171 405 203 c 0,30,31
 405 225 405 225 389 239.5 c 128,-1,32
 373 254 373 254 349 263 c 128,-1,33
 325 272 325 272 280 286 c 0,34,35
 215 304 215 304 173 323 c 128,-1,36
 131 342 131 342 101 379 c 128,-1,37
 71 416 71 416 71 476 c 0,38,39
 71 548 71 548 109 601.5 c 128,-1,40
 147 655 147 655 215.5 684.5 c 128,-1,41
 284 714 284 714 374 714 c 0,42,0
 449 714 449 714 521 692.5 c 128,-1,1
EndSplineSet
EndChar

StartChar: T
Encoding: 84 84 56
Width: 615
Flags: W
LayerCount: 2
Fore
SplineSet
694 701 m 1,0,-1
 664 550 l 1,1,-1
 455 550 l 1,2,-1
 344 0 l 1,3,-1
 161 0 l 1,4,-1
 272 550 l 1,5,-1
 63 550 l 1,6,-1
 93 701 l 1,7,-1
 694 701 l 1,0,-1
EndSplineSet
EndChar

StartChar: U
Encoding: 85 85 57
Width: 758
Flags: W
LayerCount: 2
Fore
SplineSet
707 294 m 2,0,1
 679 154 679 154 581 73 c 128,-1,2
 483 -8 483 -8 336 -8 c 0,3,4
 250 -8 250 -8 186.5 20.5 c 128,-1,5
 123 49 123 49 88.5 102 c 128,-1,6
 54 155 54 155 54 227 c 0,7,8
 54 262 54 262 61 294 c 2,9,-1
 143 701 l 1,10,-1
 325 701 l 1,11,-1
 244 294 l 2,12,13
 240 277 240 277 240 258 c 0,14,15
 240 207 240 207 271.5 177.5 c 128,-1,16
 303 148 303 148 357 148 c 0,17,18
 418 148 418 148 464 187.5 c 128,-1,19
 510 227 510 227 524 294 c 2,20,-1
 605 701 l 1,21,-1
 788 701 l 1,22,-1
 707 294 l 2,0,1
EndSplineSet
EndChar

StartChar: V
Encoding: 86 86 58
Width: 732
Flags: W
LayerCount: 2
Fore
SplineSet
632 701 m 1,0,-1
 820 701 l 1,1,-1
 430 0 l 1,2,-1
 240 0 l 1,3,-1
 84 701 l 1,4,-1
 280 701 l 1,5,-1
 371 191 l 1,6,-1
 632 701 l 1,0,-1
EndSplineSet
EndChar

StartChar: W
Encoding: 87 87 59
Width: 1085
Flags: W
LayerCount: 2
Fore
SplineSet
990 701 m 1,0,-1
 1178 701 l 1,1,-1
 831 0 l 1,2,-1
 642 0 l 1,3,-1
 595 479 l 1,4,-1
 386 0 l 1,5,-1
 198 0 l 1,6,-1
 84 701 l 1,7,-1
 280 701 l 1,8,-1
 329 191 l 1,9,-1
 546 700 l 1,10,-1
 725 701 l 1,11,-1
 774 191 l 1,12,-1
 990 701 l 1,0,-1
EndSplineSet
EndChar

StartChar: X
Encoding: 88 88 60
Width: 747
Flags: W
LayerCount: 2
Fore
SplineSet
782 701 m 1,0,-1
 495 366 l 1,1,-1
 687 0 l 1,2,-1
 467 0 l 1,3,-1
 355 217 l 1,4,-1
 172 0 l 1,5,-1
 -42 0 l 1,6,-1
 266 357 l 1,7,-1
 89 701 l 1,8,-1
 303 701 l 1,9,-1
 401 502 l 1,10,-1
 566 701 l 1,11,-1
 782 701 l 1,0,-1
EndSplineSet
EndChar

StartChar: Y
Encoding: 89 89 61
Width: 684
Flags: W
LayerCount: 2
Fore
SplineSet
775 701 m 1,0,-1
 443 225 l 1,1,-1
 406 0 l 1,2,-1
 223 0 l 1,3,-1
 259 224 l 1,4,-1
 81 701 l 1,5,-1
 264 701 l 1,6,-1
 380 398 l 1,7,-1
 592 701 l 1,8,-1
 775 701 l 1,0,-1
EndSplineSet
EndChar

StartChar: Z
Encoding: 90 90 62
Width: 688
Flags: W
LayerCount: 2
Fore
SplineSet
715 701 m 1,0,-1
 696 582 l 1,1,-1
 255 147 l 1,2,-1
 630 147 l 1,3,-1
 606 0 l 1,4,-1
 -15 0 l 1,5,-1
 4 119 l 1,6,-1
 446 553 l 1,7,-1
 90 553 l 1,8,-1
 113 701 l 1,9,-1
 715 701 l 1,0,-1
EndSplineSet
EndChar

StartChar: bracketleft
Encoding: 91 91 63
Width: 359
Flags: W
LayerCount: 2
Fore
SplineSet
439 742 m 1,0,-1
 412 608 l 1,1,-1
 292 608 l 1,2,-1
 172 10 l 1,3,-1
 292 10 l 1,4,-1
 265 -124 l 1,5,-1
 -13 -124 l 1,6,-1
 161 742 l 1,7,-1
 439 742 l 1,0,-1
EndSplineSet
Substitution2: "'rtla' Right to Left Alternates lookup 0 subtable" bracketright
EndChar

StartChar: backslash
Encoding: 92 92 64
Width: 699
Flags: W
LayerCount: 2
Fore
SplineSet
76 810 m 1,0,-1
 226 810 l 1,1,-1
 617 -110 l 1,2,-1
 467 -110 l 1,3,-1
 76 810 l 1,0,-1
EndSplineSet
EndChar

StartChar: bracketright
Encoding: 93 93 65
Width: 390
Flags: W
LayerCount: 2
Fore
SplineSet
-18 -124 m 1,0,-1
 9 10 l 1,1,-1
 129 10 l 1,2,-1
 249 608 l 1,3,-1
 129 608 l 1,4,-1
 156 742 l 1,5,-1
 434 742 l 1,6,-1
 260 -124 l 1,7,-1
 -18 -124 l 1,0,-1
EndSplineSet
Substitution2: "'rtla' Right to Left Alternates lookup 0 subtable" bracketleft
EndChar

StartChar: asciicircum
Encoding: 94 94 66
Width: 578
Flags: W
LayerCount: 2
Fore
SplineSet
520 139 m 1,0,-1
 398 139 l 1,1,-1
 325 425 l 1,2,-1
 135 139 l 1,3,-1
 7 139 l 1,4,-1
 269 524 l 1,5,-1
 412 524 l 1,6,-1
 520 139 l 1,0,-1
EndSplineSet
EndChar

StartChar: underscore
Encoding: 95 95 67
Width: 585
Flags: W
LayerCount: 2
Fore
SplineSet
510 -106 m 1,0,-1
 490 -204 l 1,1,-1
 -95 -204 l 1,2,-1
 -75 -106 l 1,3,-1
 510 -106 l 1,0,-1
EndSplineSet
EndChar

StartChar: a
Encoding: 97 97 69
Width: 686
Flags: W
LayerCount: 2
Fore
SplineSet
124 23 m 128,-1,1
 76 53 76 53 49.5 107 c 128,-1,2
 23 161 23 161 23 231 c 0,3,4
 23 319 23 319 60.5 391 c 128,-1,5
 98 463 98 463 163.5 505 c 128,-1,6
 229 547 229 547 308 547 c 0,7,8
 430 547 430 547 476 451 c 1,9,-1
 494 541 l 1,10,-1
 671 541 l 1,11,-1
 564 0 l 1,12,-1
 386 0 l 1,13,-1
 399 64 l 1,14,15
 328 -7 328 -7 233 -7 c 0,16,0
 172 -7 172 -7 124 23 c 128,-1,1
371 151 m 128,-1,18
 403 172 403 172 421.5 208 c 128,-1,19
 440 244 440 244 440 287 c 0,20,21
 440 338 440 338 412.5 368.5 c 128,-1,22
 385 399 385 399 339 399 c 0,23,24
 302 399 302 399 270.5 377.5 c 128,-1,25
 239 356 239 356 220.5 320 c 128,-1,26
 202 284 202 284 202 242 c 0,27,28
 202 191 202 191 229.5 160.5 c 128,-1,29
 257 130 257 130 302 130 c 0,30,17
 339 130 339 130 371 151 c 128,-1,18
EndSplineSet
Substitution2: "<3,3> Small Caps in Latin lookup 11 subtable" a.sc
Substitution2: "<11,2> Diagonal Fractions lookup 7 nested-substitutions 0 subtable" ordfeminine
Substitution2: "<11,2> Diagonal Fractions lookup 5 nested-substitutions 0 subtable" ordfeminine
EndChar

StartChar: b
Encoding: 98 98 70
Width: 692
Flags: W
LayerCount: 2
Fore
SplineSet
567.5 517 m 128,-1,1
 615 487 615 487 641.5 433 c 128,-1,2
 668 379 668 379 668 309 c 0,3,4
 668 221 668 221 630.5 148.5 c 128,-1,5
 593 76 593 76 527.5 34 c 128,-1,6
 462 -8 462 -8 383 -8 c 0,7,8
 323 -8 323 -8 280.5 16.5 c 128,-1,9
 238 41 238 41 215 88 c 1,10,-1
 197 0 l 1,11,-1
 20 0 l 1,12,-1
 167 742 l 1,13,-1
 345 742 l 1,14,-1
 292 476 l 1,15,16
 327 510 327 510 369.5 528.5 c 128,-1,17
 412 547 412 547 458 547 c 0,18,0
 520 547 520 547 567.5 517 c 128,-1,1
320 388.5 m 128,-1,20
 288 367 288 367 269.5 331 c 128,-1,21
 251 295 251 295 251 253 c 0,22,23
 251 202 251 202 278.5 171.5 c 128,-1,24
 306 141 306 141 352 141 c 0,25,26
 389 141 389 141 420.5 162 c 128,-1,27
 452 183 452 183 470.5 219 c 128,-1,28
 489 255 489 255 489 298 c 0,29,30
 489 350 489 350 462 380 c 128,-1,31
 435 410 435 410 389 410 c 0,32,19
 352 410 352 410 320 388.5 c 128,-1,20
EndSplineSet
Substitution2: "<3,3> Small Caps in Latin lookup 11 subtable" b.sc
EndChar

StartChar: c
Encoding: 99 99 71
Width: 580
Flags: W
LayerCount: 2
Fore
SplineSet
144 24.5 m 128,-1,1
 87 55 87 55 56 111 c 128,-1,2
 25 167 25 167 25 240 c 0,3,4
 25 330 25 330 64.5 399.5 c 128,-1,5
 104 469 104 469 174 508 c 128,-1,6
 244 547 244 547 334 547 c 0,7,8
 415 547 415 547 474.5 513.5 c 128,-1,9
 534 480 534 480 563 419 c 1,10,-1
 427 344 l 1,11,12
 412 371 412 371 386.5 385.5 c 128,-1,13
 361 400 361 400 327 400 c 0,14,15
 274 400 274 400 239 359 c 128,-1,16
 204 318 204 318 204 253 c 0,17,18
 204 201 204 201 230.5 169.5 c 128,-1,19
 257 138 257 138 301 138 c 0,20,21
 375 138 375 138 413 199 c 1,22,-1
 536 123 l 1,23,24
 498 61 498 61 431 27.5 c 128,-1,25
 364 -6 364 -6 277 -6 c 0,26,0
 201 -6 201 -6 144 24.5 c 128,-1,1
EndSplineSet
Substitution2: "<3,3> Small Caps in Latin lookup 11 subtable" c.sc
EndChar

StartChar: d
Encoding: 100 100 72
Width: 691
Flags: W
LayerCount: 2
Fore
SplineSet
124 23 m 128,-1,1
 76 53 76 53 49.5 107 c 128,-1,2
 23 161 23 161 23 231 c 0,3,4
 23 319 23 319 60.5 391 c 128,-1,5
 98 463 98 463 163.5 505 c 128,-1,6
 229 547 229 547 308 547 c 0,7,8
 430 547 430 547 476 451 c 1,9,-1
 534 742 l 1,10,-1
 712 742 l 1,11,-1
 564 0 l 1,12,-1
 386 0 l 1,13,-1
 399 64 l 1,14,15
 328 -7 328 -7 233 -7 c 0,16,0
 172 -7 172 -7 124 23 c 128,-1,1
371 151 m 128,-1,18
 403 172 403 172 421.5 208 c 128,-1,19
 440 244 440 244 440 287 c 0,20,21
 440 338 440 338 412.5 368.5 c 128,-1,22
 385 399 385 399 339 399 c 0,23,24
 302 399 302 399 270.5 377.5 c 128,-1,25
 239 356 239 356 220.5 320 c 128,-1,26
 202 284 202 284 202 242 c 0,27,28
 202 191 202 191 229.5 160.5 c 128,-1,29
 257 130 257 130 302 130 c 0,30,17
 339 130 339 130 371 151 c 128,-1,18
EndSplineSet
Substitution2: "<3,3> Small Caps in Latin lookup 11 subtable" d.sc
EndChar

StartChar: e
Encoding: 101 101 73
Width: 615
Flags: W
LayerCount: 2
Fore
SplineSet
469.5 516 m 128,-1,1
 529 486 529 486 561 431.5 c 128,-1,2
 593 377 593 377 593 304 c 0,3,4
 593 270 593 270 583 223 c 1,5,-1
 199 223 l 1,6,7
 204 177 204 177 234 152 c 128,-1,8
 264 127 264 127 315 127 c 0,9,10
 382 127 382 127 439 172 c 1,11,-1
 528 75 l 1,12,13
 438 -7 438 -7 308 -7 c 0,14,15
 222 -7 222 -7 158 23 c 128,-1,16
 94 53 94 53 59 109 c 128,-1,17
 24 165 24 165 24 239 c 0,18,19
 24 326 24 326 63.5 396 c 128,-1,20
 103 466 103 466 173 506 c 128,-1,21
 243 546 243 546 330 546 c 0,22,0
 410 546 410 546 469.5 516 c 128,-1,1
425 337 m 0,24,25
 425 375 425 375 402 397.5 c 128,-1,26
 379 420 379 420 340 420 c 0,27,28
 298 420 298 420 264 392 c 128,-1,29
 230 364 230 364 212 318 c 1,30,-1
 424 318 l 1,31,23
 425 324 425 324 425 337 c 0,24,25
EndSplineSet
Substitution2: "<3,3> Small Caps in Latin lookup 11 subtable" e.sc
EndChar

StartChar: f
Encoding: 102 102 74
Width: 388
Flags: W
LayerCount: 2
Fore
SplineSet
362 589.5 m 128,-1,1
 338 571 338 571 332 543 c 2,2,-1
 326 515 l 1,3,-1
 446 515 l 1,4,-1
 423 397 l 1,5,-1
 303 397 l 1,6,-1
 223 0 l 1,7,-1
 47 0 l 1,8,-1
 126 397 l 1,9,-1
 53 397 l 1,10,-1
 76 515 l 1,11,-1
 149 515 l 1,12,-1
 161 573 l 2,13,14
 178 658 178 658 241 704 c 128,-1,15
 304 750 304 750 391 750 c 0,16,17
 456 750 456 750 512 726 c 1,18,-1
 467 595 l 1,19,20
 456 600 456 600 441 604 c 128,-1,21
 426 608 426 608 416 608 c 0,22,0
 386 608 386 608 362 589.5 c 128,-1,1
EndSplineSet
Substitution2: "<3,3> Small Caps in Latin lookup 11 subtable" f.sc
EndChar

StartChar: g
Encoding: 103 103 75
Width: 653
Flags: W
LayerCount: 2
Fore
SplineSet
88.5 -180.5 m 128,-1,1
 27 -160 27 -160 -22 -126 c 1,2,-1
 53 -12 l 1,3,4
 86 -36 86 -36 129 -48.5 c 128,-1,5
 172 -61 172 -61 215 -61 c 0,6,7
 277 -61 277 -61 316.5 -33 c 128,-1,8
 356 -5 356 -5 367 45 c 2,9,-1
 377 88 l 1,10,11
 344 60 344 60 304.5 45 c 128,-1,12
 265 30 265 30 223 30 c 0,13,14
 166 30 166 30 121 57.5 c 128,-1,15
 76 85 76 85 51 134.5 c 128,-1,16
 26 184 26 184 26 247 c 0,17,18
 26 330 26 330 61.5 399 c 128,-1,19
 97 468 97 468 158.5 507.5 c 128,-1,20
 220 547 220 547 294 547 c 0,21,22
 350 547 350 547 389.5 525 c 128,-1,23
 429 503 429 503 450 461 c 1,24,-1
 467 541 l 1,25,-1
 644 541 l 1,26,-1
 541 28 l 2,27,28
 519 -81 519 -81 434.5 -141 c 128,-1,29
 350 -201 350 -201 221 -201 c 0,30,0
 150 -201 150 -201 88.5 -180.5 c 128,-1,1
354.5 184 m 128,-1,32
 383 202 383 202 399.5 233 c 128,-1,33
 416 264 416 264 416 301 c 0,34,35
 416 345 416 345 391.5 372 c 128,-1,36
 367 399 367 399 327 399 c 0,37,38
 294 399 294 399 266 380 c 128,-1,39
 238 361 238 361 221.5 328.5 c 128,-1,40
 205 296 205 296 205 258 c 0,41,42
 205 216 205 216 229 191 c 128,-1,43
 253 166 253 166 293 166 c 0,44,31
 326 166 326 166 354.5 184 c 128,-1,32
EndSplineSet
Substitution2: "<3,3> Small Caps in Latin lookup 11 subtable" g.sc
EndChar

StartChar: h
Encoding: 104 104 76
Width: 682
Flags: W
LayerCount: 2
Fore
SplineSet
594.5 499 m 128,-1,1
 645 450 645 450 645 370 c 0,2,3
 645 348 645 348 640 320 c 2,4,-1
 575 0 l 1,5,-1
 398 0 l 1,6,-1
 456 294 l 2,7,8
 459 308 459 308 459 320 c 0,9,10
 459 356 459 356 438 376.5 c 128,-1,11
 417 397 417 397 380 397 c 0,12,13
 335 397 335 397 299.5 363 c 128,-1,14
 264 329 264 329 254 275 c 2,15,-1
 199 0 l 1,16,-1
 21 0 l 1,17,-1
 167 742 l 1,18,-1
 346 742 l 1,19,-1
 292 469 l 1,20,21
 356 548 356 548 459 548 c 0,22,0
 544 548 544 548 594.5 499 c 128,-1,1
EndSplineSet
Substitution2: "<3,3> Small Caps in Latin lookup 11 subtable" h.sc
EndChar

StartChar: k
Encoding: 107 107 79
Width: 654
Flags: W
LayerCount: 2
Fore
SplineSet
700 541 m 1,0,-1
 445 321 l 1,1,-1
 585 0 l 1,2,-1
 378 0 l 1,3,-1
 306 200 l 1,4,-1
 223 128 l 1,5,-1
 197 0 l 1,6,-1
 19 0 l 1,7,-1
 167 742 l 1,8,-1
 345 742 l 1,9,-1
 269 360 l 1,10,-1
 477 541 l 1,11,-1
 700 541 l 1,0,-1
EndSplineSet
Substitution2: "<3,3> Small Caps in Latin lookup 11 subtable" k.sc
EndChar

StartChar: l
Encoding: 108 108 80
Width: 324
Flags: W
LayerCount: 2
Fore
SplineSet
345 742 m 1,0,-1
 197 0 l 1,1,-1
 19 0 l 1,2,-1
 167 742 l 1,3,-1
 345 742 l 1,0,-1
EndSplineSet
Substitution2: "<3,3> Small Caps in Latin lookup 11 subtable" l.sc
EndChar

StartChar: m
Encoding: 109 109 81
Width: 1054
Flags: W
LayerCount: 2
Fore
SplineSet
966 499.5 m 128,-1,1
 1016 451 1016 451 1016 372 c 0,2,3
 1016 343 1016 343 1011 320 c 2,4,-1
 947 0 l 1,5,-1
 769 0 l 1,6,-1
 827 294 l 2,7,8
 830 309 830 309 830 321 c 0,9,10
 830 356 830 356 809 376.5 c 128,-1,11
 788 397 788 397 751 397 c 0,12,13
 707 397 707 397 671.5 363 c 128,-1,14
 636 329 636 329 625 275 c 2,15,-1
 570 0 l 1,16,-1
 392 0 l 1,17,-1
 451 294 l 2,18,19
 454 308 454 308 454 320 c 0,20,21
 454 356 454 356 433 376.5 c 128,-1,22
 412 397 412 397 375 397 c 0,23,24
 330 397 330 397 294.5 363 c 128,-1,25
 259 329 259 329 248 275 c 2,26,-1
 193 0 l 1,27,-1
 15 0 l 1,28,-1
 122 541 l 1,29,-1
 300 541 l 1,30,-1
 286 469 l 1,31,32
 351 548 351 548 454 548 c 0,33,34
 522 548 522 548 568.5 516.5 c 128,-1,35
 615 485 615 485 631 430 c 1,36,37
 711 548 711 548 831 548 c 0,38,0
 916 548 916 548 966 499.5 c 128,-1,1
EndSplineSet
Substitution2: "<3,3> Small Caps in Latin lookup 11 subtable" m.sc
EndChar

StartChar: n
Encoding: 110 110 82
Width: 677
Flags: W
LayerCount: 2
Fore
SplineSet
589 499.5 m 128,-1,1
 639 451 639 451 639 372 c 0,2,3
 639 343 639 343 634 320 c 2,4,-1
 570 0 l 1,5,-1
 392 0 l 1,6,-1
 451 294 l 2,7,8
 454 308 454 308 454 320 c 0,9,10
 454 356 454 356 433 376.5 c 128,-1,11
 412 397 412 397 375 397 c 0,12,13
 330 397 330 397 294.5 363 c 128,-1,14
 259 329 259 329 248 275 c 2,15,-1
 193 0 l 1,16,-1
 15 0 l 1,17,-1
 122 541 l 1,18,-1
 300 541 l 1,19,-1
 286 469 l 1,20,21
 351 548 351 548 454 548 c 0,22,0
 539 548 539 548 589 499.5 c 128,-1,1
EndSplineSet
Substitution2: "<3,3> Small Caps in Latin lookup 11 subtable" n.sc
EndChar

StartChar: o
Encoding: 111 111 83
Width: 644
Flags: W
LayerCount: 2
Fore
SplineSet
493 516 m 128,-1,1
 554 485 554 485 587 429 c 128,-1,2
 620 373 620 373 620 298 c 0,3,4
 620 209 620 209 578.5 140 c 128,-1,5
 537 71 537 71 463 32.5 c 128,-1,6
 389 -6 389 -6 295 -6 c 0,7,8
 213 -6 213 -6 152 25 c 128,-1,9
 91 56 91 56 58 112.5 c 128,-1,10
 25 169 25 169 25 244 c 0,11,12
 25 333 25 333 66.5 402 c 128,-1,13
 108 471 108 471 181.5 509 c 128,-1,14
 255 547 255 547 350 547 c 0,15,0
 432 547 432 547 493 516 c 128,-1,1
242 361 m 128,-1,17
 205 319 205 319 205 252 c 0,18,19
 205 199 205 199 233 166.5 c 128,-1,20
 261 134 261 134 308 134 c 0,21,22
 365 134 365 134 402 176 c 128,-1,23
 439 218 439 218 439 285 c 0,24,25
 439 338 439 338 411 370.5 c 128,-1,26
 383 403 383 403 336 403 c 0,27,16
 279 403 279 403 242 361 c 128,-1,17
EndSplineSet
Substitution2: "<3,3> Small Caps in Latin lookup 11 subtable" o.sc
Substitution2: "<11,2> Diagonal Fractions lookup 7 nested-substitutions 0 subtable" ordmasculine
Substitution2: "<11,2> Diagonal Fractions lookup 5 nested-substitutions 0 subtable" ordmasculine
EndChar

StartChar: p
Encoding: 112 112 84
Width: 691
Flags: W
LayerCount: 2
Fore
SplineSet
567 517 m 128,-1,1
 615 487 615 487 641.5 433.5 c 128,-1,2
 668 380 668 380 668 310 c 0,3,4
 668 222 668 222 630 149.5 c 128,-1,5
 592 77 592 77 526.5 35 c 128,-1,6
 461 -7 461 -7 382 -7 c 0,7,8
 322 -7 322 -7 279.5 17.5 c 128,-1,9
 237 42 237 42 215 89 c 1,10,-1
 158 -194 l 1,11,-1
 -20 -194 l 1,12,-1
 127 541 l 1,13,-1
 304 541 l 1,14,-1
 291 477 l 1,15,16
 325 511 325 511 368 529 c 128,-1,17
 411 547 411 547 458 547 c 0,18,0
 519 547 519 547 567 517 c 128,-1,1
319.5 389.5 m 128,-1,20
 288 368 288 368 269.5 332 c 128,-1,21
 251 296 251 296 251 253 c 0,22,23
 251 203 251 203 278.5 172.5 c 128,-1,24
 306 142 306 142 352 142 c 0,25,26
 389 142 389 142 420 163 c 128,-1,27
 451 184 451 184 469.5 220 c 128,-1,28
 488 256 488 256 488 299 c 0,29,30
 488 351 488 351 461 381 c 128,-1,31
 434 411 434 411 388 411 c 0,32,19
 351 411 351 411 319.5 389.5 c 128,-1,20
EndSplineSet
Substitution2: "<3,3> Small Caps in Latin lookup 11 subtable" p.sc
EndChar

StartChar: q
Encoding: 113 113 85
Width: 690
Flags: W
LayerCount: 2
Fore
SplineSet
124 23 m 128,-1,1
 76 53 76 53 49.5 107 c 128,-1,2
 23 161 23 161 23 231 c 0,3,4
 23 319 23 319 60.5 391 c 128,-1,5
 98 463 98 463 163.5 505 c 128,-1,6
 229 547 229 547 308 547 c 0,7,8
 430 547 430 547 476 451 c 1,9,-1
 494 541 l 1,10,-1
 671 541 l 1,11,-1
 525 -194 l 1,12,-1
 347 -194 l 1,13,-1
 399 64 l 1,14,15
 328 -7 328 -7 233 -7 c 0,16,0
 172 -7 172 -7 124 23 c 128,-1,1
371 151 m 128,-1,18
 403 172 403 172 421.5 208 c 128,-1,19
 440 244 440 244 440 287 c 0,20,21
 440 338 440 338 412.5 368.5 c 128,-1,22
 385 399 385 399 339 399 c 0,23,24
 302 399 302 399 270.5 377.5 c 128,-1,25
 239 356 239 356 220.5 320 c 128,-1,26
 202 284 202 284 202 242 c 0,27,28
 202 191 202 191 229.5 160.5 c 128,-1,29
 257 130 257 130 302 130 c 0,30,17
 339 130 339 130 371 151 c 128,-1,18
EndSplineSet
Substitution2: "<3,3> Small Caps in Latin lookup 11 subtable" q.sc
EndChar

StartChar: r
Encoding: 114 114 86
Width: 436
Flags: W
LayerCount: 2
Fore
SplineSet
470 548 m 1,1,-1
 449 385 l 1,2,3
 440 386 440 386 423 386 c 0,4,5
 357 386 357 386 307.5 351 c 128,-1,6
 258 316 258 316 244 261 c 2,7,-1
 192 0 l 1,8,-1
 14 0 l 1,9,-1
 122 541 l 1,10,-1
 300 541 l 1,11,-1
 283 457 l 1,12,0
 356 548 356 548 470 548 c 1,1,-1
EndSplineSet
Substitution2: "<3,3> Small Caps in Latin lookup 11 subtable" r.sc
EndChar

StartChar: s
Encoding: 115 115 87
Width: 524
Flags: W
LayerCount: 2
Fore
SplineSet
103.5 20.5 m 128,-1,1
 31 48 31 48 -19 96 c 1,2,-1
 55 202 l 1,3,4
 97 164 97 164 148 141 c 128,-1,5
 199 118 199 118 243 118 c 0,6,7
 271 118 271 118 286.5 128.5 c 128,-1,8
 302 139 302 139 302 158 c 0,9,10
 302 174 302 174 283 185.5 c 128,-1,11
 264 197 264 197 223 213 c 0,12,13
 175 232 175 232 143 249 c 128,-1,14
 111 266 111 266 88 296.5 c 128,-1,15
 65 327 65 327 65 371 c 0,16,17
 65 423 65 423 92 463 c 128,-1,18
 119 503 119 503 167.5 525 c 128,-1,19
 216 547 216 547 279 547 c 0,20,21
 346 547 346 547 412.5 523.5 c 128,-1,22
 479 500 479 500 532 459 c 1,23,-1
 454 353 l 1,24,25
 408 385 408 385 362.5 404 c 128,-1,26
 317 423 317 423 285 423 c 0,27,28
 263 423 263 423 248 412.5 c 128,-1,29
 233 402 233 402 233 386 c 256,30,31
 233 370 233 370 252.5 358 c 128,-1,32
 272 346 272 346 313 330 c 0,33,34
 362 310 362 310 394.5 292.5 c 128,-1,35
 427 275 427 275 450.5 244.5 c 128,-1,36
 474 214 474 214 474 169 c 0,37,38
 474 117 474 117 446 77 c 128,-1,39
 418 37 418 37 368 15 c 128,-1,40
 318 -7 318 -7 254 -7 c 0,41,0
 176 -7 176 -7 103.5 20.5 c 128,-1,1
EndSplineSet
Substitution2: "<3,3> Small Caps in Latin lookup 11 subtable" s.sc
EndChar

StartChar: t
Encoding: 116 116 88
Width: 442
Flags: W
LayerCount: 2
Fore
SplineSet
253 186 m 2,0,1
 251 178 251 178 251 165 c 0,2,3
 251 148 251 148 258.5 141.5 c 128,-1,4
 266 135 266 135 282 136 c 0,5,6
 312 136 312 136 357 157 c 1,7,-1
 376 25 l 1,8,9
 345 9 345 9 305.5 0.5 c 128,-1,10
 266 -8 266 -8 228 -8 c 0,11,12
 155 -8 155 -8 112 29.5 c 128,-1,13
 69 67 69 67 69 132 c 0,14,15
 69 153 69 153 73 172 c 2,16,-1
 118 397 l 1,17,-1
 44 397 l 1,18,-1
 67 515 l 1,19,-1
 142 515 l 1,20,-1
 172 665 l 1,21,-1
 349 665 l 1,22,-1
 319 515 l 1,23,-1
 459 515 l 1,24,-1
 436 397 l 1,25,-1
 295 397 l 1,26,-1
 253 186 l 2,0,1
EndSplineSet
Substitution2: "<3,3> Small Caps in Latin lookup 11 subtable" t.sc
EndChar

StartChar: u
Encoding: 117 117 89
Width: 677
Flags: W
LayerCount: 2
Fore
SplineSet
88 41.5 m 128,-1,1
 38 90 38 90 38 169 c 0,2,3
 38 199 38 199 43 221 c 2,4,-1
 107 541 l 1,5,-1
 285 541 l 1,6,-1
 226 247 l 2,7,8
 223 234 223 234 223 221 c 0,9,10
 223 185 223 185 244 164.5 c 128,-1,11
 265 144 265 144 302 144 c 0,12,13
 347 144 347 144 382.5 178 c 128,-1,14
 418 212 418 212 429 266 c 2,15,-1
 484 541 l 1,16,-1
 662 541 l 1,17,-1
 555 0 l 1,18,-1
 377 0 l 1,19,-1
 391 72 l 1,20,21
 326 -7 326 -7 223 -7 c 0,22,0
 138 -7 138 -7 88 41.5 c 128,-1,1
EndSplineSet
Substitution2: "<3,3> Small Caps in Latin lookup 11 subtable" u.sc
EndChar

StartChar: v
Encoding: 118 118 90
Width: 575
Flags: W
LayerCount: 2
Fore
SplineSet
637 541 m 1,0,-1
 326 0 l 1,1,-1
 144 0 l 1,2,-1
 49 541 l 1,3,-1
 230 541 l 1,4,-1
 266 165 l 1,5,-1
 456 541 l 1,6,-1
 637 541 l 1,0,-1
EndSplineSet
Substitution2: "<3,3> Small Caps in Latin lookup 11 subtable" v.sc
EndChar

StartChar: w
Encoding: 119 119 91
Width: 941
Flags: W
LayerCount: 2
Fore
SplineSet
1003 541 m 1,0,-1
 698 0 l 1,1,-1
 521 0 l 1,2,-1
 488 334 l 1,3,-1
 315 0 l 1,4,-1
 138 0 l 1,5,-1
 49 541 l 1,6,-1
 227 541 l 1,7,-1
 261 175 l 1,8,-1
 441 541 l 1,9,-1
 611 541 l 1,10,-1
 644 175 l 1,11,-1
 826 541 l 1,12,-1
 1003 541 l 1,0,-1
EndSplineSet
Substitution2: "<3,3> Small Caps in Latin lookup 11 subtable" w.sc
EndChar

StartChar: x
Encoding: 120 120 92
Width: 611
Flags: W
LayerCount: 2
Fore
SplineSet
273 541 m 1,0,-1
 327 389 l 1,1,-1
 454 541 l 1,2,-1
 653 541 l 1,3,-1
 427 277 l 1,4,-1
 553 0 l 1,5,-1
 352 0 l 1,6,-1
 291 165 l 1,7,-1
 149 0 l 1,8,-1
 -51 0 l 1,9,-1
 190 277 l 1,10,-1
 73 541 l 1,11,-1
 273 541 l 1,0,-1
EndSplineSet
Substitution2: "<3,3> Small Caps in Latin lookup 11 subtable" x.sc
EndChar

StartChar: y
Encoding: 121 121 93
Width: 583
Flags: W
LayerCount: 2
Fore
SplineSet
645 541 m 1,0,-1
 293 -59 l 2,1,2
 250 -134 250 -134 193 -168 c 128,-1,3
 136 -202 136 -202 62 -202 c 0,4,5
 14 -202 14 -202 -23 -187 c 128,-1,6
 -60 -172 -60 -172 -95 -142 c 1,7,-1
 -4 -28 l 1,8,9
 10 -42 10 -42 24.5 -47.5 c 128,-1,10
 39 -53 39 -53 56 -53 c 0,11,12
 101 -53 101 -53 139 -10 c 2,13,-1
 157 13 l 1,14,-1
 41 541 l 1,15,-1
 220 541 l 1,16,-1
 278 185 l 1,17,-1
 465 541 l 1,18,-1
 645 541 l 1,0,-1
EndSplineSet
Substitution2: "<3,3> Small Caps in Latin lookup 11 subtable" y.sc
EndChar

StartChar: z
Encoding: 122 122 94
Width: 556
Flags: W
LayerCount: 2
Fore
SplineSet
573 540 m 1,0,-1
 553 432 l 1,1,-1
 233 136 l 1,2,-1
 502 136 l 1,3,-1
 474 0 l 1,4,-1
 -18 0 l 1,5,-1
 1 108 l 1,6,-1
 322 404 l 1,7,-1
 73 405 l 1,8,-1
 99 541 l 1,9,-1
 573 540 l 1,0,-1
EndSplineSet
Substitution2: "<3,3> Small Caps in Latin lookup 11 subtable" z.sc
EndChar

StartChar: braceleft
Encoding: 123 123 95
Width: 364
Flags: W
LayerCount: 2
Fore
SplineSet
256 347 m 128,-1,1
 231 319 231 319 183 309 c 1,2,3
 217 298 217 298 232.5 280.5 c 128,-1,4
 248 263 248 263 248 231 c 0,5,6
 248 214 248 214 243 186 c 2,7,-1
 220 72 l 2,8,9
 218 56 218 56 218 52 c 0,10,11
 218 27 218 27 235 17.5 c 128,-1,12
 252 8 252 8 294 8 c 1,13,-1
 268 -126 l 1,14,-1
 199 -126 l 2,15,16
 117 -126 117 -126 81.5 -104.5 c 128,-1,17
 46 -83 46 -83 46 -32 c 0,18,19
 46 -7 46 -7 51 16 c 2,20,-1
 87 198 l 2,21,22
 89 212 89 212 89 215 c 0,23,24
 89 228 89 228 82 234 c 128,-1,25
 75 240 75 240 59 240 c 2,26,-1
 20 240 l 1,27,-1
 47 378 l 1,28,-1
 86 378 l 2,29,30
 106 378 106 378 116.5 387.5 c 128,-1,31
 127 397 127 397 132 420 c 2,32,-1
 168 601 l 2,33,34
 179 655 179 655 202 686 c 128,-1,35
 225 717 225 717 266 730.5 c 128,-1,36
 307 744 307 744 373 744 c 2,37,-1
 442 744 l 1,38,-1
 415 610 l 1,39,40
 366 610 366 610 344.5 596 c 128,-1,41
 323 582 323 582 315 546 c 2,42,-1
 292 431 l 2,43,0
 281 375 281 375 256 347 c 128,-1,1
EndSplineSet
Substitution2: "'rtla' Right to Left Alternates lookup 0 subtable" braceright
EndChar

StartChar: bar
Encoding: 124 124 96
Width: 303
Flags: W
LayerCount: 2
Fore
SplineSet
324 802 m 1,0,-1
 141 -109 l 1,1,-1
 9 -109 l 1,2,-1
 191 802 l 1,3,-1
 324 802 l 1,0,-1
EndSplineSet
EndChar

StartChar: braceright
Encoding: 125 125 97
Width: 431
Flags: W
LayerCount: 2
Fore
SplineSet
190 271 m 128,-1,1
 215 299 215 299 263 309 c 1,2,3
 229 320 229 320 213.5 337.5 c 128,-1,4
 198 355 198 355 198 387 c 0,5,6
 198 404 198 404 203 432 c 2,7,-1
 226 546 l 2,8,9
 228 562 228 562 228 566 c 0,10,11
 228 591 228 591 211 600.5 c 128,-1,12
 194 610 194 610 152 610 c 1,13,-1
 178 744 l 1,14,-1
 247 744 l 2,15,16
 329 744 329 744 364.5 722.5 c 128,-1,17
 400 701 400 701 400 650 c 0,18,19
 400 625 400 625 395 602 c 2,20,-1
 359 420 l 2,21,22
 357 406 357 406 357 403 c 0,23,24
 357 390 357 390 364 384 c 128,-1,25
 371 378 371 378 387 378 c 2,26,-1
 426 378 l 1,27,-1
 399 240 l 1,28,-1
 360 240 l 2,29,30
 340 240 340 240 329.5 230.5 c 128,-1,31
 319 221 319 221 314 198 c 2,32,-1
 278 17 l 2,33,34
 267 -37 267 -37 244 -68 c 128,-1,35
 221 -99 221 -99 180 -112.5 c 128,-1,36
 139 -126 139 -126 73 -126 c 2,37,-1
 4 -126 l 1,38,-1
 31 8 l 1,39,40
 80 8 80 8 101.5 22 c 128,-1,41
 123 36 123 36 131 72 c 2,42,-1
 154 187 l 2,43,0
 165 243 165 243 190 271 c 128,-1,1
EndSplineSet
Substitution2: "'rtla' Right to Left Alternates lookup 0 subtable" braceleft
EndChar

StartChar: asciitilde
Encoding: 126 126 98
Width: 511
Flags: W
LayerCount: 2
Fore
SplineSet
241 408.5 m 128,-1,1
 260 400 260 400 281 385 c 0,2,3
 294 376 294 376 302.5 371.5 c 128,-1,4
 311 367 311 367 320 367 c 0,5,6
 336 367 336 367 348.5 378.5 c 128,-1,7
 361 390 361 390 365 412 c 1,8,-1
 484 412 l 1,9,10
 466 323 466 323 429.5 280 c 128,-1,11
 393 237 393 237 335 237 c 0,12,13
 308 237 308 237 289 245.5 c 128,-1,14
 270 254 270 254 249 269 c 0,15,16
 236 278 236 278 227.5 282.5 c 128,-1,17
 219 287 219 287 209 287 c 0,18,19
 178 287 178 287 169 242 c 1,20,-1
 50 242 l 1,21,22
 67 331 67 331 102.5 374 c 128,-1,23
 138 417 138 417 195 417 c 0,24,0
 222 417 222 417 241 408.5 c 128,-1,1
EndSplineSet
EndChar

StartChar: exclamdown
Encoding: 161 161 100
Width: 261
Flags: W
LayerCount: 2
Fore
SplineSet
107.5 396.5 m 128,-1,1
 86 418 86 418 86 453 c 0,2,3
 86 494 86 494 113 521 c 128,-1,4
 140 548 140 548 180 548 c 0,5,6
 215 548 215 548 236 526.5 c 128,-1,7
 257 505 257 505 257 470 c 0,8,9
 257 428 257 428 230.5 401.5 c 128,-1,10
 204 375 204 375 164 375 c 0,11,0
 129 375 129 375 107.5 396.5 c 128,-1,1
-32 -157 m 1,12,-1
 3 22 l 1,13,-1
 89 297 l 1,14,-1
 197 297 l 1,15,-1
 172 22 l 1,16,-1
 137 -157 l 1,17,-1
 -32 -157 l 1,12,-1
EndSplineSet
Substitution2: "<3,3> Small Caps in Latin lookup 11 subtable" exclamdown.sc
EndChar

StartChar: cent
Encoding: 162 162 101
Width: 580
Flags: W
LayerCount: 2
Fore
SplineSet
413 199 m 1,1,-1
 536 123 l 1,2,3
 502 69 502 69 446 36 c 128,-1,4
 390 3 390 3 318 -4 c 1,5,-1
 288 -155 l 1,6,-1
 156 -155 l 1,7,-1
 188 7 l 1,8,9
 111 30 111 30 68 91 c 128,-1,10
 25 152 25 152 25 240 c 0,11,12
 25 323 25 323 59 389 c 128,-1,13
 93 455 93 455 154 496 c 128,-1,14
 215 537 215 537 294 545 c 1,15,-1
 325 701 l 1,16,-1
 457 701 l 1,17,-1
 425 535 l 1,18,19
 472 521 472 521 507.5 491.5 c 128,-1,20
 543 462 543 462 563 419 c 1,21,-1
 427 344 l 1,22,23
 412 371 412 371 386.5 385.5 c 128,-1,24
 361 400 361 400 327 400 c 0,25,26
 274 400 274 400 239 359 c 128,-1,27
 204 318 204 318 204 253 c 0,28,29
 204 201 204 201 230.5 169.5 c 128,-1,30
 257 138 257 138 301 138 c 0,31,0
 375 138 375 138 413 199 c 1,1,-1
EndSplineSet
EndChar

StartChar: sterling
Encoding: 163 163 102
Width: 558
Flags: W
LayerCount: 2
Fore
SplineSet
326 468 m 2,1,-1
 308 377 l 1,2,-1
 474 377 l 1,3,-1
 461 311 l 1,4,-1
 294 311 l 1,5,-1
 260 140 l 1,6,-1
 516 140 l 1,7,-1
 488 0 l 1,8,-1
 -27 0 l 1,9,-1
 1 140 l 1,10,-1
 77 140 l 1,11,-1
 111 311 l 1,12,-1
 35 311 l 1,13,-1
 49 377 l 1,14,-1
 124 377 l 1,15,-1
 143 472 l 2,16,17
 165 585 165 585 240.5 647 c 128,-1,18
 316 709 316 709 431 709 c 0,19,20
 492 709 492 709 543 686.5 c 128,-1,21
 594 664 594 664 627 623 c 1,22,-1
 532 487 l 1,23,24
 480 553 480 553 420 553 c 0,25,0
 344 553 344 553 326 468 c 2,1,-1
EndSplineSet
EndChar

StartChar: currency
Encoding: 164 164 103
Width: 791
Flags: W
LayerCount: 2
Fore
SplineSet
630 193 m 1,1,-1
 732 91 l 1,2,-1
 632 -10 l 1,3,-1
 527 95 l 1,4,5
 471 64 471 64 405 64 c 0,6,7
 340 64 340 64 282 94 c 1,8,-1
 178 -10 l 1,9,-1
 78 91 l 1,10,-1
 179 193 l 1,11,12
 145 255 145 255 145 321 c 0,13,14
 145 389 145 389 177 445 c 1,15,-1
 78 544 l 1,16,-1
 178 645 l 1,17,-1
 277 546 l 1,18,19
 337 579 337 579 405 579 c 256,20,21
 473 579 473 579 533 546 c 1,22,-1
 632 645 l 1,23,-1
 732 544 l 1,24,-1
 633 445 l 1,25,26
 665 389 665 389 665 321 c 256,27,0
 665 253 665 253 630 193 c 1,1,-1
491 239.5 m 128,-1,29
 527 273 527 273 527 321 c 0,30,31
 527 370 527 370 491 404.5 c 128,-1,32
 455 439 455 439 405 439 c 256,33,34
 355 439 355 439 319.5 404.5 c 128,-1,35
 284 370 284 370 284 321 c 0,36,37
 284 273 284 273 319.5 239.5 c 128,-1,38
 355 206 355 206 405 206 c 256,39,28
 455 206 455 206 491 239.5 c 128,-1,29
EndSplineSet
EndChar

StartChar: yen
Encoding: 165 165 104
Width: 669
Flags: W
LayerCount: 2
Fore
SplineSet
775 701 m 1,0,-1
 515 326 l 1,1,-1
 648 326 l 1,2,-1
 635 260 l 1,3,-1
 469 260 l 1,4,-1
 443 223 l 1,5,-1
 441 209 l 1,6,-1
 625 209 l 1,7,-1
 612 143 l 1,8,-1
 430 143 l 1,9,-1
 407 0 l 1,10,-1
 224 0 l 1,11,-1
 247 143 l 1,12,-1
 59 143 l 1,13,-1
 72 209 l 1,14,-1
 258 209 l 1,15,-1
 261 227 l 1,16,-1
 249 260 l 1,17,-1
 82 260 l 1,18,-1
 95 326 l 1,19,-1
 224 326 l 1,20,-1
 85 701 l 1,21,-1
 268 701 l 1,22,-1
 383 402 l 1,23,-1
 592 701 l 1,24,-1
 775 701 l 1,0,-1
EndSplineSet
EndChar

StartChar: brokenbar
Encoding: 166 166 105
Width: 303
Flags: W
LayerCount: 2
Fore
SplineSet
324 802 m 1,0,-1
 256 460 l 1,1,-1
 123 460 l 1,2,-1
 191 802 l 1,3,-1
 324 802 l 1,0,-1
210 234 m 1,4,-1
 141 -109 l 1,5,-1
 9 -109 l 1,6,-1
 78 234 l 1,7,-1
 210 234 l 1,4,-1
EndSplineSet
EndChar

StartChar: section
Encoding: 167 167 106
Width: 557
Flags: W
LayerCount: 2
Fore
SplineSet
88.5 -57 m 128,-1,1
 17 -30 17 -30 -35 18 c 1,2,-1
 37 123 l 1,3,4
 85 82 85 82 136 59 c 128,-1,5
 187 36 187 36 231 36 c 0,6,7
 257 36 257 36 273 46 c 128,-1,8
 289 56 289 56 289 72 c 0,9,10
 289 89 289 89 268.5 102.5 c 128,-1,11
 248 116 248 116 201 136 c 0,12,13
 151 158 151 158 118.5 177 c 128,-1,14
 86 196 86 196 62 225.5 c 128,-1,15
 38 255 38 255 38 296 c 0,16,17
 38 350 38 350 72.5 388 c 128,-1,18
 107 426 107 426 171 443 c 1,19,20
 120 485 120 485 120 532 c 0,21,22
 120 576 120 576 147.5 611.5 c 128,-1,23
 175 647 175 647 223.5 667.5 c 128,-1,24
 272 688 272 688 332 688 c 0,25,26
 398 688 398 688 462.5 666 c 128,-1,27
 527 644 527 644 583 602 c 1,28,-1
 509 499 l 1,29,30
 461 532 461 532 415 550.5 c 128,-1,31
 369 569 369 569 335 569 c 0,32,33
 310 569 310 569 296 560 c 128,-1,34
 282 551 282 551 282 535 c 0,35,36
 282 517 282 517 303.5 503 c 128,-1,37
 325 489 325 489 373 468 c 0,38,39
 424 446 424 446 456.5 427 c 128,-1,40
 489 408 489 408 513 378.5 c 128,-1,41
 537 349 537 349 537 308 c 0,42,43
 537 257 537 257 503 217 c 128,-1,44
 469 177 469 177 410 159 c 1,45,46
 455 121 455 121 455 72 c 0,47,48
 455 28 455 28 426 -7.5 c 128,-1,49
 397 -43 397 -43 347 -63.5 c 128,-1,50
 297 -84 297 -84 236 -84 c 0,51,0
 160 -84 160 -84 88.5 -57 c 128,-1,1
353.5 266 m 128,-1,53
 370 276 370 276 370 294 c 0,54,55
 370 317 370 317 338 333.5 c 128,-1,56
 306 350 306 350 261 350 c 0,57,58
 232 350 232 350 216.5 340 c 128,-1,59
 201 330 201 330 201 311 c 0,60,61
 201 289 201 289 233 272.5 c 128,-1,62
 265 256 265 256 308 256 c 0,63,52
 337 256 337 256 353.5 266 c 128,-1,53
EndSplineSet
EndChar

StartChar: copyright
Encoding: 169 169 108
Width: 736
Flags: W
LayerCount: 2
Fore
SplineSet
555.5 643.5 m 128,-1,1
 633 598 633 598 678 520 c 128,-1,2
 723 442 723 442 723 350 c 0,3,4
 723 259 723 259 678 180.5 c 128,-1,5
 633 102 633 102 555 55.5 c 128,-1,6
 477 9 477 9 383 9 c 0,7,8
 290 9 290 9 212.5 55 c 128,-1,9
 135 101 135 101 90.5 179 c 128,-1,10
 46 257 46 257 46 348 c 256,11,12
 46 439 46 439 91 517.5 c 128,-1,13
 136 596 136 596 213.5 642.5 c 128,-1,14
 291 689 291 689 385 689 c 0,15,0
 478 689 478 689 555.5 643.5 c 128,-1,1
254 571 m 128,-1,17
 195 536 195 536 161 477 c 128,-1,18
 127 418 127 418 127 348 c 256,19,20
 127 278 127 278 161 219.5 c 128,-1,21
 195 161 195 161 253.5 126.5 c 128,-1,22
 312 92 312 92 383 92 c 0,23,24
 455 92 455 92 514 127 c 128,-1,25
 573 162 573 162 607 221 c 128,-1,26
 641 280 641 280 641 350 c 256,27,28
 641 420 641 420 607 478.5 c 128,-1,29
 573 537 573 537 514.5 571.5 c 128,-1,30
 456 606 456 606 385 606 c 0,31,16
 313 606 313 606 254 571 c 128,-1,17
462.5 499 m 128,-1,33
 498 484 498 484 523 458 c 1,34,-1
 474 399 l 1,35,36
 457 419 457 419 435 430.5 c 128,-1,37
 413 442 413 442 392 442 c 0,38,39
 354 442 354 442 328.5 416 c 128,-1,40
 303 390 303 390 303 351 c 0,41,42
 303 311 303 311 328.5 284.5 c 128,-1,43
 354 258 354 258 392 258 c 0,44,45
 412 258 412 258 434 268 c 128,-1,46
 456 278 456 278 474 296 c 1,47,-1
 523 242 l 1,48,49
 497 214 497 214 461 198 c 128,-1,50
 425 182 425 182 388 182 c 0,51,52
 339 182 339 182 300 203.5 c 128,-1,53
 261 225 261 225 238.5 263.5 c 128,-1,54
 216 302 216 302 216 349 c 256,55,56
 216 396 216 396 239 433.5 c 128,-1,57
 262 471 262 471 302 492.5 c 128,-1,58
 342 514 342 514 391 514 c 0,59,32
 427 514 427 514 462.5 499 c 128,-1,33
EndSplineSet
EndChar

StartChar: ordfeminine
Encoding: 170 170 109
Width: 395
Flags: W
LayerCount: 2
Fore
SplineSet
401.5 762.5 m 128,-1,1
 439 738 439 738 439 692 c 0,2,3
 439 676 439 676 437 668 c 2,4,-1
 395 458 l 1,5,-1
 275 458 l 1,6,-1
 283 496 l 1,7,8
 244 453 244 453 186 453 c 0,9,10
 135 453 135 453 105 476.5 c 128,-1,11
 75 500 75 500 75 539 c 0,12,13
 75 549 75 549 78 561 c 0,14,15
 87 606 87 606 124 628 c 128,-1,16
 161 650 161 650 228 651 c 2,17,-1
 313 651 l 1,18,-1
 314 654 l 2,19,20
 315 657 315 657 315 663 c 0,21,22
 315 698 315 698 252 698 c 0,23,24
 211 698 211 698 151 674 c 1,25,-1
 139 754 l 1,26,27
 230 787 230 787 292 787 c 0,28,0
 364 787 364 787 401.5 762.5 c 128,-1,1
295 560 m 1,30,-1
 302 595 l 1,31,-1
 242 595 l 2,32,33
 222 595 222 595 209.5 586.5 c 128,-1,34
 197 578 197 578 194 563 c 0,35,36
 193 560 193 560 193 555 c 0,37,38
 193 543 193 543 202.5 536 c 128,-1,39
 212 529 212 529 228 529 c 0,40,29
 268 529 268 529 295 560 c 1,30,-1
EndSplineSet
EndChar

StartChar: logicalnot
Encoding: 172 172 111
Width: 585
Flags: W
LayerCount: 2
Fore
SplineSet
549 430 m 1,0,-1
 490 136 l 1,1,-1
 363 136 l 1,2,-1
 399 316 l 1,3,-1
 42 316 l 1,4,-1
 64 430 l 1,5,-1
 549 430 l 1,0,-1
EndSplineSet
EndChar

StartChar: registered
Encoding: 174 174 113
Width: 736
Flags: W
LayerCount: 2
Fore
SplineSet
555.5 643.5 m 128,-1,1
 633 598 633 598 678 520 c 128,-1,2
 723 442 723 442 723 350 c 0,3,4
 723 259 723 259 678 180.5 c 128,-1,5
 633 102 633 102 555 55.5 c 128,-1,6
 477 9 477 9 383 9 c 0,7,8
 290 9 290 9 212.5 55 c 128,-1,9
 135 101 135 101 90.5 179 c 128,-1,10
 46 257 46 257 46 348 c 256,11,12
 46 439 46 439 91 517.5 c 128,-1,13
 136 596 136 596 213.5 642.5 c 128,-1,14
 291 689 291 689 385 689 c 0,15,0
 478 689 478 689 555.5 643.5 c 128,-1,1
514 127 m 128,-1,17
 573 162 573 162 607 221 c 128,-1,18
 641 280 641 280 641 350 c 256,19,20
 641 420 641 420 607 478.5 c 128,-1,21
 573 537 573 537 514.5 571.5 c 128,-1,22
 456 606 456 606 385 606 c 0,23,24
 313 606 313 606 254 571 c 128,-1,25
 195 536 195 536 161 477 c 128,-1,26
 127 418 127 418 127 348 c 256,27,28
 127 278 127 278 161 219.5 c 128,-1,29
 195 161 195 161 253.5 126.5 c 128,-1,30
 312 92 312 92 383 92 c 0,31,16
 455 92 455 92 514 127 c 128,-1,17
469 306 m 1,33,-1
 536 202 l 1,34,-1
 443 202 l 1,35,-1
 396 290 l 1,36,-1
 394 290 l 1,37,-1
 337 290 l 1,38,-1
 337 202 l 1,39,-1
 255 202 l 1,40,-1
 255 519 l 1,41,-1
 394 519 l 2,42,43
 457 519 457 519 491.5 490 c 128,-1,44
 526 461 526 461 526 408 c 0,45,32
 526 334 526 334 469 306 c 1,33,-1
337 354 m 1,46,-1
 394 354 l 2,47,48
 420 354 420 354 434.5 367.5 c 128,-1,49
 449 381 449 381 449 405 c 0,50,51
 449 430 449 430 434.5 442.5 c 128,-1,52
 420 455 420 455 394 455 c 2,53,-1
 337 455 l 1,54,-1
 337 354 l 1,46,-1
EndSplineSet
EndChar

StartChar: degree
Encoding: 176 176 115
Width: 382
Flags: W
LayerCount: 2
Fore
SplineSet
375 783 m 128,-1,1
 410 748 410 748 410 699 c 256,2,3
 410 650 410 650 375 615.5 c 128,-1,4
 340 581 340 581 291 581 c 256,5,6
 242 581 242 581 207 615.5 c 128,-1,7
 172 650 172 650 172 699 c 0,8,9
 172 749 172 749 207 783.5 c 128,-1,10
 242 818 242 818 291 818 c 256,11,0
 340 818 340 818 375 783 c 128,-1,1
255 734 m 128,-1,13
 240 719 240 719 240 699 c 256,14,15
 240 679 240 679 255 665 c 128,-1,16
 270 651 270 651 291 651 c 256,17,18
 312 651 312 651 327 665 c 128,-1,19
 342 679 342 679 342 699 c 256,20,21
 342 719 342 719 327 734 c 128,-1,22
 312 749 312 749 291 749 c 256,23,12
 270 749 270 749 255 734 c 128,-1,13
EndSplineSet
EndChar

StartChar: plusminus
Encoding: 177 177 116
Width: 580
Flags: W
LayerCount: 2
Fore
SplineSet
181 187 m 1,0,-1
 214 348 l 1,1,-1
 47 348 l 1,2,-1
 70 457 l 1,3,-1
 237 457 l 1,4,-1
 270 618 l 1,5,-1
 382 618 l 1,6,-1
 349 457 l 1,7,-1
 516 457 l 1,8,-1
 493 348 l 1,9,-1
 326 348 l 1,10,-1
 293 187 l 1,11,-1
 181 187 l 1,0,-1
48 -1 m 1,12,-1
 70 113 l 1,13,-1
 516 113 l 1,14,-1
 494 -1 l 1,15,-1
 48 -1 l 1,12,-1
EndSplineSet
EndChar

StartChar: uni00B5
Encoding: 181 181 120
Width: 697
Flags: W
LayerCount: 2
Fore
SplineSet
682 541 m 1,0,-1
 575 0 l 1,1,-1
 397 0 l 1,2,-1
 411 72 l 1,3,4
 345 -8 345 -8 244 -8 c 0,5,6
 227 -8 227 -8 197 -4 c 1,7,-1
 159 -194 l 1,8,-1
 -19 -194 l 1,9,-1
 60 204 l 1,10,-1
 63 221 l 1,11,-1
 127 541 l 1,12,-1
 305 541 l 1,13,-1
 247 247 l 2,14,15
 244 232 244 232 244 220 c 0,16,17
 244 185 244 185 265 164.5 c 128,-1,18
 286 144 286 144 323 144 c 0,19,20
 368 144 368 144 403 178 c 128,-1,21
 438 212 438 212 449 265 c 2,22,-1
 504 541 l 1,23,-1
 682 541 l 1,0,-1
EndSplineSet
EndChar

StartChar: paragraph
Encoding: 182 182 121
Width: 653
Flags: W
LayerCount: 2
Fore
SplineSet
510 -107 m 1,0,-1
 377 -107 l 1,1,-1
 527 640 l 1,2,-1
 430 640 l 1,3,-1
 280 -107 l 1,4,-1
 148 -107 l 1,5,-1
 234 320 l 1,6,-1
 208 320 l 2,7,8
 118 320 118 320 79 366 c 128,-1,9
 40 412 40 412 40 479 c 0,10,11
 40 502 40 502 45 527 c 0,12,13
 57 585 57 585 92 633.5 c 128,-1,14
 127 682 127 682 188 712 c 128,-1,15
 249 742 249 742 333 742 c 2,16,-1
 680 742 l 1,17,-1
 510 -107 l 1,0,-1
EndSplineSet
EndChar

StartChar: ordmasculine
Encoding: 186 186 125
Width: 418
Flags: W
LayerCount: 2
Fore
SplineSet
420.5 745 m 128,-1,1
 467 704 467 704 467 635 c 0,2,3
 467 582 467 582 441 540.5 c 128,-1,4
 415 499 415 499 368.5 476.5 c 128,-1,5
 322 454 322 454 262 454 c 0,6,7
 184 454 184 454 137.5 495 c 128,-1,8
 91 536 91 536 91 604 c 0,9,10
 91 658 91 658 117 699.5 c 128,-1,11
 143 741 143 741 189 763.5 c 128,-1,12
 235 786 235 786 295 786 c 0,13,0
 374 786 374 786 420.5 745 c 128,-1,1
233.5 669 m 128,-1,15
 213 646 213 646 213 609 c 0,16,17
 213 580 213 580 229 563 c 128,-1,18
 245 546 245 546 271 546 c 0,19,20
 303 546 303 546 323 568.5 c 128,-1,21
 343 591 343 591 343 627 c 0,22,23
 343 656 343 656 327.5 674 c 128,-1,24
 312 692 312 692 286 692 c 0,25,14
 254 692 254 692 233.5 669 c 128,-1,15
EndSplineSet
EndChar

StartChar: questiondown
Encoding: 191 191 130
Width: 473
Flags: W
LayerCount: 2
Fore
SplineSet
176.5 396.5 m 128,-1,1
 155 418 155 418 155 453 c 0,2,3
 155 494 155 494 182 521 c 128,-1,4
 209 548 209 548 249 548 c 0,5,6
 284 548 284 548 305.5 526.5 c 128,-1,7
 327 505 327 505 327 470 c 0,8,9
 327 428 327 428 300.5 401.5 c 128,-1,10
 274 375 274 375 234 375 c 0,11,0
 198 375 198 375 176.5 396.5 c 128,-1,1
347.5 -103 m 128,-1,13
 280 -164 280 -164 173 -164 c 0,14,15
 79 -164 79 -164 26.5 -121.5 c 128,-1,16
 -26 -79 -26 -79 -26 -4 c 0,17,18
 -26 37 -26 37 -11.5 69.5 c 128,-1,19
 3 102 3 102 23.5 125 c 128,-1,20
 44 148 44 148 78 179 c 0,21,22
 118 216 118 216 138 241.5 c 128,-1,23
 158 267 158 267 162 300 c 1,24,-1
 295 300 l 1,25,26
 290 260 290 260 276 230 c 128,-1,27
 262 200 262 200 245.5 180 c 128,-1,28
 229 160 229 160 202 133 c 0,29,30
 171 103 171 103 156.5 81.5 c 128,-1,31
 142 60 142 60 142 31 c 0,32,33
 142 -21 142 -21 203 -21 c 0,34,35
 279 -21 279 -21 292 68 c 1,36,-1
 429 67 l 1,37,12
 415 -42 415 -42 347.5 -103 c 128,-1,13
EndSplineSet
Substitution2: "<3,3> Small Caps in Latin lookup 11 subtable" questiondown.sc
EndChar

StartChar: AE
Encoding: 198 198 137
Width: 1108
Flags: W
LayerCount: 2
Fore
SplineSet
1111 555 m 1,0,-1
 741 555 l 1,1,-1
 714 424 l 1,2,-1
 1048 424 l 1,3,-1
 1020 279 l 1,4,-1
 685 279 l 1,5,-1
 658 146 l 1,6,-1
 1038 146 l 1,7,-1
 1009 0 l 1,8,-1
 446 0 l 1,9,-1
 475 144 l 1,10,-1
 238 144 l 1,11,-1
 133 0 l 1,12,-1
 -59 0 l 1,13,-1
 477 701 l 1,14,-1
 1139 701 l 1,15,-1
 1111 555 l 1,0,-1
336 278 m 1,16,-1
 502 278 l 1,17,-1
 557 558 l 1,18,-1
 540 558 l 1,19,-1
 336 278 l 1,16,-1
EndSplineSet
EndChar

StartChar: Ccedilla
Encoding: 199 199 138
Width: 718
Flags: W
LayerCount: 2
Fore
SplineSet
551 30.5 m 128,-1,1
 479 -4 479 -4 407 -11 c 1,2,-1
 384 -52 l 1,3,4
 419 -61 419 -61 435.5 -80 c 128,-1,5
 452 -99 452 -99 452 -124 c 0,6,7
 452 -178 452 -178 408.5 -206 c 128,-1,8
 365 -234 365 -234 303 -234 c 0,9,10
 247 -234 247 -234 195 -213 c 1,11,-1
 239 -129 l 1,12,13
 264 -139 264 -139 289 -139 c 0,14,15
 309 -139 309 -139 322.5 -132 c 128,-1,16
 336 -125 336 -125 336 -114 c 0,17,18
 336 -104 336 -104 321.5 -97.5 c 128,-1,19
 307 -91 307 -91 285 -91 c 2,20,-1
 261 -91 l 1,21,-1
 305 -7 l 1,22,23
 226 8 226 8 166.5 53.5 c 128,-1,24
 107 99 107 99 74.5 167.5 c 128,-1,25
 42 236 42 236 42 319 c 0,26,27
 42 429 42 429 97 519 c 128,-1,28
 152 609 152 609 247 660.5 c 128,-1,29
 342 712 342 712 455 712 c 0,30,31
 533 712 533 712 606 679.5 c 128,-1,32
 679 647 679 647 726 591 c 1,33,-1
 606 463 l 1,34,35
 576 506 576 506 532 531.5 c 128,-1,36
 488 557 488 557 442 557 c 0,37,38
 385 557 385 557 336 527.5 c 128,-1,39
 287 498 287 498 258.5 447 c 128,-1,40
 230 396 230 396 230 335 c 0,41,42
 230 283 230 283 252 241 c 128,-1,43
 274 199 274 199 313 175 c 128,-1,44
 352 151 352 151 401 151 c 0,45,46
 444 151 444 151 493.5 173 c 128,-1,47
 543 195 543 195 584 233 c 1,48,-1
 679 118 l 1,49,0
 623 65 623 65 551 30.5 c 128,-1,1
EndSplineSet
EndChar

StartChar: multiply
Encoding: 215 215 154
Width: 558
Flags: W
LayerCount: 2
Fore
SplineSet
488 444 m 1,0,-1
 371 327 l 1,1,-1
 488 210 l 1,2,-1
 408 129 l 1,3,-1
 290 247 l 1,4,-1
 172 129 l 1,5,-1
 93 210 l 1,6,-1
 210 327 l 1,7,-1
 93 444 l 1,8,-1
 172 525 l 1,9,-1
 290 407 l 1,10,-1
 408 525 l 1,11,-1
 488 444 l 1,0,-1
EndSplineSet
EndChar

StartChar: Oslash
Encoding: 216 216 155
Width: 811
Flags: W
LayerCount: 2
Fore
SplineSet
774 525 m 128,-1,1
 804 460 804 460 804 383 c 0,2,3
 804 274 804 274 748 183 c 128,-1,4
 692 92 692 92 596 39.5 c 128,-1,5
 500 -13 500 -13 386 -13 c 0,6,7
 298 -13 298 -13 225 21 c 1,8,-1
 167 -55 l 1,9,-1
 52 -55 l 1,10,-1
 148 72 l 1,11,12
 97 117 97 117 69.5 180.5 c 128,-1,13
 42 244 42 244 42 319 c 0,14,15
 42 429 42 429 98 519 c 128,-1,16
 154 609 154 609 249.5 660.5 c 128,-1,17
 345 712 345 712 459 712 c 0,18,19
 541 712 541 712 610 683 c 1,20,-1
 665 755 l 1,21,-1
 781 755 l 1,22,-1
 690 635 l 1,23,0
 744 590 744 590 774 525 c 128,-1,1
262 222 m 1,25,-1
 506 546 l 1,26,27
 478 557 478 557 446 557 c 0,28,29
 390 557 390 557 340 527 c 128,-1,30
 290 497 290 497 260 445 c 128,-1,31
 230 393 230 393 230 332 c 0,32,24
 230 272 230 272 262 222 c 1,25,-1
508 173.5 m 128,-1,34
 557 204 557 204 586 256 c 128,-1,35
 615 308 615 308 615 370 c 0,36,37
 615 439 615 439 579 488 c 1,38,-1
 330 160 l 1,39,40
 364 143 364 143 404 143 c 0,41,33
 459 143 459 143 508 173.5 c 128,-1,34
EndSplineSet
EndChar

StartChar: Thorn
Encoding: 222 222 161
Width: 703
Flags: W
LayerCount: 2
Fore
SplineSet
625.5 556 m 128,-1,1
 692 503 692 503 692 410 c 0,2,3
 692 322 692 322 648 254 c 128,-1,4
 604 186 604 186 524 148.5 c 128,-1,5
 444 111 444 111 339 111 c 2,6,-1
 219 111 l 1,7,-1
 197 0 l 1,8,-1
 14 0 l 1,9,-1
 154 701 l 1,10,-1
 337 701 l 1,11,-1
 319 609 l 1,12,-1
 439 609 l 2,13,0
 559 609 559 609 625.5 556 c 128,-1,1
463 288.5 m 128,-1,15
 501 324 501 324 501 384 c 0,16,17
 501 423 501 423 476 445 c 128,-1,18
 451 467 451 467 403 467 c 2,19,-1
 290 467 l 1,20,-1
 248 253 l 1,21,-1
 360 253 l 2,22,14
 425 253 425 253 463 288.5 c 128,-1,15
EndSplineSet
EndChar

StartChar: germandbls
Encoding: 223 223 162
Width: 667
Flags: W
LayerCount: 2
Fore
SplineSet
536.5 727.5 m 128,-1,1
 590 705 590 705 619.5 665 c 128,-1,2
 649 625 649 625 649 573 c 0,3,4
 649 516 649 516 613 464.5 c 128,-1,5
 577 413 577 413 517 383 c 1,6,7
 566 368 566 368 595 328 c 128,-1,8
 624 288 624 288 624 235 c 0,9,10
 624 167 624 167 582 113.5 c 128,-1,11
 540 60 540 60 466 30 c 128,-1,12
 392 0 392 0 298 0 c 2,13,-1
 249 0 l 1,14,-1
 275 128 l 1,15,-1
 314 128 l 2,16,17
 377 128 377 128 413.5 155.5 c 128,-1,18
 450 183 450 183 450 231 c 0,19,20
 450 265 450 265 421 283.5 c 128,-1,21
 392 302 392 302 338 302 c 2,22,-1
 320 302 l 1,23,-1
 344 429 l 1,24,25
 404 429 404 429 437.5 460 c 128,-1,26
 471 491 471 491 471 546 c 0,27,28
 471 579 471 579 452 597 c 128,-1,29
 433 615 433 615 399 615 c 0,30,31
 353 615 353 615 322 586.5 c 128,-1,32
 291 558 291 558 281 506 c 2,33,-1
 180 0 l 1,34,-1
 2 0 l 1,35,-1
 100 492 l 2,36,37
 124 613 124 613 208 681.5 c 128,-1,38
 292 750 292 750 414 750 c 0,39,0
 483 750 483 750 536.5 727.5 c 128,-1,1
EndSplineSet
Substitution2: "<3,3> Small Caps in Latin lookup 11 subtable" germandbls.sc
EndChar

StartChar: ae
Encoding: 230 230 169
Width: 958
Flags: W
LayerCount: 2
Fore
SplineSet
57.5 34 m 128,-1,1
 7 77 7 77 7 147 c 0,2,3
 7 230 7 230 63.5 274.5 c 128,-1,4
 120 319 120 319 227 319 c 2,5,-1
 371 319 l 1,6,-1
 373 341 l 2,7,8
 374 376 374 376 350.5 394 c 128,-1,9
 327 412 327 412 280 412 c 0,10,11
 243 412 243 412 196.5 400.5 c 128,-1,12
 150 389 150 389 103 368 c 1,13,-1
 67 491 l 1,14,15
 134 519 134 519 200 533.5 c 128,-1,16
 266 548 266 548 323 548 c 0,17,18
 383 548 383 548 427.5 532.5 c 128,-1,19
 472 517 472 517 499 489 c 1,20,21
 570 547 570 547 672 547 c 0,22,23
 752 547 752 547 811 515 c 128,-1,24
 870 483 870 483 901 425 c 128,-1,25
 932 367 932 367 932 289 c 0,26,27
 932 259 932 259 928 232 c 1,28,-1
 545 232 l 1,29,-1
 544 218 l 2,30,31
 542 178 542 178 575 153 c 128,-1,32
 608 128 608 128 655 128 c 0,33,34
 691 128 691 128 726 143 c 128,-1,35
 761 158 761 158 790 185 c 1,36,-1
 879 87 l 1,37,38
 786 -6 786 -6 637 -6 c 0,39,40
 561 -6 561 -6 505.5 23.5 c 128,-1,41
 450 53 450 53 422 105 c 1,42,43
 349 -9 349 -9 194 -9 c 0,44,0
 108 -9 108 -9 57.5 34 c 128,-1,1
759 319 m 1,45,46
 763 368 763 368 739 396.5 c 128,-1,47
 715 425 715 425 672 425 c 0,48,49
 628 425 628 425 594.5 395.5 c 128,-1,50
 561 366 561 366 550 319 c 1,51,-1
 759 319 l 1,45,46
305 126 m 128,-1,53
 336 143 336 143 358 175 c 1,54,-1
 364 232 l 1,55,-1
 261 232 l 2,56,57
 222 234 222 234 198 215 c 128,-1,58
 174 196 174 196 174 162 c 0,59,60
 174 137 174 137 190.5 123 c 128,-1,61
 207 109 207 109 238 109 c 0,62,52
 274 109 274 109 305 126 c 128,-1,53
EndSplineSet
Substitution2: "<3,3> Small Caps in Latin lookup 11 subtable" ae.sc
EndChar

StartChar: ccedilla
Encoding: 231 231 170
Width: 580
Flags: W
LayerCount: 2
Fore
SplineSet
413 199 m 1,1,-1
 536 123 l 1,2,3
 501 66 501 66 441.5 33 c 128,-1,4
 382 0 382 0 305 -5 c 1,5,-1
 278 -52 l 1,6,7
 313 -61 313 -61 329.5 -80 c 128,-1,8
 346 -99 346 -99 346 -124 c 0,9,10
 346 -178 346 -178 302.5 -206 c 128,-1,11
 259 -234 259 -234 197 -234 c 0,12,13
 141 -234 141 -234 89 -213 c 1,14,-1
 133 -129 l 1,15,16
 158 -139 158 -139 183 -139 c 0,17,18
 203 -139 203 -139 216.5 -132 c 128,-1,19
 230 -125 230 -125 230 -114 c 0,20,21
 230 -104 230 -104 215.5 -97.5 c 128,-1,22
 201 -91 201 -91 179 -91 c 2,23,-1
 155 -91 l 1,24,-1
 203 2 l 1,25,26
 120 22 120 22 72.5 85 c 128,-1,27
 25 148 25 148 25 240 c 0,28,29
 25 330 25 330 64.5 399.5 c 128,-1,30
 104 469 104 469 174 508 c 128,-1,31
 244 547 244 547 334 547 c 0,32,33
 415 547 415 547 474.5 513.5 c 128,-1,34
 534 480 534 480 563 419 c 1,35,-1
 427 344 l 1,36,37
 412 371 412 371 386.5 385.5 c 128,-1,38
 361 400 361 400 327 400 c 0,39,40
 274 400 274 400 239 359 c 128,-1,41
 204 318 204 318 204 253 c 0,42,43
 204 201 204 201 230.5 169.5 c 128,-1,44
 257 138 257 138 301 138 c 0,45,0
 375 138 375 138 413 199 c 1,1,-1
EndSplineSet
Substitution2: "<3,3> Small Caps in Latin lookup 11 subtable" ccedilla.sc
EndChar

StartChar: eth
Encoding: 240 240 179
Width: 608
Flags: W
LayerCount: 2
Fore
SplineSet
471 616 m 1,0,1
 528 553 528 553 558 479 c 128,-1,2
 588 405 588 405 588 325 c 0,3,4
 588 228 588 228 548 153 c 128,-1,5
 508 78 508 78 435 36 c 128,-1,6
 362 -6 362 -6 267 -6 c 0,7,8
 150 -6 150 -6 82 51 c 128,-1,9
 14 108 14 108 14 205 c 0,10,11
 14 275 14 275 44.5 330.5 c 128,-1,12
 75 386 75 386 129.5 417 c 128,-1,13
 184 448 184 448 255 448 c 0,14,15
 307 448 307 448 353 430.5 c 128,-1,16
 399 413 399 413 422 386 c 1,17,18
 407 472 407 472 328 556 c 1,19,-1
 149 481 l 1,20,-1
 122 547 l 1,21,-1
 270 610 l 1,22,23
 221 650 221 650 157 683 c 1,24,-1
 282 750 l 1,25,26
 355 717 355 717 413 670 c 1,27,-1
 574 738 l 1,28,-1
 601 670 l 1,29,-1
 471 616 l 1,0,1
357 173.5 m 128,-1,31
 390 205 390 205 390 249 c 0,32,33
 390 284 390 284 366.5 305 c 128,-1,34
 343 326 343 326 300 326 c 0,35,36
 250 326 250 326 217 294.5 c 128,-1,37
 184 263 184 263 184 217 c 0,38,39
 184 182 184 182 208 162 c 128,-1,40
 232 142 232 142 272 142 c 0,41,30
 324 142 324 142 357 173.5 c 128,-1,31
EndSplineSet
Substitution2: "<3,3> Small Caps in Latin lookup 11 subtable" eth.sc
EndChar

StartChar: divide
Encoding: 247 247 186
Width: 511
Flags: W
LayerCount: 2
Fore
SplineSet
364 571 m 128,-1,1
 382 553 382 553 382 523 c 0,2,3
 382 484 382 484 353.5 456.5 c 128,-1,4
 325 429 325 429 285 429 c 0,5,6
 255 429 255 429 237.5 447 c 128,-1,7
 220 465 220 465 220 495 c 0,8,9
 220 535 220 535 248 562 c 128,-1,10
 276 589 276 589 316 589 c 0,11,0
 346 589 346 589 364 571 c 128,-1,1
501 384 m 1,12,-1
 478 270 l 1,13,-1
 32 270 l 1,14,-1
 55 384 l 1,15,-1
 501 384 l 1,12,-1
293 213 m 128,-1,17
 311 195 311 195 311 165 c 0,18,19
 311 126 311 126 282.5 98.5 c 128,-1,20
 254 71 254 71 214 71 c 0,21,22
 184 71 184 71 166.5 89 c 128,-1,23
 149 107 149 107 149 137 c 0,24,25
 149 177 149 177 177 204 c 128,-1,26
 205 231 205 231 245 231 c 0,27,16
 275 231 275 231 293 213 c 128,-1,17
EndSplineSet
EndChar

StartChar: oslash
Encoding: 248 248 187
Width: 644
Flags: W
LayerCount: 2
Fore
SplineSet
595.5 413 m 128,-1,1
 620 362 620 362 620 298 c 0,2,3
 620 209 620 209 578.5 140 c 128,-1,4
 537 71 537 71 463 32.5 c 128,-1,5
 389 -6 389 -6 295 -6 c 0,6,7
 235 -6 235 -6 186 11 c 1,8,-1
 118 -86 l 1,9,-1
 32 -86 l 1,10,-1
 122 43 l 1,11,12
 75 75 75 75 50 126.5 c 128,-1,13
 25 178 25 178 25 244 c 0,14,15
 25 333 25 333 66.5 402 c 128,-1,16
 108 471 108 471 181.5 509 c 128,-1,17
 255 547 255 547 350 547 c 0,18,19
 413 547 413 547 462 529 c 1,20,-1
 530 627 l 1,21,-1
 616 627 l 1,22,-1
 525 497 l 1,23,0
 571 464 571 464 595.5 413 c 128,-1,1
213 173 m 1,25,-1
 378 410 l 1,26,27
 357 417 357 417 337 417 c 0,28,29
 296 417 296 417 263.5 395.5 c 128,-1,30
 231 374 231 374 212.5 336.5 c 128,-1,31
 194 299 194 299 194 251 c 0,32,24
 194 206 194 206 213 173 c 1,25,-1
380.5 141.5 m 128,-1,34
 413 163 413 163 431.5 200.5 c 128,-1,35
 450 238 450 238 450 286 c 0,36,37
 450 332 450 332 432 363 c 1,38,-1
 267 127 l 1,39,40
 284 120 284 120 307 120 c 0,41,33
 348 120 348 120 380.5 141.5 c 128,-1,34
EndSplineSet
Substitution2: "<3,3> Small Caps in Latin lookup 11 subtable" oslash.sc
EndChar

StartChar: thorn
Encoding: 254 254 193
Width: 691
Flags: W
LayerCount: 2
Fore
SplineSet
567 517 m 128,-1,1
 615 487 615 487 641.5 433.5 c 128,-1,2
 668 380 668 380 668 310 c 0,3,4
 668 222 668 222 630 149.5 c 128,-1,5
 592 77 592 77 526.5 35 c 128,-1,6
 461 -7 461 -7 382 -7 c 0,7,8
 322 -7 322 -7 279.5 17.5 c 128,-1,9
 237 42 237 42 215 89 c 1,10,-1
 158 -194 l 1,11,-1
 -20 -194 l 1,12,-1
 167 742 l 1,13,-1
 345 742 l 1,14,-1
 291 477 l 1,15,16
 325 511 325 511 368 529 c 128,-1,17
 411 547 411 547 458 547 c 0,18,0
 519 547 519 547 567 517 c 128,-1,1
319.5 389.5 m 128,-1,20
 288 368 288 368 269.5 332 c 128,-1,21
 251 296 251 296 251 253 c 0,22,23
 251 203 251 203 278.5 172.5 c 128,-1,24
 306 142 306 142 352 142 c 0,25,26
 389 142 389 142 420 163 c 128,-1,27
 451 184 451 184 469.5 220 c 128,-1,28
 488 256 488 256 488 299 c 0,29,30
 488 351 488 351 461 381 c 128,-1,31
 434 411 434 411 388 411 c 0,32,19
 351 411 351 411 319.5 389.5 c 128,-1,20
EndSplineSet
Substitution2: "<3,3> Small Caps in Latin lookup 11 subtable" thorn.sc
EndChar

StartChar: Aogonek
Encoding: 260 260 199
Width: 773
Flags: W
LayerCount: 2
Fore
SplineSet
603.5 -55.5 m 128,-1,1
 580 -80 580 -80 580 -104 c 0,2,3
 580 -124 580 -124 598 -124 c 0,4,5
 612 -124 612 -124 628 -116 c 1,6,-1
 638 -211 l 1,7,8
 582 -233 582 -233 536 -233 c 0,9,10
 491 -233 491 -233 467 -210 c 128,-1,11
 443 -187 443 -187 443 -148 c 0,12,13
 443 -71 443 -71 528 0 c 1,14,-1
 501 124 l 1,15,-1
 197 124 l 1,16,-1
 128 0 l 1,17,-1
 -59 0 l 1,18,-1
 358 701 l 1,19,-1
 546 701 l 1,20,-1
 724 0 l 1,21,-1
 676 0 l 1,22,0
 627 -31 627 -31 603.5 -55.5 c 128,-1,1
275 264 m 1,23,-1
 471 264 l 1,24,-1
 416 518 l 1,25,-1
 275 264 l 1,23,-1
EndSplineSet
EndChar

StartChar: aogonek
Encoding: 261 261 200
Width: 686
Flags: W
LayerCount: 2
Fore
SplineSet
671 541 m 1,0,-1
 564 0 l 1,1,-1
 531 0 l 1,2,3
 482 -31 482 -31 458.5 -55.5 c 128,-1,4
 435 -80 435 -80 435 -104 c 0,5,6
 435 -124 435 -124 453 -124 c 0,7,8
 467 -124 467 -124 483 -116 c 1,9,-1
 493 -211 l 1,10,11
 437 -233 437 -233 391 -233 c 0,12,13
 346 -233 346 -233 322 -210 c 128,-1,14
 298 -187 298 -187 298 -148 c 0,15,16
 298 -69 298 -69 387 3 c 1,17,-1
 399 64 l 1,18,19
 328 -7 328 -7 233 -7 c 0,20,21
 172 -7 172 -7 124 23 c 128,-1,22
 76 53 76 53 49.5 107 c 128,-1,23
 23 161 23 161 23 231 c 0,24,25
 23 319 23 319 60.5 391 c 128,-1,26
 98 463 98 463 163.5 505 c 128,-1,27
 229 547 229 547 308 547 c 0,28,29
 430 547 430 547 476 451 c 1,30,-1
 494 541 l 1,31,-1
 671 541 l 1,0,-1
371 151 m 128,-1,33
 403 172 403 172 421.5 208 c 128,-1,34
 440 244 440 244 440 287 c 0,35,36
 440 338 440 338 412.5 368.5 c 128,-1,37
 385 399 385 399 339 399 c 0,38,39
 302 399 302 399 270.5 377.5 c 128,-1,40
 239 356 239 356 220.5 320 c 128,-1,41
 202 284 202 284 202 242 c 0,42,43
 202 191 202 191 229.5 160.5 c 128,-1,44
 257 130 257 130 302 130 c 0,45,32
 339 130 339 130 371 151 c 128,-1,33
EndSplineSet
Substitution2: "<3,3> Small Caps in Latin lookup 11 subtable" aogonek.sc
EndChar

StartChar: Dcroat
Encoding: 272 272 211
Width: 768
Flags: W
LayerCount: 2
Fore
SplineSet
611.5 664 m 128,-1,1
 685 627 685 627 724.5 560 c 128,-1,2
 764 493 764 493 764 405 c 0,3,4
 764 288 764 288 707 195.5 c 128,-1,5
 650 103 650 103 550 51.5 c 128,-1,6
 450 0 450 0 327 0 c 2,7,-1
 15 0 l 1,8,-1
 76 308 l 1,9,-1
 6 308 l 1,10,-1
 22 393 l 1,11,-1
 93 393 l 1,12,-1
 154 701 l 1,13,-1
 440 701 l 2,14,0
 538 701 538 701 611.5 664 c 128,-1,1
531 506 m 128,-1,16
 487 552 487 552 414 552 c 2,17,-1
 308 552 l 1,18,-1
 276 393 l 1,19,-1
 418 393 l 1,20,-1
 402 308 l 1,21,-1
 259 308 l 1,22,-1
 227 148 l 1,23,-1
 360 148 l 2,24,25
 419 148 419 148 468.5 178.5 c 128,-1,26
 518 209 518 209 546.5 263 c 128,-1,27
 575 317 575 317 575 385 c 0,28,15
 575 460 575 460 531 506 c 128,-1,16
EndSplineSet
EndChar

StartChar: dcroat
Encoding: 273 273 212
Width: 680
Flags: W
LayerCount: 2
Fore
SplineSet
744 576 m 1,0,-1
 679 576 l 1,1,-1
 565 0 l 1,2,-1
 388 0 l 1,3,-1
 400 57 l 1,4,5
 366 26 366 26 323.5 9.5 c 128,-1,6
 281 -7 281 -7 235 -7 c 0,7,8
 172 -7 172 -7 123.5 21.5 c 128,-1,9
 75 50 75 50 48 101.5 c 128,-1,10
 21 153 21 153 21 220 c 0,11,12
 21 302 21 302 58.5 369 c 128,-1,13
 96 436 96 436 160.5 475 c 128,-1,14
 225 514 225 514 303 514 c 0,15,16
 363 514 363 514 406 492.5 c 128,-1,17
 449 471 449 471 472 429 c 1,18,-1
 502 576 l 1,19,-1
 328 576 l 1,20,-1
 345 663 l 1,21,-1
 519 663 l 1,22,-1
 535 742 l 1,23,-1
 712 742 l 1,24,-1
 696 663 l 1,25,-1
 761 663 l 1,26,-1
 744 576 l 1,0,-1
370 148.5 m 128,-1,28
 401 167 401 167 419.5 198.5 c 128,-1,29
 438 230 438 230 438 267 c 0,30,31
 438 312 438 312 410 339 c 128,-1,32
 382 366 382 366 336 366 c 0,33,34
 299 366 299 366 268 347.5 c 128,-1,35
 237 329 237 329 219 297.5 c 128,-1,36
 201 266 201 266 201 229 c 0,37,38
 201 183 201 183 228 156.5 c 128,-1,39
 255 130 255 130 302 130 c 0,40,27
 339 130 339 130 370 148.5 c 128,-1,28
EndSplineSet
Substitution2: "<3,3> Small Caps in Latin lookup 11 subtable" dcroat.sc
EndChar

StartChar: Eogonek
Encoding: 280 280 219
Width: 675
Flags: W
LayerCount: 2
Fore
SplineSet
308 555 m 1,0,-1
 281 424 l 1,1,-1
 616 424 l 1,2,-1
 587 279 l 1,3,-1
 252 279 l 1,4,-1
 225 146 l 1,5,-1
 606 146 l 1,6,-1
 577 0 l 1,7,8
 528 -31 528 -31 504.5 -55.5 c 128,-1,9
 481 -80 481 -80 481 -104 c 0,10,11
 481 -124 481 -124 499 -124 c 0,12,13
 513 -124 513 -124 529 -116 c 1,14,-1
 539 -211 l 1,15,16
 483 -233 483 -233 437 -233 c 0,17,18
 392 -233 392 -233 368 -210 c 128,-1,19
 344 -187 344 -187 344 -148 c 0,20,21
 344 -72 344 -72 429 0 c 1,22,-1
 14 0 l 1,23,-1
 154 701 l 1,24,-1
 707 701 l 1,25,-1
 678 555 l 1,26,-1
 308 555 l 1,0,-1
EndSplineSet
EndChar

StartChar: eogonek
Encoding: 281 281 220
Width: 615
Flags: W
LayerCount: 2
Fore
SplineSet
469.5 516 m 128,-1,1
 529 486 529 486 561 431.5 c 128,-1,2
 593 377 593 377 593 304 c 0,3,4
 593 270 593 270 583 223 c 1,5,-1
 199 223 l 1,6,7
 204 177 204 177 234 152 c 128,-1,8
 264 127 264 127 315 127 c 0,9,10
 382 127 382 127 439 172 c 1,11,-1
 528 75 l 1,12,13
 512 60 512 60 495 48 c 0,14,15
 448 9 448 9 418.5 -32.5 c 128,-1,16
 389 -74 389 -74 389 -103 c 0,17,18
 389 -124 389 -124 407 -124 c 0,19,20
 421 -124 421 -124 437 -116 c 1,21,-1
 447 -211 l 1,22,23
 391 -233 391 -233 347 -233 c 0,24,25
 304 -233 304 -233 278 -211.5 c 128,-1,26
 252 -190 252 -190 252 -148 c 0,27,28
 252 -110 252 -110 270 -76 c 128,-1,29
 288 -42 288 -42 328 -6 c 1,30,31
 321 -7 321 -7 308 -7 c 0,32,33
 222 -7 222 -7 158 23 c 128,-1,34
 94 53 94 53 59 109 c 128,-1,35
 24 165 24 165 24 239 c 0,36,37
 24 326 24 326 63.5 396 c 128,-1,38
 103 466 103 466 173 506 c 128,-1,39
 243 546 243 546 330 546 c 0,40,0
 410 546 410 546 469.5 516 c 128,-1,1
425 337 m 0,42,43
 425 375 425 375 402 397.5 c 128,-1,44
 379 420 379 420 340 420 c 0,45,46
 298 420 298 420 264 392 c 128,-1,47
 230 364 230 364 212 318 c 1,48,-1
 424 318 l 1,49,41
 425 324 425 324 425 337 c 0,42,43
EndSplineSet
Substitution2: "<3,3> Small Caps in Latin lookup 11 subtable" eogonek.sc
EndChar

StartChar: Hbar
Encoding: 294 294 233
Width: 868
Flags: W
LayerCount: 2
Fore
SplineSet
909 602 m 1,0,-1
 892 517 l 1,1,-1
 808 517 l 1,2,-1
 705 0 l 1,3,-1
 521 0 l 1,4,-1
 575 269 l 1,5,-1
 292 269 l 1,6,-1
 238 0 l 1,7,-1
 55 0 l 1,8,-1
 158 517 l 1,9,-1
 74 517 l 1,10,-1
 91 603 l 1,11,-1
 175 603 l 1,12,-1
 195 701 l 1,13,-1
 378 701 l 1,14,-1
 358 603 l 1,15,-1
 641 602 l 1,16,-1
 661 701 l 1,17,-1
 845 701 l 1,18,-1
 825 602 l 1,19,-1
 909 602 l 1,0,-1
604 415 m 1,20,-1
 624 517 l 1,21,-1
 341 517 l 1,22,-1
 321 415 l 1,23,-1
 604 415 l 1,20,-1
EndSplineSet
EndChar

StartChar: hbar
Encoding: 295 295 234
Width: 678
Flags: W
LayerCount: 2
Fore
SplineSet
589 468.5 m 128,-1,1
 640 422 640 422 640 346 c 0,2,3
 640 328 640 328 635 301 c 2,4,-1
 575 0 l 1,5,-1
 398 0 l 1,6,-1
 452 274 l 2,7,8
 454 281 454 281 454 295 c 0,9,10
 454 327 454 327 433 345 c 128,-1,11
 412 363 412 363 375 363 c 0,12,13
 330 363 330 363 295.5 333 c 128,-1,14
 261 303 261 303 251 255 c 2,15,-1
 199 0 l 1,16,-1
 21 0 l 1,17,-1
 134 576 l 1,18,-1
 70 576 l 1,19,-1
 87 663 l 1,20,-1
 151 663 l 1,21,-1
 167 742 l 1,22,-1
 346 742 l 1,23,-1
 330 663 l 1,24,-1
 502 663 l 1,25,-1
 485 576 l 1,26,-1
 312 576 l 1,27,-1
 285 442 l 1,28,29
 352 515 352 515 452 515 c 0,30,0
 538 515 538 515 589 468.5 c 128,-1,1
EndSplineSet
Substitution2: "<3,3> Small Caps in Latin lookup 11 subtable" hbar.sc
EndChar

StartChar: Iogonek
Encoding: 302 302 241
Width: 319
Flags: W
LayerCount: 2
Fore
SplineSet
337 701 m 1,0,-1
 197 0 l 1,1,-1
 160 0 l 1,2,3
 111 -31 111 -31 87.5 -55.5 c 128,-1,4
 64 -80 64 -80 64 -104 c 0,5,6
 64 -124 64 -124 82 -124 c 0,7,8
 96 -124 96 -124 112 -116 c 1,9,-1
 122 -211 l 1,10,11
 66 -233 66 -233 20 -233 c 0,12,13
 -25 -233 -25 -233 -49 -210 c 128,-1,14
 -73 -187 -73 -187 -73 -148 c 0,15,16
 -73 -71 -73 -71 14 2 c 1,17,-1
 154 701 l 1,18,-1
 337 701 l 1,0,-1
EndSplineSet
EndChar

StartChar: iogonek
Encoding: 303 303 242
Width: 314
Flags: W
LayerCount: 2
Fore
SplineSet
316 768.5 m 128,-1,1
 337 747 337 747 337 712 c 0,2,3
 337 665 337 665 303.5 632.5 c 128,-1,4
 270 600 270 600 222 600 c 0,5,6
 187 600 187 600 166 621.5 c 128,-1,7
 145 643 145 643 145 678 c 0,8,9
 145 725 145 725 178.5 757.5 c 128,-1,10
 212 790 212 790 259 790 c 0,11,0
 295 790 295 790 316 768.5 c 128,-1,1
122 541 m 1,12,-1
 299 541 l 1,13,-1
 192 0 l 1,14,-1
 158 0 l 1,15,16
 109 -31 109 -31 85.5 -55.5 c 128,-1,17
 62 -80 62 -80 62 -104 c 0,18,19
 62 -124 62 -124 80 -124 c 0,20,21
 94 -124 94 -124 110 -116 c 1,22,-1
 120 -211 l 1,23,24
 64 -233 64 -233 18 -233 c 0,25,26
 -27 -233 -27 -233 -51 -210 c 128,-1,27
 -75 -187 -75 -187 -75 -148 c 0,28,29
 -75 -69 -75 -69 15 4 c 1,30,-1
 122 541 l 1,12,-1
EndSplineSet
Substitution2: "<3,3> Small Caps in Latin lookup 11 subtable" iogonek.sc
EndChar

StartChar: dotlessi
Encoding: 305 305 244
Width: 314
Flags: W
LayerCount: 2
Fore
SplineSet
299 541 m 1,0,-1
 192 0 l 1,1,-1
 14 0 l 1,2,-1
 122 541 l 1,3,-1
 299 541 l 1,0,-1
EndSplineSet
Substitution2: "<3,3> Small Caps in Latin lookup 11 subtable" dotlessi.sc
EndChar

StartChar: kgreenlandic
Encoding: 312 312 251
Width: 649
Flags: W
LayerCount: 2
Fore
SplineSet
695 541 m 1,0,-1
 440 321 l 1,1,-1
 580 0 l 1,2,-1
 373 0 l 1,3,-1
 301 200 l 1,4,-1
 218 128 l 1,5,-1
 192 0 l 1,6,-1
 14 0 l 1,7,-1
 122 541 l 1,8,-1
 300 541 l 1,9,-1
 264 360 l 1,10,-1
 472 541 l 1,11,-1
 695 541 l 1,0,-1
EndSplineSet
Substitution2: "<3,3> Small Caps in Latin lookup 11 subtable" kgreenlandic.sc
EndChar

StartChar: Lslash
Encoding: 321 321 260
Width: 597
Flags: W
LayerCount: 2
Fore
SplineSet
263 156 m 1,0,-1
 559 156 l 1,1,-1
 528 0 l 1,2,-1
 48 0 l 1,3,-1
 102 273 l 1,4,-1
 11 229 l 1,5,-1
 31 330 l 1,6,-1
 123 374 l 1,7,-1
 188 701 l 1,8,-1
 371 701 l 1,9,-1
 325 470 l 1,10,-1
 453 531 l 1,11,-1
 433 430 l 1,12,-1
 305 369 l 1,13,-1
 263 156 l 1,0,-1
EndSplineSet
EndChar

StartChar: lslash
Encoding: 322 322 261
Width: 418
Flags: W
LayerCount: 2
Fore
SplineSet
452 531 m 1,0,-1
 432 430 l 1,1,-1
 319 376 l 1,2,-1
 244 0 l 1,3,-1
 66 0 l 1,4,-1
 122 283 l 1,5,-1
 10 229 l 1,6,-1
 30 330 l 1,7,-1
 143 384 l 1,8,-1
 214 742 l 1,9,-1
 392 742 l 1,10,-1
 339 477 l 1,11,-1
 452 531 l 1,0,-1
EndSplineSet
Substitution2: "<3,3> Small Caps in Latin lookup 11 subtable" lslash.sc
EndChar

StartChar: Eng
Encoding: 330 330 269
Width: 786
Flags: W
LayerCount: 2
Fore
SplineSet
803 701 m 1,0,-1
 663 0 l 2,1,2
 639 -101 639 -101 562 -158.5 c 128,-1,3
 485 -216 485 -216 376 -216 c 0,4,5
 273 -216 273 -216 206 -160 c 1,6,-1
 301 -21 l 1,7,8
 327 -39 327 -39 354.5 -48 c 128,-1,9
 382 -57 382 -57 406 -57 c 0,10,11
 439 -57 439 -57 462.5 -39.5 c 128,-1,12
 486 -22 486 -22 496 12 c 1,13,-1
 270 420 l 1,14,-1
 185 0 l 1,15,-1
 14 0 l 1,16,-1
 154 701 l 1,17,-1
 314 701 l 1,18,-1
 548 279 l 1,19,-1
 633 701 l 1,20,-1
 803 701 l 1,0,-1
EndSplineSet
EndChar

StartChar: eng
Encoding: 331 331 270
Width: 674
Flags: W
LayerCount: 2
Fore
SplineSet
598.5 507 m 128,-1,1
 641 466 641 466 641 394 c 0,2,3
 641 365 641 365 636 341 c 2,4,-1
 564 -20 l 2,5,6
 546 -105 546 -105 481 -153 c 128,-1,7
 416 -201 416 -201 329 -201 c 0,8,9
 252 -201 252 -201 199 -167 c 1,10,-1
 269 -40 l 1,11,12
 296 -59 296 -59 325 -59 c 0,13,14
 349 -59 349 -59 366 -44.5 c 128,-1,15
 383 -30 383 -30 389 -1 c 2,16,-1
 448 290 l 2,17,18
 451 305 451 305 451 318 c 0,19,20
 451 351 451 351 431.5 370 c 128,-1,21
 412 389 412 389 376 389 c 0,22,23
 329 389 329 389 293.5 357.5 c 128,-1,24
 258 326 258 326 247 276 c 2,25,-1
 192 0 l 1,26,-1
 14 0 l 1,27,-1
 122 541 l 1,28,-1
 300 541 l 1,29,-1
 283 453 l 1,30,31
 320 500 320 500 370 524 c 128,-1,32
 420 548 420 548 480 548 c 0,33,0
 556 548 556 548 598.5 507 c 128,-1,1
EndSplineSet
Substitution2: "<3,3> Small Caps in Latin lookup 11 subtable" eng.sc
EndChar

StartChar: OE
Encoding: 338 338 277
Width: 1120
Flags: W
LayerCount: 2
Fore
SplineSet
752 555 m 1,0,-1
 726 424 l 1,1,-1
 1060 424 l 1,2,-1
 1031 279 l 1,3,-1
 697 279 l 1,4,-1
 671 146 l 1,5,-1
 1051 146 l 1,6,-1
 1022 0 l 1,7,-1
 388 0 l 2,8,9
 290 0 290 0 211 42 c 128,-1,10
 132 84 132 84 87 159 c 128,-1,11
 42 234 42 234 42 328 c 0,12,13
 42 431 42 431 97.5 516.5 c 128,-1,14
 153 602 153 602 248.5 651.5 c 128,-1,15
 344 701 344 701 458 701 c 2,16,-1
 1152 701 l 1,17,-1
 1123 555 l 1,18,-1
 752 555 l 1,0,-1
488 150 m 1,19,-1
 568 548 l 1,20,-1
 443 548 l 2,21,22
 385 548 385 548 336 519.5 c 128,-1,23
 287 491 287 491 258.5 442 c 128,-1,24
 230 393 230 393 230 335 c 0,25,26
 230 282 230 282 252 240 c 128,-1,27
 274 198 274 198 313.5 174 c 128,-1,28
 353 150 353 150 403 150 c 2,29,-1
 488 150 l 1,19,-1
EndSplineSet
EndChar

StartChar: oe
Encoding: 339 339 278
Width: 1023
Flags: W
LayerCount: 2
Fore
SplineSet
930 478.5 m 128,-1,1
 998 410 998 410 998 293 c 0,2,3
 998 268 998 268 993 231 c 1,4,-1
 605 231 l 1,5,6
 612 182 612 182 643 155 c 128,-1,7
 674 128 674 128 721 128 c 0,8,9
 793 128 793 128 856 183 c 1,10,-1
 940 90 l 1,11,12
 893 43 893 43 830.5 18.5 c 128,-1,13
 768 -6 768 -6 693 -6 c 0,14,15
 565 -6 565 -6 507 82 c 1,16,17
 470 39 470 39 416 16.5 c 128,-1,18
 362 -6 362 -6 295 -6 c 0,19,20
 213 -6 213 -6 152 25 c 128,-1,21
 91 56 91 56 58 112.5 c 128,-1,22
 25 169 25 169 25 244 c 0,23,24
 25 333 25 333 66.5 402 c 128,-1,25
 108 471 108 471 181.5 509 c 128,-1,26
 255 547 255 547 350 547 c 0,27,28
 414 547 414 547 462.5 524 c 128,-1,29
 511 501 511 501 540 458 c 1,30,31
 577 501 577 501 628.5 524 c 128,-1,32
 680 547 680 547 743 547 c 0,33,0
 862 547 862 547 930 478.5 c 128,-1,1
824 332 m 0,35,36
 824 373 824 373 799 399 c 128,-1,37
 774 425 774 425 733 425 c 0,38,39
 688 425 688 425 655.5 395.5 c 128,-1,40
 623 366 623 366 610 317 c 1,41,-1
 823 317 l 1,42,34
 824 322 824 322 824 332 c 0,35,36
403 176.5 m 128,-1,44
 440 219 440 219 440 285 c 0,45,46
 440 338 440 338 411.5 370.5 c 128,-1,47
 383 403 383 403 336 403 c 0,48,49
 279 403 279 403 242 361 c 128,-1,50
 205 319 205 319 205 252 c 0,51,52
 205 198 205 198 233 166 c 128,-1,53
 261 134 261 134 309 134 c 0,54,43
 366 134 366 134 403 176.5 c 128,-1,44
EndSplineSet
Substitution2: "<3,3> Small Caps in Latin lookup 11 subtable" oe.sc
EndChar

StartChar: Scedilla
Encoding: 350 350 289
Width: 635
Flags: W
LayerCount: 2
Fore
SplineSet
293.5 465 m 128,-1,1
 323 448 323 448 388 428 c 256,2,3
 453 408 453 408 495.5 388.5 c 128,-1,4
 538 369 538 369 568.5 330.5 c 128,-1,5
 599 292 599 292 599 230 c 0,6,7
 599 158 599 158 563.5 106 c 128,-1,8
 528 54 528 54 466.5 24.5 c 128,-1,9
 405 -5 405 -5 328 -10 c 1,10,-1
 304 -52 l 1,11,12
 339 -61 339 -61 355.5 -80 c 128,-1,13
 372 -99 372 -99 372 -124 c 0,14,15
 372 -178 372 -178 328.5 -206 c 128,-1,16
 285 -234 285 -234 223 -234 c 0,17,18
 167 -234 167 -234 115 -213 c 1,19,-1
 159 -129 l 1,20,21
 184 -139 184 -139 209 -139 c 0,22,23
 229 -139 229 -139 242.5 -132 c 128,-1,24
 256 -125 256 -125 256 -114 c 0,25,26
 256 -104 256 -104 241.5 -97.5 c 128,-1,27
 227 -91 227 -91 205 -91 c 2,28,-1
 181 -91 l 1,29,-1
 225 -6 l 1,30,31
 156 4 156 4 92.5 32 c 128,-1,32
 29 60 29 60 -17 102 c 1,33,-1
 68 246 l 1,34,35
 116 199 116 199 185.5 168.5 c 128,-1,36
 255 138 255 138 311 138 c 0,37,38
 355 138 355 138 380 154.5 c 128,-1,39
 405 171 405 171 405 203 c 0,40,41
 405 225 405 225 389 239.5 c 128,-1,42
 373 254 373 254 349 263 c 128,-1,43
 325 272 325 272 280 286 c 0,44,45
 215 304 215 304 173 323 c 128,-1,46
 131 342 131 342 101 379 c 128,-1,47
 71 416 71 416 71 476 c 0,48,49
 71 548 71 548 109 601.5 c 128,-1,50
 147 655 147 655 215.5 684.5 c 128,-1,51
 284 714 284 714 374 714 c 0,52,53
 449 714 449 714 521 692.5 c 128,-1,54
 593 671 593 671 646 635 c 1,55,-1
 561 489 l 1,56,57
 510 522 510 522 448.5 543.5 c 128,-1,58
 387 565 387 565 344 565 c 0,59,60
 309 565 309 565 288 552 c 128,-1,61
 267 539 267 539 265 514 c 0,62,0
 264 482 264 482 293.5 465 c 128,-1,1
EndSplineSet
EndChar

StartChar: scedilla
Encoding: 351 351 290
Width: 524
Flags: W
LayerCount: 2
Fore
SplineSet
252.5 358 m 128,-1,1
 272 346 272 346 313 330 c 0,2,3
 362 310 362 310 394.5 292.5 c 128,-1,4
 427 275 427 275 450.5 244.5 c 128,-1,5
 474 214 474 214 474 169 c 0,6,7
 474 118 474 118 447 78.5 c 128,-1,8
 420 39 420 39 371.5 16.5 c 128,-1,9
 323 -6 323 -6 260 -7 c 1,10,-1
 234 -52 l 1,11,12
 269 -61 269 -61 285.5 -80 c 128,-1,13
 302 -99 302 -99 302 -124 c 0,14,15
 302 -178 302 -178 258.5 -206 c 128,-1,16
 215 -234 215 -234 153 -234 c 0,17,18
 97 -234 97 -234 45 -213 c 1,19,-1
 89 -129 l 1,20,21
 114 -139 114 -139 139 -139 c 0,22,23
 159 -139 159 -139 172.5 -132 c 128,-1,24
 186 -125 186 -125 186 -114 c 0,25,26
 186 -104 186 -104 171.5 -97.5 c 128,-1,27
 157 -91 157 -91 135 -91 c 2,28,-1
 111 -91 l 1,29,-1
 160 3 l 1,30,31
 108 15 108 15 61.5 39 c 128,-1,32
 15 63 15 63 -19 96 c 1,33,-1
 55 202 l 1,34,35
 97 164 97 164 148 141 c 128,-1,36
 199 118 199 118 243 118 c 0,37,38
 271 118 271 118 286.5 128.5 c 128,-1,39
 302 139 302 139 302 158 c 0,40,41
 302 174 302 174 283 185.5 c 128,-1,42
 264 197 264 197 223 213 c 0,43,44
 175 232 175 232 143 249 c 128,-1,45
 111 266 111 266 88 296.5 c 128,-1,46
 65 327 65 327 65 371 c 0,47,48
 65 423 65 423 92 463 c 128,-1,49
 119 503 119 503 167.5 525 c 128,-1,50
 216 547 216 547 279 547 c 0,51,52
 346 547 346 547 412.5 523.5 c 128,-1,53
 479 500 479 500 532 459 c 1,54,-1
 454 353 l 1,55,56
 408 385 408 385 362.5 404 c 128,-1,57
 317 423 317 423 285 423 c 0,58,59
 263 423 263 423 248 412.5 c 128,-1,60
 233 402 233 402 233 386 c 256,61,0
 233 370 233 370 252.5 358 c 128,-1,1
EndSplineSet
Substitution2: "<3,3> Small Caps in Latin lookup 11 subtable" scedilla.sc
EndChar

StartChar: uni0162
Encoding: 354 354 293
Width: 615
Flags: W
LayerCount: 2
Fore
SplineSet
308 0 m 1,0,-1
 278 -52 l 1,1,2
 313 -61 313 -61 329.5 -80 c 128,-1,3
 346 -99 346 -99 346 -124 c 0,4,5
 346 -178 346 -178 302.5 -206 c 128,-1,6
 259 -234 259 -234 197 -234 c 0,7,8
 141 -234 141 -234 89 -213 c 1,9,-1
 133 -129 l 1,10,11
 158 -139 158 -139 183 -139 c 0,12,13
 203 -139 203 -139 216.5 -132 c 128,-1,14
 230 -125 230 -125 230 -114 c 0,15,16
 230 -104 230 -104 215.5 -97.5 c 128,-1,17
 201 -91 201 -91 179 -91 c 2,18,-1
 155 -91 l 1,19,-1
 202 0 l 1,20,-1
 161 0 l 1,21,-1
 272 550 l 1,22,-1
 63 550 l 1,23,-1
 93 701 l 1,24,-1
 694 701 l 1,25,-1
 664 550 l 1,26,-1
 455 550 l 1,27,-1
 344 0 l 1,28,-1
 308 0 l 1,0,-1
EndSplineSet
EndChar

StartChar: uni0163
Encoding: 355 355 294
Width: 442
Flags: W
LayerCount: 2
Fore
SplineSet
253 186 m 2,0,1
 251 178 251 178 251 165 c 0,2,3
 251 148 251 148 258.5 141.5 c 128,-1,4
 266 135 266 135 282 136 c 0,5,6
 312 136 312 136 357 157 c 1,7,-1
 376 25 l 1,8,9
 328 0 328 0 260 -7 c 1,10,-1
 234 -52 l 1,11,12
 269 -61 269 -61 285.5 -80 c 128,-1,13
 302 -99 302 -99 302 -124 c 0,14,15
 302 -178 302 -178 258.5 -206 c 128,-1,16
 215 -234 215 -234 153 -234 c 0,17,18
 97 -234 97 -234 45 -213 c 1,19,-1
 89 -129 l 1,20,21
 114 -139 114 -139 139 -139 c 0,22,23
 159 -139 159 -139 172.5 -132 c 128,-1,24
 186 -125 186 -125 186 -114 c 0,25,26
 186 -104 186 -104 171.5 -97.5 c 128,-1,27
 157 -91 157 -91 135 -91 c 2,28,-1
 111 -91 l 1,29,-1
 160 2 l 1,30,31
 117 17 117 17 93 50.5 c 128,-1,32
 69 84 69 84 69 131 c 0,33,34
 69 153 69 153 73 172 c 2,35,-1
 118 397 l 1,36,-1
 44 397 l 1,37,-1
 67 515 l 1,38,-1
 142 515 l 1,39,-1
 172 665 l 1,40,-1
 349 665 l 1,41,-1
 319 515 l 1,42,-1
 459 515 l 1,43,-1
 436 397 l 1,44,-1
 295 397 l 1,45,-1
 253 186 l 2,0,1
EndSplineSet
Substitution2: "<3,3> Small Caps in Latin lookup 11 subtable" uni0163.sc
EndChar

StartChar: Tbar
Encoding: 358 358 297
Width: 615
Flags: W
LayerCount: 2
Fore
SplineSet
664 550 m 1,0,-1
 455 550 l 1,1,-1
 417 361 l 1,2,-1
 543 361 l 1,3,-1
 524 263 l 1,4,-1
 397 263 l 1,5,-1
 344 0 l 1,6,-1
 161 0 l 1,7,-1
 214 263 l 1,8,-1
 86 263 l 1,9,-1
 105 361 l 1,10,-1
 234 361 l 1,11,-1
 272 550 l 1,12,-1
 63 550 l 1,13,-1
 93 701 l 1,14,-1
 694 701 l 1,15,-1
 664 550 l 1,0,-1
EndSplineSet
EndChar

StartChar: tbar
Encoding: 359 359 298
Width: 437
Flags: W
LayerCount: 2
Fore
SplineSet
298 412 m 1,0,-1
 284 342 l 1,1,-1
 424 342 l 1,2,-1
 404 239 l 1,3,-1
 263 239 l 1,4,-1
 254 193 l 2,5,6
 252 179 252 179 252 174 c 0,7,8
 252 136 252 136 289 136 c 0,9,10
 319 136 319 136 362 154 c 1,11,-1
 371 28 l 1,12,13
 338 11 338 11 297.5 1.5 c 128,-1,14
 257 -8 257 -8 216 -8 c 0,15,16
 147 -8 147 -8 107 26 c 128,-1,17
 67 60 67 60 67 122 c 0,18,19
 67 140 67 140 72 165 c 2,20,-1
 87 239 l 1,21,-1
 12 239 l 1,22,-1
 32 342 l 1,23,-1
 107 342 l 1,24,-1
 121 412 l 1,25,-1
 47 412 l 1,26,-1
 67 515 l 1,27,-1
 142 515 l 1,28,-1
 172 665 l 1,29,-1
 349 665 l 1,30,-1
 319 515 l 1,31,-1
 459 515 l 1,32,-1
 439 412 l 1,33,-1
 298 412 l 1,0,-1
EndSplineSet
Substitution2: "<3,3> Small Caps in Latin lookup 11 subtable" tbar.sc
EndChar

StartChar: Uogonek
Encoding: 370 370 309
Width: 758
Flags: W
LayerCount: 2
Fore
SplineSet
788 701 m 1,0,-1
 707 294 l 2,1,2
 691 215 691 215 651 153 c 128,-1,3
 611 91 611 91 551 52 c 1,4,5
 503 12 503 12 472.5 -31 c 128,-1,6
 442 -74 442 -74 442 -103 c 0,7,8
 442 -124 442 -124 460 -124 c 0,9,10
 474 -124 474 -124 490 -116 c 1,11,-1
 500 -211 l 1,12,13
 444 -233 444 -233 400 -233 c 0,14,15
 357 -233 357 -233 331 -211.5 c 128,-1,16
 305 -190 305 -190 305 -148 c 0,17,18
 305 -110 305 -110 323.5 -76 c 128,-1,19
 342 -42 342 -42 382 -6 c 1,20,21
 352 -8 352 -8 336 -8 c 0,22,23
 250 -8 250 -8 186.5 20.5 c 128,-1,24
 123 49 123 49 88.5 102 c 128,-1,25
 54 155 54 155 54 227 c 0,26,27
 54 262 54 262 61 294 c 2,28,-1
 143 701 l 1,29,-1
 325 701 l 1,30,-1
 244 294 l 2,31,32
 240 277 240 277 240 258 c 0,33,34
 240 207 240 207 271.5 177.5 c 128,-1,35
 303 148 303 148 357 148 c 0,36,37
 418 148 418 148 464 187.5 c 128,-1,38
 510 227 510 227 524 294 c 2,39,-1
 605 701 l 1,40,-1
 788 701 l 1,0,-1
EndSplineSet
EndChar

StartChar: uogonek
Encoding: 371 371 310
Width: 677
Flags: W
LayerCount: 2
Fore
SplineSet
662 541 m 1,0,-1
 555 0 l 1,1,-1
 521 0 l 1,2,3
 472 -31 472 -31 448.5 -55.5 c 128,-1,4
 425 -80 425 -80 425 -104 c 0,5,6
 425 -124 425 -124 443 -124 c 0,7,8
 457 -124 457 -124 473 -116 c 1,9,-1
 483 -211 l 1,10,11
 427 -233 427 -233 381 -233 c 0,12,13
 336 -233 336 -233 312 -210 c 128,-1,14
 288 -187 288 -187 288 -148 c 0,15,16
 288 -69 288 -69 378 4 c 1,17,-1
 391 72 l 1,18,19
 326 -7 326 -7 223 -7 c 0,20,21
 138 -7 138 -7 88 41.5 c 128,-1,22
 38 90 38 90 38 169 c 0,23,24
 38 199 38 199 43 221 c 2,25,-1
 107 541 l 1,26,-1
 285 541 l 1,27,-1
 226 247 l 2,28,29
 223 234 223 234 223 221 c 0,30,31
 223 185 223 185 244 164.5 c 128,-1,32
 265 144 265 144 302 144 c 0,33,34
 347 144 347 144 382.5 178 c 128,-1,35
 418 212 418 212 429 266 c 2,36,-1
 484 541 l 1,37,-1
 662 541 l 1,0,-1
EndSplineSet
Substitution2: "<3,3> Small Caps in Latin lookup 11 subtable" uogonek.sc
EndChar

StartChar: uni018F
Encoding: 399 399 322
Width: 788
Flags: W
LayerCount: 2
Fore
SplineSet
619.5 670 m 128,-1,1
 696 628 696 628 738.5 554 c 128,-1,2
 781 480 781 480 781 386 c 0,3,4
 781 276 781 276 727.5 184.5 c 128,-1,5
 674 93 674 93 582.5 40 c 128,-1,6
 491 -13 491 -13 382 -13 c 0,7,8
 280 -13 280 -13 204 31 c 128,-1,9
 128 75 128 75 87 155.5 c 128,-1,10
 46 236 46 236 46 342 c 0,11,12
 46 357 46 357 48 391 c 1,13,-1
 595 391 l 1,14,15
 590 463 590 463 546 510 c 128,-1,16
 502 557 502 557 435 557 c 0,17,18
 385 557 385 557 340 532.5 c 128,-1,19
 295 508 295 508 265 465 c 1,20,-1
 149 594 l 1,21,22
 207 651 207 651 282 681.5 c 128,-1,23
 357 712 357 712 446 712 c 0,24,0
 543 712 543 712 619.5 670 c 128,-1,1
506 178.5 m 128,-1,26
 555 214 555 214 578 274 c 1,27,-1
 237 274 l 1,28,29
 250 214 250 214 292.5 178.5 c 128,-1,30
 335 143 335 143 397 143 c 0,31,25
 457 143 457 143 506 178.5 c 128,-1,26
EndSplineSet
EndChar

StartChar: florin
Encoding: 402 402 323
Width: 462
Flags: W
LayerCount: 2
Fore
SplineSet
372.5 592.5 m 128,-1,1
 351 574 351 574 345 544 c 2,2,-1
 330 466 l 1,3,-1
 449 466 l 1,4,-1
 428 349 l 1,5,-1
 307 349 l 1,6,-1
 235 -26 l 2,7,8
 219 -107 219 -107 160.5 -154.5 c 128,-1,9
 102 -202 102 -202 16 -202 c 0,10,11
 -19 -202 -19 -202 -54 -190.5 c 128,-1,12
 -89 -179 -89 -179 -110 -162 c 1,13,-1
 -60 -41 l 1,14,15
 -49 -51 -49 -51 -33 -56 c 128,-1,16
 -17 -61 -17 -61 -4 -61 c 0,17,18
 22 -61 22 -61 39.5 -42.5 c 128,-1,19
 57 -24 57 -24 63 6 c 2,20,-1
 130 349 l 1,21,-1
 58 349 l 1,22,-1
 80 466 l 1,23,-1
 153 466 l 1,24,-1
 174 576 l 2,25,26
 190 657 190 657 250.5 704.5 c 128,-1,27
 311 752 311 752 397 752 c 0,28,29
 439 752 439 752 479.5 741 c 128,-1,30
 520 730 520 730 549 712 c 1,31,-1
 483 591 l 1,32,33
 471 601 471 601 454.5 606 c 128,-1,34
 438 611 438 611 424 611 c 0,35,0
 394 611 394 611 372.5 592.5 c 128,-1,1
EndSplineSet
EndChar

StartChar: Ohorn
Encoding: 416 416 324
Width: 850
Flags: W
LayerCount: 2
Fore
SplineSet
870 775 m 0,1,2
 870 710 870 710 833.5 661 c 128,-1,3
 797 612 797 612 734 590 c 1,4,5
 768 548 768 548 786 495.5 c 128,-1,6
 804 443 804 443 804 383 c 0,7,8
 804 274 804 274 748 183 c 128,-1,9
 692 92 692 92 596 39.5 c 128,-1,10
 500 -13 500 -13 386 -13 c 0,11,12
 286 -13 286 -13 207.5 30 c 128,-1,13
 129 73 129 73 85.5 148.5 c 128,-1,14
 42 224 42 224 42 319 c 0,15,16
 42 429 42 429 98 519 c 128,-1,17
 154 609 154 609 249.5 660.5 c 128,-1,18
 345 712 345 712 459 712 c 0,19,20
 544 712 544 712 618 679 c 1,21,-1
 618 680 l 1,22,23
 632 671 632 671 654 671 c 0,24,25
 687 671 687 671 707.5 696.5 c 128,-1,26
 728 722 728 722 728 756 c 0,27,28
 728 780 728 780 717 802 c 1,29,-1
 858 850 l 1,30,0
 870 811 870 811 870 775 c 0,1,2
508 173.5 m 128,-1,32
 557 204 557 204 586 256 c 128,-1,33
 615 308 615 308 615 370 c 0,34,35
 615 423 615 423 593 465.5 c 128,-1,36
 571 508 571 508 532 532.5 c 128,-1,37
 493 557 493 557 446 557 c 0,38,39
 390 557 390 557 340 527 c 128,-1,40
 290 497 290 497 260 445 c 128,-1,41
 230 393 230 393 230 332 c 0,42,43
 230 279 230 279 253 236 c 128,-1,44
 276 193 276 193 316 168 c 128,-1,45
 356 143 356 143 404 143 c 0,46,31
 459 143 459 143 508 173.5 c 128,-1,32
EndSplineSet
EndChar

StartChar: ohorn
Encoding: 417 417 325
Width: 674
Flags: W
LayerCount: 2
Fore
SplineSet
735 616 m 0,1,2
 735 548 735 548 695 497.5 c 128,-1,3
 655 447 655 447 588 427 c 1,4,5
 620 372 620 372 620 298 c 0,6,7
 620 209 620 209 578.5 140 c 128,-1,8
 537 71 537 71 463 32.5 c 128,-1,9
 389 -6 389 -6 295 -6 c 0,10,11
 213 -6 213 -6 152 25 c 128,-1,12
 91 56 91 56 58 112.5 c 128,-1,13
 25 169 25 169 25 244 c 0,14,15
 25 333 25 333 66.5 402 c 128,-1,16
 108 471 108 471 181.5 509 c 128,-1,17
 255 547 255 547 350 547 c 0,18,19
 435 547 435 547 498 513 c 1,20,21
 512 511 512 511 519 511 c 0,22,23
 552 511 552 511 572.5 536.5 c 128,-1,24
 593 562 593 562 593 596 c 0,25,26
 593 620 593 620 582 642 c 1,27,-1
 723 690 l 1,28,0
 735 651 735 651 735 616 c 0,1,2
402 176 m 128,-1,30
 439 218 439 218 439 285 c 0,31,32
 439 338 439 338 411 370.5 c 128,-1,33
 383 403 383 403 336 403 c 0,34,35
 279 403 279 403 242 361 c 128,-1,36
 205 319 205 319 205 252 c 0,37,38
 205 199 205 199 233 166.5 c 128,-1,39
 261 134 261 134 308 134 c 0,40,29
 365 134 365 134 402 176 c 128,-1,30
EndSplineSet
Substitution2: "<3,3> Small Caps in Latin lookup 11 subtable" ohorn.sc
EndChar

StartChar: Uhorn
Encoding: 431 431 326
Width: 835
Flags: W
LayerCount: 2
Fore
SplineSet
926 790 m 0,1,2
 926 721 926 721 886 675.5 c 128,-1,3
 846 630 846 630 771 614 c 1,4,-1
 707 294 l 2,5,6
 679 154 679 154 581 73 c 128,-1,7
 483 -8 483 -8 336 -8 c 0,8,9
 250 -8 250 -8 186.5 20.5 c 128,-1,10
 123 49 123 49 88.5 102 c 128,-1,11
 54 155 54 155 54 227 c 0,12,13
 54 262 54 262 61 294 c 2,14,-1
 143 701 l 1,15,-1
 325 701 l 1,16,-1
 244 294 l 2,17,18
 240 277 240 277 240 258 c 0,19,20
 240 207 240 207 271.5 177.5 c 128,-1,21
 303 148 303 148 357 148 c 0,22,23
 418 148 418 148 464 187.5 c 128,-1,24
 510 227 510 227 524 294 c 2,25,-1
 605 701 l 1,26,-1
 724 701 l 2,27,28
 758 701 758 701 775 720 c 128,-1,29
 792 739 792 739 792 767 c 0,30,31
 792 788 792 788 785 803 c 1,32,-1
 919 850 l 1,33,0
 926 821 926 821 926 790 c 0,1,2
EndSplineSet
EndChar

StartChar: uhorn
Encoding: 432 432 327
Width: 715
Flags: W
LayerCount: 2
Fore
SplineSet
799 630 m 0,1,2
 799 561 799 561 759 515.5 c 128,-1,3
 719 470 719 470 645 454 c 1,4,-1
 555 0 l 1,5,-1
 377 0 l 1,6,-1
 391 72 l 1,7,8
 326 -7 326 -7 223 -7 c 0,9,10
 138 -7 138 -7 88 41.5 c 128,-1,11
 38 90 38 90 38 169 c 0,12,13
 38 199 38 199 43 221 c 2,14,-1
 107 541 l 1,15,-1
 285 541 l 1,16,-1
 226 247 l 2,17,18
 223 234 223 234 223 221 c 0,19,20
 223 185 223 185 244 164.5 c 128,-1,21
 265 144 265 144 302 144 c 0,22,23
 347 144 347 144 382.5 178 c 128,-1,24
 418 212 418 212 429 266 c 2,25,-1
 484 541 l 1,26,-1
 597 541 l 2,27,28
 631 541 631 541 648 560 c 128,-1,29
 665 579 665 579 665 607 c 0,30,31
 665 628 665 628 658 643 c 1,32,-1
 792 690 l 1,33,0
 799 661 799 661 799 630 c 0,1,2
EndSplineSet
Substitution2: "<3,3> Small Caps in Latin lookup 11 subtable" uhorn.sc
EndChar

StartChar: uni01EA
Encoding: 490 490 339
Width: 811
Flags: W
LayerCount: 2
Fore
SplineSet
753.5 192 m 128,-1,1
 703 105 703 105 616 51 c 1,2,3
 568 12 568 12 537.5 -30.5 c 128,-1,4
 507 -73 507 -73 507 -103 c 0,5,6
 507 -124 507 -124 525 -124 c 0,7,8
 539 -124 539 -124 555 -116 c 1,9,-1
 565 -211 l 1,10,11
 509 -233 509 -233 465 -233 c 0,12,13
 422 -233 422 -233 396 -211.5 c 128,-1,14
 370 -190 370 -190 370 -148 c 0,15,16
 370 -111 370 -111 387.5 -77.5 c 128,-1,17
 405 -44 405 -44 443 -9 c 1,18,19
 418 -13 418 -13 386 -13 c 0,20,21
 286 -13 286 -13 207.5 30 c 128,-1,22
 129 73 129 73 85.5 148.5 c 128,-1,23
 42 224 42 224 42 319 c 0,24,25
 42 429 42 429 98 519 c 128,-1,26
 154 609 154 609 249.5 660.5 c 128,-1,27
 345 712 345 712 459 712 c 0,28,29
 559 712 559 712 637.5 669.5 c 128,-1,30
 716 627 716 627 760 552 c 128,-1,31
 804 477 804 477 804 383 c 0,32,0
 804 279 804 279 753.5 192 c 128,-1,1
253 236 m 128,-1,34
 276 193 276 193 316 168 c 128,-1,35
 356 143 356 143 404 143 c 0,36,37
 459 143 459 143 508 173.5 c 128,-1,38
 557 204 557 204 586 256 c 128,-1,39
 615 308 615 308 615 370 c 0,40,41
 615 423 615 423 593 465.5 c 128,-1,42
 571 508 571 508 532 532.5 c 128,-1,43
 493 557 493 557 446 557 c 0,44,45
 390 557 390 557 340 527 c 128,-1,46
 290 497 290 497 260 445 c 128,-1,47
 230 393 230 393 230 332 c 0,48,33
 230 279 230 279 253 236 c 128,-1,34
EndSplineSet
EndChar

StartChar: uni01EB
Encoding: 491 491 340
Width: 644
Flags: W
LayerCount: 2
Fore
SplineSet
587 155.5 m 128,-1,1
 554 92 554 92 495 52 c 1,2,3
 447 12 447 12 416.5 -31 c 128,-1,4
 386 -74 386 -74 386 -103 c 0,5,6
 386 -124 386 -124 404 -124 c 0,7,8
 418 -124 418 -124 434 -116 c 1,9,-1
 444 -211 l 1,10,11
 388 -233 388 -233 344 -233 c 0,12,13
 301 -233 301 -233 275 -211.5 c 128,-1,14
 249 -190 249 -190 249 -148 c 0,15,16
 249 -109 249 -109 267.5 -75 c 128,-1,17
 286 -41 286 -41 327 -5 c 1,18,19
 316 -6 316 -6 295 -6 c 0,20,21
 213 -6 213 -6 152 25 c 128,-1,22
 91 56 91 56 58 112.5 c 128,-1,23
 25 169 25 169 25 244 c 0,24,25
 25 333 25 333 66.5 402 c 128,-1,26
 108 471 108 471 181.5 509 c 128,-1,27
 255 547 255 547 350 547 c 0,28,29
 432 547 432 547 493 516 c 128,-1,30
 554 485 554 485 587 429 c 128,-1,31
 620 373 620 373 620 298 c 0,32,0
 620 219 620 219 587 155.5 c 128,-1,1
233 166.5 m 128,-1,34
 261 134 261 134 308 134 c 0,35,36
 365 134 365 134 402 176 c 128,-1,37
 439 218 439 218 439 285 c 0,38,39
 439 338 439 338 411 370.5 c 128,-1,40
 383 403 383 403 336 403 c 0,41,42
 279 403 279 403 242 361 c 128,-1,43
 205 319 205 319 205 252 c 0,44,33
 205 199 205 199 233 166.5 c 128,-1,34
EndSplineSet
Substitution2: "<3,3> Small Caps in Latin lookup 11 subtable" uni01EB.sc
EndChar

StartChar: uni0237
Encoding: 567 567 383
Width: 313
Flags: W
LayerCount: 2
Fore
SplineSet
-64 -60 m 0,1,2
 -34 -60 -34 -60 -13 -39.5 c 128,-1,3
 8 -19 8 -19 15 14 c 2,4,-1
 121 541 l 1,5,-1
 299 541 l 1,6,-1
 185 -27 l 2,7,8
 169 -111 169 -111 112 -156 c 128,-1,9
 55 -201 55 -201 -30 -201 c 0,10,11
 -93 -201 -93 -201 -146 -178 c 1,12,-1
 -96 -56 l 1,13,0
 -81 -60 -81 -60 -64 -60 c 0,1,2
EndSplineSet
EndChar

StartChar: uni0259
Encoding: 601 601 384
Width: 616
Flags: W
LayerCount: 2
Fore
SplineSet
457.5 516 m 128,-1,1
 522 486 522 486 557 430.5 c 128,-1,2
 592 375 592 375 592 301 c 0,3,4
 592 214 592 214 552 143.5 c 128,-1,5
 512 73 512 73 442 33 c 128,-1,6
 372 -7 372 -7 285 -7 c 0,7,8
 205 -7 205 -7 146 23 c 128,-1,9
 87 53 87 53 55 108 c 128,-1,10
 23 163 23 163 23 235 c 0,11,12
 23 269 23 269 33 317 c 1,13,-1
 417 317 l 1,14,15
 412 363 412 363 382 388 c 128,-1,16
 352 413 352 413 301 413 c 0,17,18
 235 413 235 413 176 368 c 1,19,-1
 88 465 l 1,20,21
 177 546 177 546 307 546 c 0,22,0
 393 546 393 546 457.5 516 c 128,-1,1
351.5 148 m 128,-1,24
 386 176 386 176 404 222 c 1,25,-1
 192 222 l 1,26,27
 191 215 191 215 191 203 c 0,28,29
 191 165 191 165 214 142.5 c 128,-1,30
 237 120 237 120 276 120 c 0,31,23
 317 120 317 120 351.5 148 c 128,-1,24
EndSplineSet
Substitution2: "<3,3> Small Caps in Latin lookup 11 subtable" uni0259.sc
EndChar

StartChar: uni02BB
Encoding: 699 699 385
Width: 323
Flags: W
LayerCount: 2
Fore
SplineSet
263 484 m 1,0,-1
 132 515 l 1,1,-1
 198 700 l 1,2,-1
 304 700 l 1,3,-1
 263 484 l 1,0,-1
EndSplineSet
EndChar

StartChar: uni02BC
Encoding: 700 700 386
Width: 169
Flags: W
LayerCount: 2
Fore
SplineSet
110 701 m 1,0,-1
 231 701 l 1,1,-1
 156 438 l 1,2,-1
 59 438 l 1,3,-1
 110 701 l 1,0,-1
EndSplineSet
EndChar

StartChar: uni02BE
Encoding: 702 702 387
Width: 271
Flags: W
LayerCount: 2
Fore
SplineSet
158 646 m 1,0,1
 180 646 180 646 197.5 661 c 128,-1,2
 215 676 215 676 216 697 c 0,3,4
 218 717 218 717 205 731 c 128,-1,5
 192 745 192 745 171 745 c 1,6,-1
 179 816 l 1,7,8
 225 816 225 816 256 785 c 128,-1,9
 287 754 287 754 287 709 c 0,10,11
 287 673 287 673 268 642.5 c 128,-1,12
 249 612 249 612 217.5 593.5 c 128,-1,13
 186 575 186 575 150 575 c 1,14,-1
 158 646 l 1,0,1
EndSplineSet
EndChar

StartChar: uni02BF
Encoding: 703 703 388
Width: 278
Flags: W
LayerCount: 2
Fore
SplineSet
258 646 m 1,0,1
 239 646 239 646 227.5 658 c 128,-1,2
 216 670 216 670 216 688 c 0,3,4
 216 711 216 711 235 728 c 128,-1,5
 254 745 254 745 278 745 c 1,6,-1
 291 816 l 1,7,8
 254 816 254 816 220 796.5 c 128,-1,9
 186 777 186 777 165 745 c 128,-1,10
 144 713 144 713 144 676 c 0,11,12
 144 633 144 633 172 604 c 128,-1,13
 200 575 200 575 244 575 c 1,14,-1
 258 646 l 1,0,1
EndSplineSet
EndChar

StartChar: caron
Encoding: 711 711 390
Width: 443
Flags: W
LayerCount: 2
Fore
SplineSet
369 763 m 1,0,-1
 497 763 l 1,1,-1
 358 610 l 1,2,-1
 201 610 l 1,3,-1
 121 763 l 1,4,-1
 249 763 l 1,5,-1
 296 696 l 1,6,-1
 369 763 l 1,0,-1
EndSplineSet
EndChar

StartChar: uni02C8
Encoding: 712 712 391
Width: 321
Flags: W
LayerCount: 2
Fore
SplineSet
150 508 m 1,0,-1
 187 701 l 1,1,-1
 305 701 l 1,2,-1
 268 508 l 1,3,-1
 150 508 l 1,0,-1
EndSplineSet
EndChar

StartChar: uni02C9
Encoding: 713 713 392
Width: 467
Flags: W
LayerCount: 2
Fore
SplineSet
187 744 m 1,0,-1
 468 744 l 1,1,-1
 448 639 l 1,2,-1
 167 639 l 1,3,-1
 187 744 l 1,0,-1
EndSplineSet
EndChar

StartChar: uni02CA
Encoding: 714 714 393
Width: 348
Flags: W
LayerCount: 2
Fore
SplineSet
261 770 m 1,0,-1
 397 714 l 1,1,-1
 230 599 l 1,2,-1
 110 609 l 1,3,-1
 261 770 l 1,0,-1
EndSplineSet
EndChar

StartChar: uni02CB
Encoding: 715 715 394
Width: 312
Flags: W
LayerCount: 2
Fore
SplineSet
280 770 m 1,0,-1
 354 609 l 1,1,-1
 229 599 l 1,2,-1
 121 714 l 1,3,-1
 280 770 l 1,0,-1
EndSplineSet
EndChar

StartChar: uni02CC
Encoding: 716 716 395
Width: 323
Flags: W
LayerCount: 2
Fore
SplineSet
4 -223 m 1,0,-1
 41 -30 l 1,1,-1
 161 -30 l 1,2,-1
 123 -223 l 1,3,-1
 4 -223 l 1,0,-1
EndSplineSet
EndChar

StartChar: gravecomb
Encoding: 768 768 402
Width: 0
Flags: W
LayerCount: 2
Fore
SplineSet
-44 770 m 1,0,-1
 62 609 l 1,1,-1
 -60 599 l 1,2,-1
 -191 714 l 1,3,-1
 -44 770 l 1,0,-1
EndSplineSet
Substitution2: "<3,3> Small Caps in Latin lookup 11 subtable" gravecomb.sc
EndChar

StartChar: acutecomb
Encoding: 769 769 403
Width: 0
Flags: W
LayerCount: 2
Fore
SplineSet
-118 770 m 1,0,-1
 29 714 l 1,1,-1
 -116 599 l 1,2,-1
 -238 609 l 1,3,-1
 -118 770 l 1,0,-1
EndSplineSet
Substitution2: "<3,3> Small Caps in Latin lookup 11 subtable" acutecomb.sc
EndChar

StartChar: uni0302
Encoding: 770 770 404
Width: 0
Flags: W
LayerCount: 2
Fore
SplineSet
45 610 m 1,0,-1
 -83 610 l 1,1,-1
 -130 677 l 1,2,-1
 -203 610 l 1,3,-1
 -331 610 l 1,4,-1
 -192 763 l 1,5,-1
 -35 763 l 1,6,-1
 45 610 l 1,0,-1
EndSplineSet
Substitution2: "<3,3> Small Caps in Latin lookup 11 subtable" uni0302.sc
EndChar

StartChar: tildecomb
Encoding: 771 771 405
Width: 0
Flags: W
LayerCount: 2
Fore
SplineSet
-31 637.5 m 128,-1,1
 -61 598 -61 598 -113 598 c 0,2,3
 -136 598 -136 598 -155 605.5 c 128,-1,4
 -174 613 -174 613 -197 627 c 0,5,6
 -200 629 -200 629 -213.5 636 c 128,-1,7
 -227 643 -227 643 -237 643 c 0,8,9
 -265 643 -265 643 -273 601 c 1,10,-1
 -374 601 l 1,11,12
 -358 679 -358 679 -327 719.5 c 128,-1,13
 -296 760 -296 760 -245 760 c 0,14,15
 -222 760 -222 760 -203 752.5 c 128,-1,16
 -184 745 -184 745 -161 731 c 0,17,18
 -133 715 -133 715 -121 715 c 0,19,20
 -93 715 -93 715 -85 756 c 1,21,-1
 15 756 l 1,22,0
 -1 677 -1 677 -31 637.5 c 128,-1,1
EndSplineSet
Substitution2: "<3,3> Small Caps in Latin lookup 11 subtable" tildecomb.sc
EndChar

StartChar: uni0304
Encoding: 772 772 406
Width: 0
Flags: W
LayerCount: 2
Fore
SplineSet
-294 744 m 1,0,-1
 15 744 l 1,1,-1
 -5 639 l 1,2,-1
 -314 639 l 1,3,-1
 -294 744 l 1,0,-1
EndSplineSet
Substitution2: "<3,3> Small Caps in Latin lookup 11 subtable" uni0304.sc
EndChar

StartChar: uni0306
Encoding: 774 774 407
Width: 0
Flags: W
LayerCount: 2
Fore
SplineSet
-182 720 m 128,-1,1
 -170 704 -170 704 -147 704 c 256,2,3
 -124 704 -124 704 -106 719.5 c 128,-1,4
 -88 735 -88 735 -81 761 c 1,5,-1
 30 761 l 1,6,7
 13 688 13 688 -41 644 c 128,-1,8
 -95 600 -95 600 -167 600 c 0,9,10
 -230 600 -230 600 -266.5 635 c 128,-1,11
 -303 670 -303 670 -303 730 c 0,12,13
 -303 750 -303 750 -301 761 c 1,14,-1
 -191 761 l 1,15,0
 -194 736 -194 736 -182 720 c 128,-1,1
EndSplineSet
Substitution2: "<3,3> Small Caps in Latin lookup 11 subtable" uni0306.sc
EndChar

StartChar: uni0307
Encoding: 775 775 408
Width: 0
Flags: W
LayerCount: 2
Fore
SplineSet
-3 768.5 m 128,-1,1
 18 747 18 747 18 712 c 0,2,3
 18 665 18 665 -15.5 632.5 c 128,-1,4
 -49 600 -49 600 -97 600 c 0,5,6
 -132 600 -132 600 -153 621.5 c 128,-1,7
 -174 643 -174 643 -174 678 c 0,8,9
 -174 725 -174 725 -140.5 757.5 c 128,-1,10
 -107 790 -107 790 -60 790 c 0,11,0
 -24 790 -24 790 -3 768.5 c 128,-1,1
EndSplineSet
Substitution2: "<3,3> Small Caps in Latin lookup 11 subtable" uni0307.sc
EndChar

StartChar: uni0308
Encoding: 776 776 409
Width: 0
Flags: W
LayerCount: 2
Fore
SplineSet
-194 748.5 m 128,-1,1
 -177 731 -177 731 -177 702 c 0,2,3
 -177 665 -177 665 -204.5 638 c 128,-1,4
 -232 611 -232 611 -270 611 c 0,5,6
 -298 611 -298 611 -315.5 629 c 128,-1,7
 -333 647 -333 647 -333 675 c 0,8,9
 -333 713 -333 713 -305.5 739.5 c 128,-1,10
 -278 766 -278 766 -240 766 c 0,11,0
 -211 766 -211 766 -194 748.5 c 128,-1,1
-3 748.5 m 128,-1,13
 14 731 14 731 14 702 c 0,14,15
 14 665 14 665 -13 638 c 128,-1,16
 -40 611 -40 611 -78 611 c 0,17,18
 -107 611 -107 611 -124 629 c 128,-1,19
 -141 647 -141 647 -141 675 c 0,20,21
 -141 713 -141 713 -113.5 739.5 c 128,-1,22
 -86 766 -86 766 -48 766 c 0,23,12
 -20 766 -20 766 -3 748.5 c 128,-1,13
EndSplineSet
Substitution2: "<3,3> Small Caps in Latin lookup 11 subtable" uni0308.sc
EndChar

StartChar: hookabovecomb
Encoding: 777 777 410
Width: 0
Flags: W
LayerCount: 2
Fore
SplineSet
1.5 795 m 128,-1,1
 27 774 27 774 27 739 c 0,2,3
 27 700 27 700 -3.5 660.5 c 128,-1,4
 -34 621 -34 621 -89 583 c 1,5,-1
 -162 616 l 1,6,7
 -134 637 -134 637 -118 659 c 128,-1,8
 -102 681 -102 681 -102 697 c 0,9,10
 -102 707 -102 707 -108 713 c 128,-1,11
 -114 719 -114 719 -125 719 c 0,12,13
 -144 719 -144 719 -165 705 c 1,14,-1
 -197 778 l 1,15,16
 -132 816 -132 816 -69 816 c 0,17,0
 -24 816 -24 816 1.5 795 c 128,-1,1
EndSplineSet
Substitution2: "<3,3> Small Caps in Latin lookup 11 subtable" hookabovecomb.sc
EndChar

StartChar: uni030A
Encoding: 778 778 411
Width: 0
Flags: W
LayerCount: 2
Fore
SplineSet
-3.5 785 m 128,-1,1
 26 755 26 755 26 710 c 0,2,3
 26 675 26 675 7.5 645 c 128,-1,4
 -11 615 -11 615 -41.5 597 c 128,-1,5
 -72 579 -72 579 -107 579 c 0,6,7
 -152 579 -152 579 -182 608.5 c 128,-1,8
 -212 638 -212 638 -212 682 c 0,9,10
 -212 717 -212 717 -193.5 748 c 128,-1,11
 -175 779 -175 779 -144 797 c 128,-1,12
 -113 815 -113 815 -79 815 c 0,13,0
 -33 815 -33 815 -3.5 785 c 128,-1,1
-122.5 725 m 128,-1,15
 -137 710 -137 710 -137 690 c 0,16,17
 -137 674 -137 674 -126 663.5 c 128,-1,18
 -115 653 -115 653 -98 653 c 0,19,20
 -79 653 -79 653 -64 668 c 128,-1,21
 -49 683 -49 683 -49 702 c 0,22,23
 -49 718 -49 718 -60 729 c 128,-1,24
 -71 740 -71 740 -88 740 c 0,25,14
 -108 740 -108 740 -122.5 725 c 128,-1,15
EndSplineSet
EndChar

StartChar: uni030B
Encoding: 779 779 412
Width: 0
Flags: W
LayerCount: 2
Fore
SplineSet
-306 773 m 1,0,-1
 -182 723 l 1,1,-1
 -274 599 l 1,2,-1
 -397 608 l 1,3,-1
 -306 773 l 1,0,-1
-109 773 m 1,4,-1
 15 723 l 1,5,-1
 -77 599 l 1,6,-1
 -200 608 l 1,7,-1
 -109 773 l 1,4,-1
EndSplineSet
Substitution2: "<3,3> Small Caps in Latin lookup 11 subtable" uni030B.sc
EndChar

StartChar: uni030C
Encoding: 780 780 413
Width: 0
Flags: W
LayerCount: 2
Fore
SplineSet
-74 763 m 1,0,-1
 54 763 l 1,1,-1
 -85 610 l 1,2,-1
 -242 610 l 1,3,-1
 -322 763 l 1,4,-1
 -194 763 l 1,5,-1
 -147 696 l 1,6,-1
 -74 763 l 1,0,-1
EndSplineSet
Substitution2: "<3,3> Small Caps in Latin lookup 11 subtable" uni030C.sc
EndChar

StartChar: uni030F
Encoding: 783 783 414
Width: 0
Flags: W
LayerCount: 2
Fore
SplineSet
-212 773 m 1,0,-1
 -163 608 l 1,1,-1
 -290 599 l 1,2,-1
 -356 723 l 1,3,-1
 -212 773 l 1,0,-1
-15 773 m 1,4,-1
 34 608 l 1,5,-1
 -93 599 l 1,6,-1
 -159 723 l 1,7,-1
 -15 773 l 1,4,-1
EndSplineSet
Substitution2: "<3,3> Small Caps in Latin lookup 11 subtable" uni030F.sc
EndChar

StartChar: uni0311
Encoding: 785 785 415
Width: 0
Flags: W
LayerCount: 2
Fore
SplineSet
-96 641 m 128,-1,1
 -108 657 -108 657 -131 657 c 256,2,3
 -154 657 -154 657 -172 641.5 c 128,-1,4
 -190 626 -190 626 -197 600 c 1,5,-1
 -308 600 l 1,6,7
 -291 673 -291 673 -237 717 c 128,-1,8
 -183 761 -183 761 -111 761 c 0,9,10
 -48 761 -48 761 -11.5 726 c 128,-1,11
 25 691 25 691 25 631 c 0,12,13
 25 611 25 611 23 600 c 1,14,-1
 -87 600 l 1,15,0
 -84 625 -84 625 -96 641 c 128,-1,1
EndSplineSet
Substitution2: "<3,3> Small Caps in Latin lookup 11 subtable" uni0311.sc
EndChar

StartChar: uni0312
Encoding: 786 786 416
Width: 0
Flags: W
LayerCount: 2
Fore
SplineSet
-44 610 m 1,0,-1
 -190 610 l 1,1,-1
 -86 784 l 1,2,-1
 18 784 l 1,3,-1
 -44 610 l 1,0,-1
EndSplineSet
EndChar

StartChar: uni031B
Encoding: 795 795 417
Width: 0
Flags: W
LayerCount: 2
Fore
SplineSet
-24 630 m 0,1,2
 -24 544 -24 544 -85.5 495.5 c 128,-1,3
 -147 447 -147 447 -256 447 c 1,4,-1
 -226 541 l 1,5,6
 -192 541 -192 541 -175 560 c 128,-1,7
 -158 579 -158 579 -158 607 c 0,8,9
 -158 628 -158 628 -165 643 c 1,10,-1
 -31 690 l 1,11,0
 -24 661 -24 661 -24 630 c 0,1,2
EndSplineSet
EndChar

StartChar: dotbelowcomb
Encoding: 803 803 418
Width: 0
Flags: W
LayerCount: 2
Fore
SplineSet
-173 -89.5 m 128,-1,1
 -152 -111 -152 -111 -152 -146 c 0,2,3
 -152 -193 -152 -193 -185.5 -225.5 c 128,-1,4
 -219 -258 -219 -258 -267 -258 c 0,5,6
 -302 -258 -302 -258 -323 -236.5 c 128,-1,7
 -344 -215 -344 -215 -344 -180 c 0,8,9
 -344 -133 -344 -133 -310.5 -100.5 c 128,-1,10
 -277 -68 -277 -68 -230 -68 c 0,11,0
 -194 -68 -194 -68 -173 -89.5 c 128,-1,1
EndSplineSet
Substitution2: "<3,3> Small Caps in Latin lookup 11 subtable" dotbelowcomb.sc
EndChar

StartChar: uni0324
Encoding: 804 804 419
Width: 0
Flags: W
LayerCount: 2
Fore
SplineSet
-360 -83.5 m 128,-1,1
 -343 -101 -343 -101 -343 -130 c 0,2,3
 -343 -167 -343 -167 -370.5 -194 c 128,-1,4
 -398 -221 -398 -221 -436 -221 c 0,5,6
 -464 -221 -464 -221 -481.5 -203 c 128,-1,7
 -499 -185 -499 -185 -499 -157 c 0,8,9
 -499 -119 -499 -119 -471.5 -92.5 c 128,-1,10
 -444 -66 -444 -66 -406 -66 c 0,11,0
 -377 -66 -377 -66 -360 -83.5 c 128,-1,1
-169 -83.5 m 128,-1,13
 -152 -101 -152 -101 -152 -130 c 0,14,15
 -152 -167 -152 -167 -179 -194 c 128,-1,16
 -206 -221 -206 -221 -244 -221 c 0,17,18
 -273 -221 -273 -221 -290 -203 c 128,-1,19
 -307 -185 -307 -185 -307 -157 c 0,20,21
 -307 -119 -307 -119 -279.5 -92.5 c 128,-1,22
 -252 -66 -252 -66 -214 -66 c 0,23,12
 -186 -66 -186 -66 -169 -83.5 c 128,-1,13
EndSplineSet
Substitution2: "<3,3> Small Caps in Latin lookup 11 subtable" uni0324.sc
EndChar

StartChar: uni0326
Encoding: 806 806 420
Width: 0
Flags: W
LayerCount: 2
Fore
SplineSet
-274 -60 m 1,0,-1
 -128 -60 l 1,1,-1
 -232 -234 l 1,2,-1
 -336 -234 l 1,3,-1
 -274 -60 l 1,0,-1
EndSplineSet
EndChar

StartChar: uni0327
Encoding: 807 807 421
Width: 0
Flags: W
LayerCount: 2
Fore
SplineSet
-179 0 m 1,0,-1
 -209 -52 l 1,1,2
 -174 -61 -174 -61 -157.5 -80 c 128,-1,3
 -141 -99 -141 -99 -141 -124 c 0,4,5
 -141 -178 -141 -178 -184.5 -206 c 128,-1,6
 -228 -234 -228 -234 -290 -234 c 0,7,8
 -346 -234 -346 -234 -398 -213 c 1,9,-1
 -354 -129 l 1,10,11
 -329 -139 -329 -139 -304 -139 c 0,12,13
 -284 -139 -284 -139 -270.5 -132 c 128,-1,14
 -257 -125 -257 -125 -257 -114 c 0,15,16
 -257 -104 -257 -104 -271.5 -97.5 c 128,-1,17
 -286 -91 -286 -91 -308 -91 c 2,18,-1
 -332 -91 l 1,19,-1
 -280 9 l 1,20,-1
 -179 0 l 1,0,-1
EndSplineSet
Substitution2: "<3,3> Small Caps in Latin lookup 11 subtable" uni0327.sc
EndChar

StartChar: uni0328
Encoding: 808 808 422
Width: 0
Flags: W
LayerCount: 2
Fore
SplineSet
-129 0 m 1,0,1
 -178 -31 -178 -31 -201.5 -55.5 c 128,-1,2
 -225 -80 -225 -80 -225 -104 c 0,3,4
 -225 -124 -225 -124 -207 -124 c 0,5,6
 -193 -124 -193 -124 -177 -116 c 1,7,-1
 -167 -211 l 1,8,9
 -223 -233 -223 -233 -269 -233 c 0,10,11
 -314 -233 -314 -233 -338 -210 c 128,-1,12
 -362 -187 -362 -187 -362 -148 c 0,13,14
 -362 -101 -362 -101 -327.5 -53 c 128,-1,15
 -293 -5 -293 -5 -222 40 c 1,16,-1
 -129 0 l 1,0,1
EndSplineSet
EndChar

StartChar: uni032E
Encoding: 814 814 423
Width: 0
Flags: W
LayerCount: 2
Fore
SplineSet
-345 -100 m 128,-1,1
 -333 -116 -333 -116 -310 -116 c 256,2,3
 -287 -116 -287 -116 -269 -100.5 c 128,-1,4
 -251 -85 -251 -85 -244 -59 c 1,5,-1
 -133 -59 l 1,6,7
 -150 -132 -150 -132 -204 -176 c 128,-1,8
 -258 -220 -258 -220 -330 -220 c 0,9,10
 -393 -220 -393 -220 -429.5 -185 c 128,-1,11
 -466 -150 -466 -150 -466 -90 c 0,12,13
 -466 -70 -466 -70 -464 -59 c 1,14,-1
 -354 -59 l 1,15,0
 -357 -84 -357 -84 -345 -100 c 128,-1,1
EndSplineSet
EndChar

StartChar: uni0331
Encoding: 817 817 424
Width: 0
Flags: W
LayerCount: 2
Fore
SplineSet
-443 -77 m 1,0,-1
 -162 -77 l 1,1,-1
 -182 -182 l 1,2,-1
 -463 -182 l 1,3,-1
 -443 -77 l 1,0,-1
EndSplineSet
EndChar

StartChar: uni0335
Encoding: 821 821 425
Width: 0
Flags: W
LayerCount: 2
Fore
SplineSet
-442 485 m 1,0,-1
 -50 485 l 1,1,-1
 -69 387 l 1,2,-1
 -461 387 l 1,3,-1
 -442 485 l 1,0,-1
EndSplineSet
EndChar

StartChar: uni0336
Encoding: 822 822 426
Width: 0
Flags: W
LayerCount: 2
Fore
SplineSet
-488 485 m 1,0,-1
 -50 485 l 1,1,-1
 -69 387 l 1,2,-1
 -507 387 l 1,3,-1
 -488 485 l 1,0,-1
EndSplineSet
EndChar

StartChar: uni0337
Encoding: 823 823 427
Width: 0
Flags: W
LayerCount: 2
Fore
SplineSet
11 565 m 1,0,-1
 -248 90 l 1,1,-1
 -398 90 l 1,2,-1
 -138 565 l 1,3,-1
 11 565 l 1,0,-1
EndSplineSet
EndChar

StartChar: uni0338
Encoding: 824 824 428
Width: 0
Flags: W
LayerCount: 2
Fore
SplineSet
-490 0 m 1,0,-1
 -85 742 l 1,1,-1
 64 742 l 1,2,-1
 -341 0 l 1,3,-1
 -490 0 l 1,0,-1
EndSplineSet
EndChar

StartChar: uni0394
Encoding: 916 916 429
Width: 773
Flags: W
LayerCount: 2
Fore
SplineSet
546 701 m 1,0,-1
 724 0 l 1,1,-1
 -59 0 l 1,2,-1
 358 701 l 1,3,-1
 546 701 l 1,0,-1
206 140 m 1,4,-1
 497 140 l 1,5,-1
 416 514 l 1,6,-1
 206 140 l 1,4,-1
EndSplineSet
EndChar

StartChar: uni03A9
Encoding: 937 937 430
Width: 854
Flags: W
LayerCount: 2
Fore
SplineSet
616 670.5 m 128,-1,1
 693 632 693 632 737 565 c 128,-1,2
 781 498 781 498 781 415 c 0,3,4
 781 340 781 340 740.5 268 c 128,-1,5
 700 196 700 196 631 146 c 1,6,-1
 822 146 l 1,7,-1
 793 0 l 1,8,-1
 447 0 l 1,9,-1
 462 164 l 1,10,11
 536 201 536 201 576 260 c 128,-1,12
 616 319 616 319 616 385 c 0,13,14
 616 433 616 433 594.5 472.5 c 128,-1,15
 573 512 573 512 532 534.5 c 128,-1,16
 491 557 491 557 435 557 c 0,17,18
 372 557 372 557 322 529 c 128,-1,19
 272 501 272 501 244.5 454 c 128,-1,20
 217 407 217 407 217 351 c 256,21,22
 217 295 217 295 246.5 244.5 c 128,-1,23
 276 194 276 194 330 164 c 1,24,-1
 314 0 l 1,25,-1
 -47 0 l 1,26,-1
 -19 146 l 1,27,-1
 158 146 l 1,28,29
 110 187 110 187 83.5 246 c 128,-1,30
 57 305 57 305 57 368 c 0,31,32
 57 462 57 462 109 540 c 128,-1,33
 161 618 161 618 249.5 663.5 c 128,-1,34
 338 709 338 709 444 709 c 0,35,0
 539 709 539 709 616 670.5 c 128,-1,1
EndSplineSet
EndChar

StartChar: uni03BC
Encoding: 956 956 431
Width: 677
Flags: W
LayerCount: 2
Fore
SplineSet
662 541 m 1,0,-1
 555 0 l 1,1,-1
 377 0 l 1,2,-1
 391 72 l 1,3,4
 326 -7 326 -7 223 -7 c 0,5,6
 196 -7 196 -7 177 -3 c 1,7,-1
 139 -194 l 1,8,-1
 -39 -194 l 1,9,-1
 106 541 l 1,10,-1
 285 541 l 1,11,-1
 226 247 l 2,12,13
 223 234 223 234 223 221 c 0,14,15
 223 185 223 185 244 164.5 c 128,-1,16
 265 144 265 144 302 144 c 0,17,18
 347 144 347 144 382.5 178 c 128,-1,19
 418 212 418 212 429 266 c 2,20,-1
 484 541 l 1,21,-1
 662 541 l 1,0,-1
EndSplineSet
EndChar

StartChar: pi
Encoding: 960 960 432
Width: 730
Flags: W
LayerCount: 2
Fore
SplineSet
747 414 m 1,0,-1
 623 414 l 1,1,-1
 540 0 l 1,2,-1
 393 0 l 1,3,-1
 476 414 l 1,4,-1
 393 414 l 1,5,-1
 265 0 l 1,6,-1
 117 0 l 1,7,-1
 244 414 l 1,8,-1
 227 414 l 2,9,10
 186 414 186 414 160.5 387 c 128,-1,11
 135 360 135 360 135 321 c 0,12,13
 135 299 135 299 143 280 c 1,14,-1
 19 250 l 1,15,16
 3 299 3 299 3 346 c 0,17,18
 3 434 3 434 59 487.5 c 128,-1,19
 115 541 115 541 212 541 c 2,20,-1
 771 541 l 1,21,-1
 747 414 l 1,0,-1
EndSplineSet
EndChar

StartChar: uni1E08
Encoding: 7688 7688 433
Width: 718
Flags: W
LayerCount: 2
Fore
SplineSet
665 866 m 1,0,-1
 520 751 l 1,1,-1
 398 761 l 1,2,-1
 518 922 l 1,3,-1
 665 866 l 1,0,-1
551 30.5 m 128,-1,5
 479 -4 479 -4 407 -11 c 1,6,-1
 384 -52 l 1,7,8
 419 -61 419 -61 435.5 -80 c 128,-1,9
 452 -99 452 -99 452 -124 c 0,10,11
 452 -178 452 -178 408.5 -206 c 128,-1,12
 365 -234 365 -234 303 -234 c 0,13,14
 247 -234 247 -234 195 -213 c 1,15,-1
 239 -129 l 1,16,17
 264 -139 264 -139 289 -139 c 0,18,19
 309 -139 309 -139 322.5 -132 c 128,-1,20
 336 -125 336 -125 336 -114 c 0,21,22
 336 -104 336 -104 321.5 -97.5 c 128,-1,23
 307 -91 307 -91 285 -91 c 2,24,-1
 261 -91 l 1,25,-1
 305 -7 l 1,26,27
 226 8 226 8 166.5 53.5 c 128,-1,28
 107 99 107 99 74.5 167.5 c 128,-1,29
 42 236 42 236 42 319 c 0,30,31
 42 429 42 429 97 519 c 128,-1,32
 152 609 152 609 247 660.5 c 128,-1,33
 342 712 342 712 455 712 c 0,34,35
 533 712 533 712 606 679.5 c 128,-1,36
 679 647 679 647 726 591 c 1,37,-1
 606 463 l 1,38,39
 576 506 576 506 532 531.5 c 128,-1,40
 488 557 488 557 442 557 c 0,41,42
 385 557 385 557 336 527.5 c 128,-1,43
 287 498 287 498 258.5 447 c 128,-1,44
 230 396 230 396 230 335 c 0,45,46
 230 283 230 283 252 241 c 128,-1,47
 274 199 274 199 313 175 c 128,-1,48
 352 151 352 151 401 151 c 0,49,50
 444 151 444 151 493.5 173 c 128,-1,51
 543 195 543 195 584 233 c 1,52,-1
 679 118 l 1,53,4
 623 65 623 65 551 30.5 c 128,-1,5
EndSplineSet
EndChar

StartChar: uni1E09
Encoding: 7689 7689 434
Width: 580
Flags: W
LayerCount: 2
Fore
SplineSet
539 714 m 1,0,-1
 394 599 l 1,1,-1
 272 609 l 1,2,-1
 392 770 l 1,3,-1
 539 714 l 1,0,-1
413 199 m 1,5,-1
 536 123 l 1,6,7
 501 66 501 66 441.5 33 c 128,-1,8
 382 0 382 0 305 -5 c 1,9,-1
 278 -52 l 1,10,11
 313 -61 313 -61 329.5 -80 c 128,-1,12
 346 -99 346 -99 346 -124 c 0,13,14
 346 -178 346 -178 302.5 -206 c 128,-1,15
 259 -234 259 -234 197 -234 c 0,16,17
 141 -234 141 -234 89 -213 c 1,18,-1
 133 -129 l 1,19,20
 158 -139 158 -139 183 -139 c 0,21,22
 203 -139 203 -139 216.5 -132 c 128,-1,23
 230 -125 230 -125 230 -114 c 0,24,25
 230 -104 230 -104 215.5 -97.5 c 128,-1,26
 201 -91 201 -91 179 -91 c 2,27,-1
 155 -91 l 1,28,-1
 203 2 l 1,29,30
 120 22 120 22 72.5 85 c 128,-1,31
 25 148 25 148 25 240 c 0,32,33
 25 330 25 330 64.5 399.5 c 128,-1,34
 104 469 104 469 174 508 c 128,-1,35
 244 547 244 547 334 547 c 0,36,37
 415 547 415 547 474.5 513.5 c 128,-1,38
 534 480 534 480 563 419 c 1,39,-1
 427 344 l 1,40,41
 412 371 412 371 386.5 385.5 c 128,-1,42
 361 400 361 400 327 400 c 0,43,44
 274 400 274 400 239 359 c 128,-1,45
 204 318 204 318 204 253 c 0,46,47
 204 201 204 201 230.5 169.5 c 128,-1,48
 257 138 257 138 301 138 c 0,49,4
 375 138 375 138 413 199 c 1,5,-1
EndSplineSet
Substitution2: "<3,3> Small Caps in Latin lookup 11 subtable" uni1E09.sc
EndChar

StartChar: uni1E1C
Encoding: 7708 7708 443
Width: 675
Flags: W
LayerCount: 2
Fore
SplineSet
338.5 787 m 128,-1,1
 302 822 302 822 302 882 c 0,2,3
 302 902 302 902 304 913 c 1,4,-1
 414 913 l 1,5,6
 411 888 411 888 423 872 c 128,-1,7
 435 856 435 856 458 856 c 256,8,9
 481 856 481 856 499 871.5 c 128,-1,10
 517 887 517 887 524 913 c 1,11,-1
 635 913 l 1,12,13
 618 840 618 840 564 796 c 128,-1,14
 510 752 510 752 438 752 c 0,15,0
 375 752 375 752 338.5 787 c 128,-1,1
308 555 m 1,16,-1
 281 424 l 1,17,-1
 616 424 l 1,18,-1
 587 279 l 1,19,-1
 252 279 l 1,20,-1
 225 146 l 1,21,-1
 606 146 l 1,22,-1
 577 0 l 1,23,-1
 367 0 l 1,24,-1
 337 -52 l 1,25,26
 372 -61 372 -61 388.5 -80 c 128,-1,27
 405 -99 405 -99 405 -124 c 0,28,29
 405 -178 405 -178 361.5 -206 c 128,-1,30
 318 -234 318 -234 256 -234 c 0,31,32
 200 -234 200 -234 148 -213 c 1,33,-1
 192 -129 l 1,34,35
 217 -139 217 -139 242 -139 c 0,36,37
 262 -139 262 -139 275.5 -132 c 128,-1,38
 289 -125 289 -125 289 -114 c 0,39,40
 289 -104 289 -104 274.5 -97.5 c 128,-1,41
 260 -91 260 -91 238 -91 c 2,42,-1
 214 -91 l 1,43,-1
 261 0 l 1,44,-1
 14 0 l 1,45,-1
 154 701 l 1,46,-1
 707 701 l 1,47,-1
 678 555 l 1,48,-1
 308 555 l 1,16,-1
EndSplineSet
EndChar

StartChar: uni1E1D
Encoding: 7709 7709 444
Width: 615
Flags: W
LayerCount: 2
Fore
SplineSet
287.5 635 m 128,-1,1
 251 670 251 670 251 730 c 0,2,3
 251 750 251 750 253 761 c 1,4,-1
 363 761 l 1,5,6
 360 736 360 736 372 720 c 128,-1,7
 384 704 384 704 407 704 c 256,8,9
 430 704 430 704 448 719.5 c 128,-1,10
 466 735 466 735 473 761 c 1,11,-1
 584 761 l 1,12,13
 567 688 567 688 513 644 c 128,-1,14
 459 600 459 600 387 600 c 0,15,0
 324 600 324 600 287.5 635 c 128,-1,1
469.5 516 m 128,-1,17
 529 486 529 486 561 431.5 c 128,-1,18
 593 377 593 377 593 304 c 0,19,20
 593 270 593 270 583 223 c 1,21,-1
 199 223 l 1,22,23
 204 177 204 177 234 152 c 128,-1,24
 264 127 264 127 315 127 c 0,25,26
 382 127 382 127 439 172 c 1,27,-1
 528 75 l 1,28,29
 449 2 449 2 332 -6 c 1,30,-1
 306 -52 l 1,31,32
 341 -61 341 -61 357.5 -80 c 128,-1,33
 374 -99 374 -99 374 -124 c 0,34,35
 374 -178 374 -178 330.5 -206 c 128,-1,36
 287 -234 287 -234 225 -234 c 0,37,38
 169 -234 169 -234 117 -213 c 1,39,-1
 161 -129 l 1,40,41
 186 -139 186 -139 211 -139 c 0,42,43
 231 -139 231 -139 244.5 -132 c 128,-1,44
 258 -125 258 -125 258 -114 c 0,45,46
 258 -104 258 -104 243.5 -97.5 c 128,-1,47
 229 -91 229 -91 207 -91 c 2,48,-1
 183 -91 l 1,49,-1
 230 0 l 1,50,51
 134 19 134 19 79 82 c 128,-1,52
 24 145 24 145 24 239 c 0,53,54
 24 326 24 326 63.5 396 c 128,-1,55
 103 466 103 466 173 506 c 128,-1,56
 243 546 243 546 330 546 c 0,57,16
 410 546 410 546 469.5 516 c 128,-1,17
425 337 m 0,59,60
 425 375 425 375 402 397.5 c 128,-1,61
 379 420 379 420 340 420 c 0,62,63
 298 420 298 420 264 392 c 128,-1,64
 230 364 230 364 212 318 c 1,65,-1
 424 318 l 1,66,58
 425 324 425 324 425 337 c 0,59,60
EndSplineSet
Substitution2: "<3,3> Small Caps in Latin lookup 11 subtable" uni1E1D.sc
EndChar

StartChar: uni1E9E
Encoding: 7838 7838 506
Width: 725
Flags: W
LayerCount: 2
Fore
SplineSet
655.5 341 m 128,-1,1
 684 303 684 303 684 249 c 0,2,3
 684 176 684 176 646 119.5 c 128,-1,4
 608 63 608 63 537.5 31.5 c 128,-1,5
 467 0 467 0 373 0 c 2,6,-1
 291 0 l 1,7,-1
 318 142 l 1,8,-1
 376 142 l 2,9,10
 430 142 430 142 462.5 168 c 128,-1,11
 495 194 495 194 495 237 c 0,12,13
 495 266 495 266 472.5 282 c 128,-1,14
 450 298 450 298 408 298 c 2,15,-1
 379 298 l 1,16,-1
 401 410 l 1,17,-1
 540 545 l 1,18,19
 506 559 506 559 458 559 c 0,20,21
 382 559 382 559 330.5 515 c 128,-1,22
 279 471 279 471 264 393 c 2,23,-1
 187 0 l 1,24,-1
 5 0 l 1,25,-1
 79 381 l 2,26,27
 109 536 109 536 213 622.5 c 128,-1,28
 317 709 317 709 473 709 c 0,29,30
 614 709 614 709 706 636 c 1,31,-1
 681 503 l 1,32,-1
 573 396 l 1,33,0
 627 379 627 379 655.5 341 c 128,-1,1
EndSplineSet
EndChar

StartChar: figuredash
Encoding: 8210 8210 603
Width: 618
Flags: W
LayerCount: 2
Fore
SplineSet
18 363 m 1,0,-1
 635 363 l 1,1,-1
 614 250 l 1,2,-1
 -3 250 l 1,3,-1
 18 363 l 1,0,-1
EndSplineSet
EndChar

StartChar: endash
Encoding: 8211 8211 604
Width: 408
Flags: W
LayerCount: 2
Fore
SplineSet
426 364 m 1,0,-1
 404 250 l 1,1,-1
 -4 250 l 1,2,-1
 18 364 l 1,3,-1
 426 364 l 1,0,-1
EndSplineSet
EndChar

StartChar: emdash
Encoding: 8212 8212 605
Width: 645
Flags: W
LayerCount: 2
Fore
SplineSet
663 364 m 1,0,-1
 641 250 l 1,1,-1
 -4 250 l 1,2,-1
 18 364 l 1,3,-1
 663 364 l 1,0,-1
EndSplineSet
EndChar

StartChar: quoteleft
Encoding: 8216 8216 607
Width: 235
Flags: W
LayerCount: 2
Fore
SplineSet
254 551 m 0,1,2
 254 510 254 510 227 483 c 128,-1,3
 200 456 200 456 160 456 c 0,4,5
 127 456 127 456 105 476.5 c 128,-1,6
 83 497 83 497 83 533 c 0,7,8
 83 566 83 566 112 609 c 2,9,-1
 203 742 l 1,10,-1
 288 742 l 1,11,-1
 224 609 l 1,12,0
 254 590 254 590 254 551 c 0,1,2
EndSplineSet
Substitution2: "<3,3> Small Caps in Latin lookup 11 subtable" quoteleft.sc
EndChar

StartChar: quoteright
Encoding: 8217 8217 608
Width: 235
Flags: W
LayerCount: 2
Fore
SplineSet
254 721.5 m 128,-1,1
 276 701 276 701 276 665 c 0,2,3
 276 632 276 632 247 589 c 2,4,-1
 156 456 l 1,5,-1
 71 456 l 1,6,-1
 135 589 l 1,7,8
 105 609 105 609 105 647 c 0,9,10
 105 688 105 688 132 715 c 128,-1,11
 159 742 159 742 199 742 c 0,12,0
 232 742 232 742 254 721.5 c 128,-1,1
EndSplineSet
Substitution2: "<3,3> Small Caps in Latin lookup 11 subtable" quoteright.sc
EndChar

StartChar: quotesinglbase
Encoding: 8218 8218 609
Width: 235
Flags: W
LayerCount: 2
Fore
SplineSet
138 143.5 m 128,-1,1
 160 123 160 123 160 87 c 0,2,3
 160 54 160 54 131 11 c 2,4,-1
 40 -122 l 1,5,-1
 -45 -122 l 1,6,-1
 19 11 l 1,7,8
 -11 31 -11 31 -11 69 c 0,9,10
 -11 110 -11 110 16 137 c 128,-1,11
 43 164 43 164 83 164 c 0,12,0
 116 164 116 164 138 143.5 c 128,-1,1
EndSplineSet
EndChar

StartChar: dagger
Encoding: 8224 8224 613
Width: 578
Flags: W
LayerCount: 2
Fore
SplineSet
460 699 m 1,0,-1
 419 496 l 1,1,-1
 605 496 l 1,2,-1
 576 350 l 1,3,-1
 390 350 l 1,4,-1
 283 -187 l 1,5,-1
 107 -187 l 1,6,-1
 215 350 l 1,7,-1
 34 350 l 1,8,-1
 64 496 l 1,9,-1
 244 496 l 1,10,-1
 285 699 l 1,11,-1
 460 699 l 1,0,-1
EndSplineSet
EndChar

StartChar: daggerdbl
Encoding: 8225 8225 614
Width: 578
Flags: W
LayerCount: 2
Fore
SplineSet
576 350 m 1,0,-1
 390 350 l 1,1,-1
 355 174 l 1,2,-1
 540 174 l 1,3,-1
 511 29 l 1,4,-1
 326 29 l 1,5,-1
 283 -187 l 1,6,-1
 107 -187 l 1,7,-1
 150 29 l 1,8,-1
 -30 29 l 1,9,-1
 -1 174 l 1,10,-1
 180 174 l 1,11,-1
 215 350 l 1,12,-1
 34 350 l 1,13,-1
 64 496 l 1,14,-1
 244 496 l 1,15,-1
 285 699 l 1,16,-1
 460 699 l 1,17,-1
 419 496 l 1,18,-1
 605 496 l 1,19,-1
 576 350 l 1,0,-1
EndSplineSet
EndChar

StartChar: bullet
Encoding: 8226 8226 615
Width: 341
Flags: W
LayerCount: 2
Fore
SplineSet
264 370.5 m 128,-1,1
 300 334 300 334 300 277 c 0,2,3
 300 219 300 219 264 182.5 c 128,-1,4
 228 146 228 146 170 146 c 0,5,6
 114 146 114 146 78.5 182.5 c 128,-1,7
 43 219 43 219 43 277 c 0,8,9
 43 334 43 334 78.5 370.5 c 128,-1,10
 114 407 114 407 170 407 c 0,11,0
 228 407 228 407 264 370.5 c 128,-1,1
EndSplineSet
EndChar

StartChar: ellipsis
Encoding: 8230 8230 616
Width: 691
Flags: W
LayerCount: 2
Fore
SplineSet
147.5 141 m 128,-1,1
 169 120 169 120 169 85 c 0,2,3
 169 45 169 45 142.5 18.5 c 128,-1,4
 116 -8 116 -8 76 -8 c 0,5,6
 42 -8 42 -8 21 13 c 128,-1,7
 0 34 0 34 0 69 c 0,8,9
 0 110 0 110 26 136 c 128,-1,10
 52 162 52 162 91 162 c 0,11,0
 126 162 126 162 147.5 141 c 128,-1,1
369.5 141 m 128,-1,13
 391 120 391 120 391 85 c 0,14,15
 391 45 391 45 364.5 18.5 c 128,-1,16
 338 -8 338 -8 298 -8 c 0,17,18
 264 -8 264 -8 243 13 c 128,-1,19
 222 34 222 34 222 69 c 0,20,21
 222 110 222 110 248 136 c 128,-1,22
 274 162 274 162 313 162 c 0,23,12
 348 162 348 162 369.5 141 c 128,-1,13
591.5 141 m 128,-1,25
 613 120 613 120 613 85 c 0,26,27
 613 45 613 45 586.5 18.5 c 128,-1,28
 560 -8 560 -8 520 -8 c 0,29,30
 486 -8 486 -8 465 13 c 128,-1,31
 444 34 444 34 444 69 c 0,32,33
 444 110 444 110 470 136 c 128,-1,34
 496 162 496 162 535 162 c 0,35,24
 570 162 570 162 591.5 141 c 128,-1,25
EndSplineSet
EndChar

StartChar: minute
Encoding: 8242 8242 618
Width: 219
Flags: W
LayerCount: 2
Fore
SplineSet
136 701 m 1,0,-1
 270 701 l 1,1,-1
 176 457 l 1,2,-1
 72 457 l 1,3,-1
 136 701 l 1,0,-1
EndSplineSet
EndChar

StartChar: guilsinglleft
Encoding: 8249 8249 620
Width: 282
Flags: W
LayerCount: 2
Fore
SplineSet
301 452 m 1,0,-1
 149 261 l 1,1,-1
 227 82 l 1,2,-1
 83 82 l 1,3,-1
 0 267 l 1,4,-1
 157 452 l 1,5,-1
 301 452 l 1,0,-1
EndSplineSet
Substitution2: "<3,3> Small Caps in Latin lookup 11 subtable" guilsinglleft.sc
Substitution2: "'rtla' Right to Left Alternates lookup 0 subtable" guilsinglright
EndChar

StartChar: guilsinglright
Encoding: 8250 8250 621
Width: 286
Flags: W
LayerCount: 2
Fore
SplineSet
-6 82 m 1,0,-1
 146 273 l 1,1,-1
 68 452 l 1,2,-1
 212 452 l 1,3,-1
 295 267 l 1,4,-1
 138 82 l 1,5,-1
 -6 82 l 1,0,-1
EndSplineSet
Substitution2: "<3,3> Small Caps in Latin lookup 11 subtable" guilsinglright.sc
Substitution2: "'rtla' Right to Left Alternates lookup 0 subtable" guilsinglleft
EndChar

StartChar: fraction
Encoding: 8260 8260 622
Width: 229
Flags: W
LayerCount: 2
Fore
SplineSet
-57 0 m 1,0,-1
 -183 0 l 1,1,-1
 316 701 l 1,2,-1
 442 701 l 1,3,-1
 -57 0 l 1,0,-1
EndSplineSet
EndChar

StartChar: colonmonetary
Encoding: 8353 8353 640
Width: 718
Flags: W
LayerCount: 2
Fore
SplineSet
678 122 m 1,0,1
 632 77 632 77 572.5 45.5 c 128,-1,2
 513 14 513 14 451 0 c 1,3,-1
 393 -155 l 1,4,-1
 283 -155 l 1,5,-1
 339 -6 l 1,6,7
 316 -5 316 -5 281 3 c 1,8,-1
 221 -155 l 1,9,-1
 111 -155 l 1,10,-1
 186 44 l 1,11,12
 118 87 118 87 79.5 159.5 c 128,-1,13
 41 232 41 232 41 320 c 0,14,15
 41 406 41 406 76.5 480.5 c 128,-1,16
 112 555 112 555 175.5 608 c 128,-1,17
 239 661 239 661 321 687 c 1,18,-1
 383 851 l 1,19,-1
 493 851 l 1,20,-1
 438 706 l 1,21,-1
 452 706 l 2,22,23
 475 706 475 706 499 703 c 1,24,-1
 555 851 l 1,25,-1
 665 851 l 1,26,-1
 599 676 l 1,27,28
 674 644 674 644 724 586 c 1,29,-1
 605 459 l 1,30,31
 574 501 574 501 529.5 526 c 128,-1,32
 485 551 485 551 440 551 c 0,33,34
 383 551 383 551 334.5 522.5 c 128,-1,35
 286 494 286 494 257.5 444.5 c 128,-1,36
 229 395 229 395 229 335 c 0,37,38
 229 284 229 284 251 243 c 128,-1,39
 273 202 273 202 312 178.5 c 128,-1,40
 351 155 351 155 400 155 c 0,41,42
 444 155 444 155 493 177 c 128,-1,43
 542 199 542 199 583 237 c 1,44,-1
 678 122 l 1,0,1
EndSplineSet
EndChar

StartChar: franc
Encoding: 8355 8355 641
Width: 603
Flags: W
LayerCount: 2
Fore
SplineSet
645 555 m 1,0,-1
 305 555 l 1,1,-1
 274 399 l 1,2,-1
 588 399 l 1,3,-1
 560 259 l 1,4,-1
 246 259 l 1,5,-1
 227 166 l 1,6,-1
 449 166 l 1,7,-1
 436 100 l 1,8,-1
 214 100 l 1,9,-1
 194 0 l 1,10,-1
 11 0 l 1,11,-1
 31 100 l 1,12,-1
 -44 100 l 1,13,-1
 -30 166 l 1,14,-1
 44 166 l 1,15,-1
 151 701 l 1,16,-1
 674 701 l 1,17,-1
 645 555 l 1,0,-1
EndSplineSet
EndChar

StartChar: lira
Encoding: 8356 8356 642
Width: 558
Flags: W
LayerCount: 2
Fore
SplineSet
326 468 m 2,1,-1
 317 423 l 1,2,-1
 482 423 l 1,3,-1
 469 357 l 1,4,-1
 304 357 l 1,5,-1
 293 306 l 1,6,-1
 459 306 l 1,7,-1
 446 240 l 1,8,-1
 280 240 l 1,9,-1
 260 140 l 1,10,-1
 516 140 l 1,11,-1
 488 0 l 1,12,-1
 -27 0 l 1,13,-1
 1 140 l 1,14,-1
 77 140 l 1,15,-1
 97 240 l 1,16,-1
 21 240 l 1,17,-1
 34 306 l 1,18,-1
 110 306 l 1,19,-1
 120 357 l 1,20,-1
 44 357 l 1,21,-1
 57 423 l 1,22,-1
 133 423 l 1,23,-1
 143 472 l 2,24,25
 165 585 165 585 240.5 647 c 128,-1,26
 316 709 316 709 431 709 c 0,27,28
 492 709 492 709 543 686.5 c 128,-1,29
 594 664 594 664 627 623 c 1,30,-1
 532 487 l 1,31,32
 480 553 480 553 420 553 c 0,33,0
 344 553 344 553 326 468 c 2,1,-1
EndSplineSet
EndChar

StartChar: uni20A6
Encoding: 8358 8358 643
Width: 852
Flags: W
LayerCount: 2
Fore
SplineSet
856 374 m 1,0,-1
 772 374 l 1,1,-1
 762 323 l 1,2,-1
 845 323 l 1,3,-1
 832 257 l 1,4,-1
 748 257 l 1,5,-1
 697 0 l 1,6,-1
 536 0 l 1,7,-1
 303 421 l 1,8,-1
 219 0 l 1,9,-1
 47 0 l 1,10,-1
 98 257 l 1,11,-1
 15 257 l 1,12,-1
 28 323 l 1,13,-1
 112 323 l 1,14,-1
 122 374 l 1,15,-1
 38 374 l 1,16,-1
 51 440 l 1,17,-1
 135 440 l 1,18,-1
 187 701 l 1,19,-1
 348 701 l 1,20,-1
 582 279 l 1,21,-1
 667 701 l 1,22,-1
 837 701 l 1,23,-1
 785 440 l 1,24,-1
 869 440 l 1,25,-1
 856 374 l 1,0,-1
EndSplineSet
EndChar

StartChar: uni20A9
Encoding: 8361 8361 645
Width: 1032
Flags: W
LayerCount: 2
Fore
SplineSet
1107 701 m 1,0,-1
 986 440 l 1,1,-1
 1071 440 l 1,2,-1
 1058 374 l 1,3,-1
 956 374 l 1,4,-1
 932 323 l 1,5,-1
 1017 323 l 1,6,-1
 1004 257 l 1,7,-1
 902 257 l 1,8,-1
 783 0 l 1,9,-1
 604 0 l 1,10,-1
 561 471 l 1,11,-1
 370 0 l 1,12,-1
 191 0 l 1,13,-1
 152 257 l 1,14,-1
 44 257 l 1,15,-1
 57 323 l 1,16,-1
 142 323 l 1,17,-1
 134 374 l 1,18,-1
 26 374 l 1,19,-1
 39 440 l 1,20,-1
 124 440 l 1,21,-1
 85 701 l 1,22,-1
 275 701 l 1,23,-1
 323 222 l 1,24,-1
 512 700 l 1,25,-1
 688 701 l 1,26,-1
 731 219 l 1,27,-1
 920 701 l 1,28,-1
 1107 701 l 1,0,-1
EndSplineSet
EndChar

StartChar: dong
Encoding: 8363 8363 646
Width: 695
Flags: W
LayerCount: 2
Fore
SplineSet
740 588 m 1,0,-1
 681 588 l 1,1,-1
 564 0 l 1,2,-1
 386 0 l 1,3,-1
 399 64 l 1,4,5
 328 -7 328 -7 233 -7 c 0,6,7
 172 -7 172 -7 124 23 c 128,-1,8
 76 53 76 53 49.5 107 c 128,-1,9
 23 161 23 161 23 231 c 0,10,11
 23 319 23 319 60.5 391 c 128,-1,12
 98 463 98 463 163.5 505 c 128,-1,13
 229 547 229 547 308 547 c 0,14,15
 430 547 430 547 476 451 c 1,16,-1
 503 588 l 1,17,-1
 372 588 l 1,18,-1
 386 660 l 1,19,-1
 518 660 l 1,20,-1
 534 742 l 1,21,-1
 712 742 l 1,22,-1
 696 660 l 1,23,-1
 754 660 l 1,24,-1
 740 588 l 1,0,-1
371 151 m 128,-1,26
 403 172 403 172 421.5 208 c 128,-1,27
 440 244 440 244 440 287 c 0,28,29
 440 338 440 338 412.5 368.5 c 128,-1,30
 385 399 385 399 339 399 c 0,31,32
 302 399 302 399 270.5 377.5 c 128,-1,33
 239 356 239 356 220.5 320 c 128,-1,34
 202 284 202 284 202 242 c 0,35,36
 202 191 202 191 229.5 160.5 c 128,-1,37
 257 130 257 130 302 130 c 0,38,25
 339 130 339 130 371 151 c 128,-1,26
35 -130 m 1,39,-1
 49 -58 l 1,40,-1
 529 -58 l 1,41,-1
 514 -130 l 1,42,-1
 35 -130 l 1,39,-1
EndSplineSet
EndChar

StartChar: Euro
Encoding: 8364 8364 647
Width: 791
Flags: W
LayerCount: 2
Fore
SplineSet
565 177 m 128,-1,1
 614 199 614 199 655 237 c 1,2,-1
 750 122 l 1,3,4
 688 62 688 62 606.5 27 c 128,-1,5
 525 -8 525 -8 447 -8 c 0,6,7
 361 -8 361 -8 291.5 25.5 c 128,-1,8
 222 59 222 59 176.5 119.5 c 128,-1,9
 131 180 131 180 118 257 c 1,10,-1
 19 257 l 1,11,-1
 32 323 l 1,12,-1
 113 323 l 1,13,14
 113 351 113 351 117 374 c 1,15,-1
 42 374 l 1,16,-1
 55 440 l 1,17,-1
 133 440 l 1,18,19
 159 518 159 518 217 578.5 c 128,-1,20
 275 639 275 639 354.5 672.5 c 128,-1,21
 434 706 434 706 525 706 c 0,22,23
 602 706 602 706 675.5 673.5 c 128,-1,24
 749 641 749 641 796 586 c 1,25,-1
 678 459 l 1,26,27
 647 501 647 501 602.5 526 c 128,-1,28
 558 551 558 551 512 551 c 0,29,30
 453 551 453 551 403.5 521 c 128,-1,31
 354 491 354 491 327 440 c 1,32,-1
 558 440 l 1,33,-1
 544 374 l 1,34,-1
 304 374 l 1,35,36
 301 355 301 355 301 335 c 2,37,-1
 301 323 l 1,38,-1
 535 323 l 1,39,-1
 521 257 l 1,40,-1
 316 257 l 1,41,42
 337 210 337 210 378 182.5 c 128,-1,43
 419 155 419 155 472 155 c 0,44,0
 516 155 516 155 565 177 c 128,-1,1
EndSplineSet
EndChar

StartChar: uni20AD
Encoding: 8365 8365 648
Width: 725
Flags: W
LayerCount: 2
Fore
SplineSet
650 328 m 1,0,-1
 455 328 l 1,1,-1
 664 0 l 1,2,-1
 448 0 l 1,3,-1
 256 311 l 1,4,-1
 196 0 l 1,5,-1
 13 0 l 1,6,-1
 77 328 l 1,7,-1
 2 328 l 1,8,-1
 15 394 l 1,9,-1
 89 394 l 1,10,-1
 149 701 l 1,11,-1
 332 701 l 1,12,-1
 276 415 l 1,13,-1
 544 701 l 1,14,-1
 754 701 l 1,15,-1
 460 394 l 1,16,-1
 663 394 l 1,17,-1
 650 328 l 1,0,-1
EndSplineSet
EndChar

StartChar: uni20B1
Encoding: 8369 8369 649
Width: 772
Flags: W
LayerCount: 2
Fore
SplineSet
734 472 m 1,0,1
 732 452 732 452 726 421 c 1,2,-1
 804 421 l 1,3,-1
 792 355 l 1,4,-1
 701 355 l 1,5,6
 662 279 662 279 582.5 236.5 c 128,-1,7
 503 194 503 194 394 194 c 2,8,-1
 270 194 l 1,9,-1
 231 0 l 1,10,-1
 48 0 l 1,11,-1
 119 355 l 1,12,-1
 34 355 l 1,13,-1
 47 421 l 1,14,-1
 132 421 l 1,15,-1
 142 472 l 1,16,-1
 57 472 l 1,17,-1
 70 538 l 1,18,-1
 155 538 l 1,19,-1
 188 701 l 1,20,-1
 495 701 l 2,21,22
 599 701 599 701 660.5 658.5 c 128,-1,23
 722 616 722 616 733 538 c 1,24,-1
 827 538 l 1,25,-1
 814 472 l 1,26,-1
 734 472 l 1,0,1
519 375.5 m 128,-1,28
 557 411 557 411 557 472 c 0,29,30
 557 512 557 512 531.5 533.5 c 128,-1,31
 506 555 506 555 458 555 c 2,32,-1
 342 555 l 1,33,-1
 299 340 l 1,34,-1
 415 340 l 2,35,27
 481 340 481 340 519 375.5 c 128,-1,28
EndSplineSet
EndChar

StartChar: uni20B2
Encoding: 8370 8370 650
Width: 752
Flags: W
LayerCount: 2
Fore
SplineSet
566 358 m 1,0,-1
 724 358 l 1,1,-1
 669 82 l 1,2,3
 610 44 610 44 538 19.5 c 128,-1,4
 466 -5 466 -5 398 -8 c 1,5,-1
 372 -155 l 1,6,-1
 245 -155 l 1,7,-1
 275 6 l 1,8,9
 168 37 168 37 104.5 121.5 c 128,-1,10
 41 206 41 206 41 319 c 0,11,12
 41 418 41 418 89 501.5 c 128,-1,13
 137 585 137 585 221 638 c 128,-1,14
 305 691 305 691 408 703 c 1,15,-1
 435 850 l 1,16,-1
 562 850 l 1,17,-1
 535 700 l 1,18,19
 596 690 596 690 650 664.5 c 128,-1,20
 704 639 704 639 742 602 c 1,21,-1
 626 474 l 1,22,23
 592 509 592 509 544.5 530 c 128,-1,24
 497 551 497 551 448 551 c 0,25,26
 389 551 389 551 338.5 522 c 128,-1,27
 288 493 288 493 258.5 442.5 c 128,-1,28
 229 392 229 392 229 332 c 0,29,30
 229 280 229 280 252 238 c 128,-1,31
 275 196 275 196 316.5 172 c 128,-1,32
 358 148 358 148 410 148 c 0,33,34
 461 148 461 148 530 179 c 1,35,-1
 566 358 l 1,0,-1
EndSplineSet
EndChar

StartChar: uni20B5
Encoding: 8373 8373 651
Width: 718
Flags: W
LayerCount: 2
Fore
SplineSet
678 122 m 1,0,1
 621 67 621 67 546.5 32.5 c 128,-1,2
 472 -2 472 -2 399 -7 c 1,3,-1
 372 -155 l 1,4,-1
 245 -155 l 1,5,-1
 274 5 l 1,6,7
 167 34 167 34 104 119.5 c 128,-1,8
 41 205 41 205 41 320 c 0,9,10
 41 421 41 421 89.5 505 c 128,-1,11
 138 589 138 589 222 641.5 c 128,-1,12
 306 694 306 694 409 704 c 1,13,-1
 435 850 l 1,14,-1
 562 850 l 1,15,-1
 534 697 l 1,16,17
 590 684 590 684 640 655 c 128,-1,18
 690 626 690 626 724 586 c 1,19,-1
 605 459 l 1,20,21
 574 501 574 501 529.5 526 c 128,-1,22
 485 551 485 551 440 551 c 0,23,24
 383 551 383 551 334.5 522.5 c 128,-1,25
 286 494 286 494 257.5 444.5 c 128,-1,26
 229 395 229 395 229 335 c 0,27,28
 229 284 229 284 251 243 c 128,-1,29
 273 202 273 202 312 178.5 c 128,-1,30
 351 155 351 155 400 155 c 0,31,32
 444 155 444 155 493 177 c 128,-1,33
 542 199 542 199 583 237 c 1,34,-1
 678 122 l 1,0,1
EndSplineSet
EndChar

StartChar: uni20B9
Encoding: 8377 8377 652
Width: 635
Flags: W
LayerCount: 2
Fore
SplineSet
646 568 m 1,0,-1
 545 568 l 1,1,2
 554 538 554 538 554 503 c 0,3,4
 554 488 554 488 553 481 c 1,5,-1
 628 481 l 1,6,-1
 616 415 l 1,7,-1
 543 415 l 1,8,9
 528 357 528 357 492 312 c 128,-1,10
 456 267 456 267 402 238 c 1,11,-1
 537 0 l 1,12,-1
 330 0 l 1,13,-1
 234 195 l 1,14,15
 224 194 224 194 205 194 c 2,16,-1
 15 194 l 1,17,-1
 42 328 l 1,18,-1
 229 328 l 2,19,20
 279 328 279 328 315 351.5 c 128,-1,21
 351 375 351 375 367 415 c 1,22,-1
 58 415 l 1,23,-1
 70 481 l 1,24,-1
 377 481 l 1,25,26
 374 519 374 519 347.5 543 c 128,-1,27
 321 567 321 567 277 567 c 2,28,-1
 87 567 l 1,29,-1
 113 701 l 1,30,-1
 672 701 l 1,31,-1
 646 568 l 1,0,-1
EndSplineSet
EndChar

StartChar: uni20BA
Encoding: 8378 8378 653
Width: 741
Flags: W
LayerCount: 2
Fore
SplineSet
727 359 m 1,0,1
 705 249 705 249 643 168 c 128,-1,2
 581 87 581 87 486.5 43.5 c 128,-1,3
 392 0 392 0 275 0 c 2,4,-1
 51 0 l 1,5,-1
 114 315 l 1,6,-1
 32 293 l 1,7,-1
 49 380 l 1,8,-1
 131 402 l 1,9,-1
 143 463 l 1,10,-1
 61 440 l 1,11,-1
 78 527 l 1,12,-1
 161 550 l 1,13,-1
 191 701 l 1,14,-1
 374 701 l 1,15,-1
 354 602 l 1,16,-1
 573 662 l 1,17,-1
 555 575 l 1,18,-1
 337 515 l 1,19,-1
 324 455 l 1,20,-1
 544 515 l 1,21,-1
 526 428 l 1,22,-1
 307 368 l 1,23,-1
 262 146 l 1,24,-1
 314 146 l 2,25,26
 402 146 402 146 463 202.5 c 128,-1,27
 524 259 524 259 544 357 c 1,28,-1
 727 359 l 1,0,1
EndSplineSet
EndChar

StartChar: uni20BC
Encoding: 8380 8380 654
Width: 846
Flags: W
LayerCount: 2
Fore
SplineSet
739.5 533 m 128,-1,1
 804 472 804 472 804 374 c 0,2,3
 804 340 804 340 797 308 c 2,4,-1
 736 0 l 1,5,-1
 553 0 l 1,6,-1
 614 308 l 2,7,8
 617 325 617 325 617 341 c 0,9,10
 617 383 617 383 593.5 410.5 c 128,-1,11
 570 438 570 438 524 448 c 1,12,-1
 435 0 l 1,13,-1
 309 0 l 1,14,-1
 398 448 l 1,15,16
 338 435 338 435 297.5 398.5 c 128,-1,17
 257 362 257 362 247 308 c 2,18,-1
 186 0 l 1,19,-1
 3 0 l 1,20,-1
 64 308 l 2,21,22
 89 433 89 433 188 513.5 c 128,-1,23
 287 594 287 594 430 608 c 1,24,-1
 448 701 l 1,25,-1
 574 701 l 1,26,-1
 555 607 l 1,27,0
 675 594 675 594 739.5 533 c 128,-1,1
EndSplineSet
EndChar

StartChar: uni20BD
Encoding: 8381 8381 655
Width: 689
Flags: W
LayerCount: 2
Fore
SplineSet
237 219 m 1,0,-1
 225 157 l 1,1,-1
 447 157 l 1,2,-1
 434 91 l 1,3,-1
 212 91 l 1,4,-1
 194 0 l 1,5,-1
 11 0 l 1,6,-1
 29 91 l 1,7,-1
 -46 91 l 1,8,-1
 -33 157 l 1,9,-1
 42 157 l 1,10,-1
 151 701 l 1,11,-1
 458 701 l 2,12,13
 573 701 573 701 635.5 650.5 c 128,-1,14
 698 600 698 600 698 511 c 0,15,16
 698 420 698 420 657 354 c 128,-1,17
 616 288 616 288 539.5 253.5 c 128,-1,18
 463 219 463 219 358 219 c 2,19,-1
 237 219 l 1,0,-1
494 535 m 128,-1,21
 468 555 468 555 421 555 c 2,22,-1
 305 555 l 1,23,-1
 265 356 l 1,24,-1
 377 356 l 2,25,26
 446 356 446 356 483 386.5 c 128,-1,27
 520 417 520 417 520 480 c 0,28,20
 520 515 520 515 494 535 c 128,-1,21
EndSplineSet
EndChar

StartChar: uni2113
Encoding: 8467 8467 656
Width: 470
Flags: W
LayerCount: 2
Fore
SplineSet
426 677 m 128,-1,1
 456 645 456 645 456 589 c 0,2,3
 456 515 456 515 415.5 447 c 128,-1,4
 375 379 375 379 321.5 328.5 c 128,-1,5
 268 278 268 278 194 220 c 1,6,7
 187 192 187 192 187 170 c 0,8,9
 187 112 187 112 239 112 c 0,10,11
 273 112 273 112 303.5 133.5 c 128,-1,12
 334 155 334 155 365 191 c 1,13,-1
 413 127 l 1,14,15
 319 -6 319 -6 193 -6 c 0,16,17
 60 -6 60 -6 60 143 c 1,18,-1
 11 115 l 1,19,-1
 -9 188 l 1,20,-1
 78 246 l 1,21,-1
 133 482 l 2,22,23
 161 596 161 596 217 652.5 c 128,-1,24
 273 709 273 709 343 709 c 0,25,0
 396 709 396 709 426 677 c 128,-1,1
293 588 m 128,-1,27
 274 560 274 560 259 498 c 2,28,-1
 224 348 l 1,29,30
 278 399 278 399 318 460.5 c 128,-1,31
 358 522 358 522 358 577 c 0,32,33
 358 595 358 595 351.5 605.5 c 128,-1,34
 345 616 345 616 332 616 c 0,35,26
 312 616 312 616 293 588 c 128,-1,27
EndSplineSet
EndChar

StartChar: uni2116
Encoding: 8470 8470 657
Width: 1275
Flags: W
LayerCount: 2
Fore
SplineSet
1216.5 668.5 m 128,-1,1
 1263 628 1263 628 1263 559 c 0,2,3
 1263 505 1263 505 1237 464 c 128,-1,4
 1211 423 1211 423 1164.5 400 c 128,-1,5
 1118 377 1118 377 1058 377 c 0,6,7
 979 377 979 377 932.5 418 c 128,-1,8
 886 459 886 459 886 527 c 0,9,10
 886 581 886 581 912 622.5 c 128,-1,11
 938 664 938 664 984.5 686.5 c 128,-1,12
 1031 709 1031 709 1091 709 c 0,13,0
 1170 709 1170 709 1216.5 668.5 c 128,-1,1
599 279 m 1,14,-1
 684 701 l 1,15,-1
 854 701 l 1,16,-1
 714 0 l 1,17,-1
 554 0 l 1,18,-1
 321 420 l 1,19,-1
 236 0 l 1,20,-1
 65 0 l 1,21,-1
 205 701 l 1,22,-1
 365 701 l 1,23,-1
 599 279 l 1,14,-1
1119 491.5 m 128,-1,25
 1139 514 1139 514 1139 551 c 0,26,27
 1139 580 1139 580 1123.5 597.5 c 128,-1,28
 1108 615 1108 615 1081 615 c 0,29,30
 1050 615 1050 615 1029.5 592 c 128,-1,31
 1009 569 1009 569 1009 533 c 0,32,33
 1009 504 1009 504 1025 486.5 c 128,-1,34
 1041 469 1041 469 1067 469 c 0,35,24
 1099 469 1099 469 1119 491.5 c 128,-1,25
873 186 m 1,36,-1
 894 300 l 1,37,-1
 1175 300 l 1,38,-1
 1153 186 l 1,39,-1
 873 186 l 1,36,-1
EndSplineSet
EndChar

StartChar: trademark
Encoding: 8482 8482 658
Width: 930
Flags: W
LayerCount: 2
Fore
SplineSet
445 701 m 1,0,-1
 422 596 l 1,1,-1
 311 596 l 1,2,-1
 238 280 l 1,3,-1
 110 280 l 1,4,-1
 182 596 l 1,5,-1
 72 596 l 1,6,-1
 95 701 l 1,7,-1
 445 701 l 1,0,-1
970 701 m 1,8,-1
 874 280 l 1,9,-1
 759 280 l 1,10,-1
 814 517 l 1,11,-1
 686 321 l 1,12,-1
 599 321 l 1,13,-1
 562 517 l 1,14,-1
 507 280 l 1,15,-1
 391 280 l 1,16,-1
 486 701 l 1,17,-1
 627 701 l 1,18,-1
 675 477 l 1,19,-1
 827 701 l 1,20,-1
 970 701 l 1,8,-1
EndSplineSet
EndChar

StartChar: estimated
Encoding: 8494 8494 660
Width: 816
Flags: W
LayerCount: 2
Fore
SplineSet
207 308 m 2,1,-1
 207 144 l 2,2,3
 207 135 207 135 215 125 c 0,4,5
 254 83 254 83 307.5 59.5 c 128,-1,6
 361 36 361 36 421 36 c 0,7,8
 484 36 484 36 540.5 62.5 c 128,-1,9
 597 89 597 89 636 135 c 1,10,-1
 685 135 l 1,11,12
 639 81 639 81 569 49.5 c 128,-1,13
 499 18 499 18 420 18 c 0,14,15
 329 18 329 18 252 58.5 c 128,-1,16
 175 99 175 99 130 168 c 128,-1,17
 85 237 85 237 85 319 c 256,18,19
 85 401 85 401 130 470.5 c 128,-1,20
 175 540 175 540 252 580.5 c 128,-1,21
 329 621 329 621 420 621 c 256,22,23
 511 621 511 621 588 580.5 c 128,-1,24
 665 540 665 540 710 470.5 c 128,-1,25
 755 401 755 401 755 319 c 2,26,-1
 755 312 l 1,27,-1
 212 312 l 2,28,0
 207 312 207 312 207 308 c 2,1,-1
624 518 m 0,30,31
 584 558 584 558 531.5 580.5 c 128,-1,32
 479 603 479 603 421 603 c 0,33,34
 362 603 362 603 309 579.5 c 128,-1,35
 256 556 256 556 216 515 c 0,36,37
 207 506 207 506 207 495 c 2,38,-1
 207 333 l 2,39,40
 207 328 207 328 212 328 c 2,41,-1
 628 328 l 2,42,43
 633 328 633 328 633 333 c 2,44,-1
 633 498 l 2,45,29
 633 509 633 509 624 518 c 0,30,31
EndSplineSet
EndChar

StartChar: arrowleft
Encoding: 8592 8592 667
Width: 600
Flags: W
LayerCount: 2
Fore
SplineSet
562 338 m 1,0,-1
 539 216 l 1,1,-1
 263 216 l 1,2,-1
 331 47 l 1,3,-1
 178 47 l 1,4,-1
 72 277 l 1,5,-1
 268 509 l 1,6,-1
 420 509 l 1,7,-1
 286 338 l 1,8,-1
 562 338 l 1,0,-1
EndSplineSet
EndChar

StartChar: arrowup
Encoding: 8593 8593 668
Width: 600
Flags: W
LayerCount: 2
Fore
SplineSet
549 370 m 1,0,-1
 523 233 l 1,1,-1
 381 329 l 1,2,-1
 325 40 l 1,3,-1
 187 40 l 1,4,-1
 244 329 l 1,5,-1
 64 233 l 1,6,-1
 90 370 l 1,7,-1
 349 521 l 1,8,-1
 549 370 l 1,0,-1
EndSplineSet
EndChar

StartChar: arrowright
Encoding: 8594 8594 669
Width: 600
Flags: W
LayerCount: 2
Fore
SplineSet
427 508 m 1,0,-1
 533 278 l 1,1,-1
 337 46 l 1,2,-1
 185 46 l 1,3,-1
 319 217 l 1,4,-1
 43 217 l 1,5,-1
 66 339 l 1,6,-1
 342 339 l 1,7,-1
 274 508 l 1,8,-1
 427 508 l 1,0,-1
EndSplineSet
EndChar

StartChar: arrowdown
Encoding: 8595 8595 670
Width: 600
Flags: W
LayerCount: 2
Fore
SplineSet
359 226 m 1,0,-1
 539 322 l 1,1,-1
 513 185 l 1,2,-1
 254 34 l 1,3,-1
 54 185 l 1,4,-1
 80 322 l 1,5,-1
 222 226 l 1,6,-1
 278 515 l 1,7,-1
 416 515 l 1,8,-1
 359 226 l 1,0,-1
EndSplineSet
EndChar

StartChar: arrowboth
Encoding: 8596 8596 671
Width: 851
Flags: W
LayerCount: 2
Fore
SplineSet
695 509 m 1,0,-1
 801 277 l 1,1,-1
 606 47 l 1,2,-1
 454 47 l 1,3,-1
 588 216 l 1,4,-1
 240 216 l 1,5,-1
 308 47 l 1,6,-1
 156 47 l 1,7,-1
 50 277 l 1,8,-1
 245 509 l 1,9,-1
 397 509 l 1,10,-1
 264 338 l 1,11,-1
 612 338 l 1,12,-1
 543 509 l 1,13,-1
 695 509 l 1,0,-1
EndSplineSet
EndChar

StartChar: arrowupdn
Encoding: 8597 8597 672
Width: 672
Flags: W
LayerCount: 2
Fore
SplineSet
575 409 m 1,0,-1
 433 505 l 1,1,-1
 376 211 l 1,2,-1
 556 307 l 1,3,-1
 530 170 l 1,4,-1
 271 18 l 1,5,-1
 70 170 l 1,6,-1
 97 307 l 1,7,-1
 239 211 l 1,8,-1
 296 505 l 1,9,-1
 116 409 l 1,10,-1
 143 545 l 1,11,-1
 401 697 l 1,12,-1
 602 545 l 1,13,-1
 575 409 l 1,0,-1
EndSplineSet
EndChar

StartChar: uni2196
Encoding: 8598 8598 673
Width: 622
Flags: W
LayerCount: 2
Fore
SplineSet
549 414 m 1,0,-1
 359 367 l 1,1,-1
 523 164 l 1,2,-1
 407 65 l 1,3,-1
 242 270 l 1,4,-1
 161 88 l 1,5,-1
 84 184 l 1,6,-1
 192 454 l 1,7,-1
 472 511 l 1,8,-1
 549 414 l 1,0,-1
EndSplineSet
EndChar

StartChar: uni2197
Encoding: 8599 8599 674
Width: 604
Flags: W
LayerCount: 2
Fore
SplineSet
534 178 m 1,0,-1
 421 81 l 1,1,-1
 409 263 l 1,2,-1
 166 59 l 1,3,-1
 88 157 l 1,4,-1
 330 361 l 1,5,-1
 159 408 l 1,6,-1
 273 504 l 1,7,-1
 531 449 l 1,8,-1
 534 178 l 1,0,-1
EndSplineSet
EndChar

StartChar: uni2198
Encoding: 8600 8600 675
Width: 622
Flags: W
LayerCount: 2
Fore
SplineSet
475 476 m 1,0,-1
 552 380 l 1,1,-1
 445 110 l 1,2,-1
 164 53 l 1,3,-1
 87 150 l 1,4,-1
 277 197 l 1,5,-1
 114 400 l 1,6,-1
 229 499 l 1,7,-1
 394 294 l 1,8,-1
 475 476 l 1,0,-1
EndSplineSet
EndChar

StartChar: uni2199
Encoding: 8601 8601 676
Width: 604
Flags: W
LayerCount: 2
Fore
SplineSet
530 407 m 1,0,-1
 287 203 l 1,1,-1
 459 156 l 1,2,-1
 345 60 l 1,3,-1
 88 115 l 1,4,-1
 84 386 l 1,5,-1
 198 483 l 1,6,-1
 209 301 l 1,7,-1
 452 505 l 1,8,-1
 530 407 l 1,0,-1
EndSplineSet
EndChar

StartChar: partialdiff
Encoding: 8706 8706 677
Width: 654
Flags: W
LayerCount: 2
Fore
SplineSet
157 18.5 m 128,-1,1
 102 45 102 45 72.5 94 c 128,-1,2
 43 143 43 143 43 208 c 0,3,4
 43 282 43 282 75.5 340 c 128,-1,5
 108 398 108 398 167 430 c 128,-1,6
 226 462 226 462 301 462 c 0,7,8
 357 462 357 462 395.5 440 c 128,-1,9
 434 418 434 418 451 380 c 1,10,11
 455 407 455 407 455 428 c 0,12,13
 455 495 455 495 420 530 c 128,-1,14
 385 565 385 565 318 565 c 0,15,16
 231 565 231 565 157 509 c 1,17,-1
 101 640 l 1,18,19
 152 672 152 672 217 690.5 c 128,-1,20
 282 709 282 709 342 709 c 0,21,22
 429 709 429 709 493.5 670.5 c 128,-1,23
 558 632 558 632 592.5 560.5 c 128,-1,24
 627 489 627 489 627 394 c 0,25,26
 627 274 627 274 585 183 c 128,-1,27
 543 92 543 92 465.5 42 c 128,-1,28
 388 -8 388 -8 284 -8 c 0,29,0
 212 -8 212 -8 157 18.5 c 128,-1,1
386.5 169 m 128,-1,31
 417 197 417 197 417 244 c 0,32,33
 417 282 417 282 391.5 304 c 128,-1,34
 366 326 366 326 322 326 c 0,35,36
 271 326 271 326 242.5 298.5 c 128,-1,37
 214 271 214 271 214 223 c 0,38,39
 214 183 214 183 237.5 162 c 128,-1,40
 261 141 261 141 305 141 c 0,41,30
 356 141 356 141 386.5 169 c 128,-1,31
EndSplineSet
EndChar

StartChar: emptyset
Encoding: 8709 8709 678
Width: 557
Flags: W
LayerCount: 2
Fore
SplineSet
503 463 m 1,0,1
 532 414 532 414 532 355 c 0,2,3
 532 286 532 286 494.5 224.5 c 128,-1,4
 457 163 457 163 395.5 126 c 128,-1,5
 334 89 334 89 265 89 c 0,6,7
 181 89 181 89 122 143 c 1,8,-1
 35 70 l 1,9,-1
 -6 121 l 1,10,-1
 82 194 l 1,11,12
 55 243 55 243 55 300 c 0,13,14
 55 369 55 369 92 430 c 128,-1,15
 129 491 129 491 190.5 527.5 c 128,-1,16
 252 564 252 564 321 564 c 0,17,18
 363 564 363 564 399 550.5 c 128,-1,19
 435 537 435 537 462 512 c 1,20,-1
 546 582 l 1,21,-1
 586 532 l 1,22,-1
 503 463 l 1,0,1
178 275 m 1,24,-1
 365 431 l 1,25,26
 341 446 341 446 309 446 c 0,27,28
 273 446 273 446 241.5 427.5 c 128,-1,29
 210 409 210 409 191 378.5 c 128,-1,30
 172 348 172 348 172 313 c 0,31,23
 172 293 172 293 178 275 c 1,24,-1
407 382 m 1,33,-1
 218 224 l 1,34,35
 244 207 244 207 277 207 c 0,36,37
 313 207 313 207 345 225.5 c 128,-1,38
 377 244 377 244 396 275.5 c 128,-1,39
 415 307 415 307 415 342 c 0,40,32
 415 363 415 363 407 382 c 1,33,-1
EndSplineSet
EndChar

StartChar: uni2206
Encoding: 8710 8710 679
Width: 712
Flags: W
LayerCount: 2
Fore
SplineSet
524 701 m 1,0,-1
 682 109 l 1,1,-1
 663 0 l 1,2,-1
 -56 0 l 1,3,-1
 -38 109 l 1,4,-1
 336 701 l 1,5,-1
 524 701 l 1,0,-1
393 518 m 1,6,-1
 164 146 l 1,7,-1
 487 146 l 1,8,-1
 393 518 l 1,6,-1
EndSplineSet
EndChar

StartChar: product
Encoding: 8719 8719 680
Width: 742
Flags: W
LayerCount: 2
Fore
SplineSet
768 742 m 1,0,-1
 580 -194 l 1,1,-1
 402 -194 l 1,2,-1
 562 600 l 1,3,-1
 313 600 l 1,4,-1
 153 -194 l 1,5,-1
 -25 -194 l 1,6,-1
 163 742 l 1,7,-1
 768 742 l 1,0,-1
EndSplineSet
EndChar

StartChar: summation
Encoding: 8721 8721 681
Width: 619
Flags: W
LayerCount: 2
Fore
SplineSet
697 744 m 1,0,-1
 666 589 l 1,1,-1
 313 589 l 1,2,-1
 490 303 l 1,3,-1
 202 18 l 1,4,-1
 562 18 l 1,5,-1
 531 -138 l 1,6,-1
 -53 -138 l 1,7,-1
 -29 -9 l 1,8,-1
 296 302 l 1,9,-1
 110 612 l 1,10,-1
 134 744 l 1,11,-1
 697 744 l 1,0,-1
EndSplineSet
EndChar

StartChar: minus
Encoding: 8722 8722 682
Width: 511
Flags: W
LayerCount: 2
Fore
SplineSet
501 384 m 1,0,-1
 479 270 l 1,1,-1
 33 270 l 1,2,-1
 55 384 l 1,3,-1
 501 384 l 1,0,-1
EndSplineSet
EndChar

StartChar: uni2219
Encoding: 8729 8729 684
Width: 332
Flags: W
LayerCount: 2
Fore
SplineSet
269.5 379 m 128,-1,1
 299 351 299 351 299 306 c 0,2,3
 299 264 299 264 278 227 c 128,-1,4
 257 190 257 190 220.5 168 c 128,-1,5
 184 146 184 146 141 146 c 0,6,7
 93 146 93 146 64 174 c 128,-1,8
 35 202 35 202 35 248 c 0,9,10
 35 290 35 290 56 327 c 128,-1,11
 77 364 77 364 113 385.5 c 128,-1,12
 149 407 149 407 191 407 c 0,13,0
 240 407 240 407 269.5 379 c 128,-1,1
EndSplineSet
EndChar

StartChar: radical
Encoding: 8730 8730 685
Width: 711
Flags: W
LayerCount: 2
Fore
SplineSet
30 410 m 1,0,-1
 277 410 l 1,1,-1
 306 23 l 1,2,-1
 647 745 l 1,3,-1
 820 745 l 1,4,-1
 370 -158 l 1,5,-1
 180 -158 l 1,6,-1
 130 268 l 1,7,-1
 1 268 l 1,8,-1
 30 410 l 1,0,-1
EndSplineSet
EndChar

StartChar: infinity
Encoding: 8734 8734 686
Width: 856
Flags: W
LayerCount: 2
Fore
SplineSet
746 490 m 128,-1,1
 789 465 789 465 813 420.5 c 128,-1,2
 837 376 837 376 837 319 c 0,3,4
 837 253 837 253 807.5 198.5 c 128,-1,5
 778 144 778 144 727 113 c 128,-1,6
 676 82 676 82 614 82 c 0,7,8
 546 82 546 82 504 114 c 128,-1,9
 462 146 462 146 429 203 c 1,10,11
 384 146 384 146 335.5 114 c 128,-1,12
 287 82 287 82 219 82 c 0,13,14
 164 82 164 82 121 107 c 128,-1,15
 78 132 78 132 54 177 c 128,-1,16
 30 222 30 222 30 280 c 0,17,18
 30 345 30 345 60 399 c 128,-1,19
 90 453 90 453 141.5 484 c 128,-1,20
 193 515 193 515 255 515 c 0,21,22
 323 515 323 515 364.5 483 c 128,-1,23
 406 451 406 451 438 394 c 1,24,25
 482 451 482 451 530.5 483 c 128,-1,26
 579 515 579 515 648 515 c 0,27,0
 703 515 703 515 746 490 c 128,-1,1
305 230.5 m 128,-1,29
 339 257 339 257 375 306 c 1,30,31
 350 348 350 348 321 370.5 c 128,-1,32
 292 393 292 393 249 393 c 0,33,34
 208 393 208 393 179 361 c 128,-1,35
 150 329 150 329 150 284 c 0,36,37
 150 247 150 247 170.5 225.5 c 128,-1,38
 191 204 191 204 226 204 c 0,39,28
 271 204 271 204 305 230.5 c 128,-1,29
687.5 235.5 m 128,-1,41
 717 267 717 267 717 314 c 0,42,43
 717 351 717 351 696.5 372 c 128,-1,44
 676 393 676 393 641 393 c 0,45,46
 596 393 596 393 562 366.5 c 128,-1,47
 528 340 528 340 491 290 c 1,48,49
 515 249 515 249 543 226.5 c 128,-1,50
 571 204 571 204 613 204 c 0,51,40
 658 204 658 204 687.5 235.5 c 128,-1,41
EndSplineSet
EndChar

StartChar: integral
Encoding: 8747 8747 687
Width: 302
Flags: W
LayerCount: 2
Fore
SplineSet
350 726 m 0,1,2
 305 726 305 726 282 699.5 c 128,-1,3
 259 673 259 673 252 613 c 0,4,5
 250 588 250 588 239 381 c 0,6,7
 231 169 231 169 224 103 c 0,8,9
 215 14 215 14 191 -39 c 128,-1,10
 167 -92 167 -92 124 -116 c 128,-1,11
 81 -140 81 -140 13 -140 c 0,12,13
 -23 -140 -23 -140 -48 -133 c 128,-1,14
 -73 -126 -73 -126 -97 -111 c 1,15,-1
 -69 1 l 1,16,17
 -35 -16 -35 -16 -8 -16 c 0,18,19
 39 -16 39 -16 63 12.5 c 128,-1,20
 87 41 87 41 94 105 c 0,21,22
 99 155 99 155 107 359 c 0,23,24
 115 565 115 565 120 612 c 0,25,26
 130 701 130 701 153.5 753 c 128,-1,27
 177 805 177 805 219.5 828.5 c 128,-1,28
 262 852 262 852 330 852 c 0,29,30
 355 852 355 852 377 846.5 c 128,-1,31
 399 841 399 841 426 828 c 1,32,-1
 402 716 l 1,33,0
 379 726 379 726 350 726 c 0,1,2
EndSplineSet
EndChar

StartChar: approxequal
Encoding: 8776 8776 688
Width: 511
Flags: W
LayerCount: 2
Fore
SplineSet
263 523 m 128,-1,1
 282 515 282 515 304 500 c 0,2,3
 317 491 317 491 325.5 486.5 c 128,-1,4
 334 482 334 482 343 482 c 0,5,6
 359 482 359 482 371.5 493.5 c 128,-1,7
 384 505 384 505 388 527 c 1,8,-1
 507 527 l 1,9,10
 489 438 489 438 452.5 395 c 128,-1,11
 416 352 416 352 358 352 c 0,12,13
 332 352 332 352 313 360 c 128,-1,14
 294 368 294 368 272 383 c 0,15,16
 259 392 259 392 250.5 396.5 c 128,-1,17
 242 401 242 401 232 401 c 0,18,19
 201 401 201 401 192 356 c 1,20,-1
 73 356 l 1,21,22
 90 445 90 445 125.5 488 c 128,-1,23
 161 531 161 531 218 531 c 0,24,0
 244 531 244 531 263 523 c 128,-1,1
217 291.5 m 128,-1,26
 236 283 236 283 257 268 c 0,27,28
 271 259 271 259 279.5 254.5 c 128,-1,29
 288 250 288 250 297 250 c 0,30,31
 314 250 314 250 326 261.5 c 128,-1,32
 338 273 338 273 342 295 c 1,33,-1
 461 295 l 1,34,35
 443 206 443 206 406.5 163 c 128,-1,36
 370 120 370 120 312 120 c 0,37,38
 285 120 285 120 265.5 128.5 c 128,-1,39
 246 137 246 137 226 152 c 0,40,41
 212 162 212 162 203.5 166 c 128,-1,42
 195 170 195 170 186 170 c 0,43,44
 155 170 155 170 146 125 c 1,45,-1
 26 125 l 1,46,47
 43 214 43 214 78.5 257 c 128,-1,48
 114 300 114 300 171 300 c 0,49,25
 198 300 198 300 217 291.5 c 128,-1,26
EndSplineSet
EndChar

StartChar: notequal
Encoding: 8800 8800 689
Width: 512
Flags: W
LayerCount: 2
Fore
SplineSet
500 378 m 1,0,-1
 351 378 l 1,1,-1
 308 276 l 1,2,-1
 480 276 l 1,3,-1
 458 162 l 1,4,-1
 261 162 l 1,5,-1
 203 21 l 1,6,-1
 69 21 l 1,7,-1
 128 162 l 1,8,-1
 12 162 l 1,9,-1
 33 276 l 1,10,-1
 175 276 l 1,11,-1
 217 378 l 1,12,-1
 54 378 l 1,13,-1
 77 492 l 1,14,-1
 265 492 l 1,15,-1
 321 628 l 1,16,-1
 454 628 l 1,17,-1
 398 492 l 1,18,-1
 523 492 l 1,19,-1
 500 378 l 1,0,-1
EndSplineSet
EndChar

StartChar: lessequal
Encoding: 8804 8804 690
Width: 514
Flags: W
LayerCount: 2
Fore
SplineSet
556 648 m 1,0,-1
 531 517 l 1,1,-1
 174 395 l 1,2,-1
 478 266 l 1,3,-1
 455 151 l 1,4,-1
 46 330 l 1,5,-1
 73 470 l 1,6,-1
 556 648 l 1,0,-1
448 113 m 1,7,-1
 426 -1 l 1,8,-1
 -20 -1 l 1,9,-1
 2 113 l 1,10,-1
 448 113 l 1,7,-1
EndSplineSet
EndChar

StartChar: greaterequal
Encoding: 8805 8805 691
Width: 531
Flags: W
LayerCount: 2
Fore
SplineSet
13 159 m 1,0,-1
 38 290 l 1,1,-1
 395 412 l 1,2,-1
 91 541 l 1,3,-1
 114 655 l 1,4,-1
 523 476 l 1,5,-1
 496 337 l 1,6,-1
 13 159 l 1,0,-1
465 113 m 1,7,-1
 443 -1 l 1,8,-1
 -3 -1 l 1,9,-1
 19 113 l 1,10,-1
 465 113 l 1,7,-1
EndSplineSet
EndChar

StartChar: filledbox
Encoding: 9632 9632 692
Width: 600
Flags: W
LayerCount: 2
Fore
SplineSet
122 459 m 1,0,-1
 510 459 l 1,1,-1
 478 71 l 1,2,-1
 90 71 l 1,3,-1
 122 459 l 1,0,-1
EndSplineSet
EndChar

StartChar: uni25A1
Encoding: 9633 9633 693
Width: 600
Flags: W
LayerCount: 2
Fore
SplineSet
144 459 m 1,0,-1
 532 459 l 1,1,-1
 456 71 l 1,2,-1
 68 71 l 1,3,-1
 144 459 l 1,0,-1
221 362 m 1,4,-1
 183 168 l 1,5,-1
 379 168 l 1,6,-1
 417 362 l 1,7,-1
 221 362 l 1,4,-1
EndSplineSet
EndChar

StartChar: triagup
Encoding: 9650 9650 694
Width: 600
Flags: W
LayerCount: 2
Fore
SplineSet
341 478 m 1,0,-1
 472 52 l 1,1,-1
 46 52 l 1,2,-1
 341 478 l 1,0,-1
EndSplineSet
EndChar

StartChar: uni25B3
Encoding: 9651 9651 695
Width: 600
Flags: W
LayerCount: 2
Fore
SplineSet
341 478 m 1,0,-1
 472 52 l 1,1,-1
 46 52 l 1,2,-1
 341 478 l 1,0,-1
306 298 m 1,3,-1
 191 133 l 1,4,-1
 357 133 l 1,5,-1
 306 298 l 1,3,-1
EndSplineSet
EndChar

StartChar: uni25B6
Encoding: 9654 9654 696
Width: 600
Flags: W
LayerCount: 2
Fore
SplineSet
541 266 m 1,0,-1
 74 53 l 1,1,-1
 156 479 l 1,2,-1
 541 266 l 1,0,-1
EndSplineSet
EndChar

StartChar: uni25B7
Encoding: 9655 9655 697
Width: 600
Flags: W
LayerCount: 2
Fore
SplineSet
541 266 m 1,0,-1
 74 53 l 1,1,-1
 156 479 l 1,2,-1
 541 266 l 1,0,-1
362 266 m 1,3,-1
 211 348 l 1,4,-1
 179 184 l 1,5,-1
 362 266 l 1,3,-1
EndSplineSet
EndChar

StartChar: triagdn
Encoding: 9660 9660 698
Width: 600
Flags: W
LayerCount: 2
Fore
SplineSet
259 52 m 1,0,-1
 128 478 l 1,1,-1
 554 478 l 1,2,-1
 259 52 l 1,0,-1
EndSplineSet
EndChar

StartChar: uni25BD
Encoding: 9661 9661 699
Width: 600
Flags: W
LayerCount: 2
Fore
SplineSet
259 52 m 1,0,-1
 128 478 l 1,1,-1
 554 478 l 1,2,-1
 259 52 l 1,0,-1
294 232 m 1,3,-1
 409 397 l 1,4,-1
 243 397 l 1,5,-1
 294 232 l 1,3,-1
EndSplineSet
EndChar

StartChar: uni25C0
Encoding: 9664 9664 700
Width: 600
Flags: W
LayerCount: 2
Fore
SplineSet
58 265 m 1,0,-1
 525 478 l 1,1,-1
 443 52 l 1,2,-1
 58 265 l 1,0,-1
EndSplineSet
EndChar

StartChar: uni25C1
Encoding: 9665 9665 701
Width: 600
Flags: W
LayerCount: 2
Fore
SplineSet
58 265 m 1,0,-1
 525 478 l 1,1,-1
 443 52 l 1,2,-1
 58 265 l 1,0,-1
237 265 m 1,3,-1
 388 183 l 1,4,-1
 420 347 l 1,5,-1
 237 265 l 1,3,-1
EndSplineSet
EndChar

StartChar: uni25C6
Encoding: 9670 9670 702
Width: 600
Flags: W
LayerCount: 2
Fore
SplineSet
353 540 m 1,0,-1
 574 265 l 1,1,-1
 246 -9 l 1,2,-1
 25 265 l 1,3,-1
 353 540 l 1,0,-1
EndSplineSet
EndChar

StartChar: uni25C7
Encoding: 9671 9671 703
Width: 600
Flags: W
LayerCount: 2
Fore
SplineSet
353 540 m 1,0,-1
 574 265 l 1,1,-1
 246 -9 l 1,2,-1
 25 265 l 1,3,-1
 353 540 l 1,0,-1
326 403 m 1,4,-1
 160 265 l 1,5,-1
 272 128 l 1,6,-1
 438 265 l 1,7,-1
 326 403 l 1,4,-1
EndSplineSet
EndChar

StartChar: lozenge
Encoding: 9674 9674 704
Width: 505
Flags: W
LayerCount: 2
Fore
SplineSet
329 670 m 1,0,-1
 493 330 l 1,1,-1
 199 -13 l 1,2,-1
 35 330 l 1,3,-1
 329 670 l 1,0,-1
299 479 m 1,4,-1
 163 330 l 1,5,-1
 229 179 l 1,6,-1
 366 330 l 1,7,-1
 299 479 l 1,4,-1
EndSplineSet
EndChar

StartChar: uniA78B
Encoding: 42891 42891 705
Width: 309
Flags: W
LayerCount: 2
Fore
SplineSet
144 701 m 1,0,-1
 327 701 l 1,1,-1
 225 298 l 1,2,-1
 64 298 l 1,3,-1
 144 701 l 1,0,-1
EndSplineSet
EndChar

StartChar: uniA78C
Encoding: 42892 42892 706
Width: 303
Flags: W
LayerCount: 2
Fore
SplineSet
141 686 m 1,0,-1
 318 686 l 1,1,-1
 218 298 l 1,2,-1
 65 298 l 1,3,-1
 141 686 l 1,0,-1
EndSplineSet
Substitution2: "<3,3> Small Caps in Latin lookup 11 subtable" uniA78C.sc
EndChar

StartChar: fl
Encoding: 64258 64258 708
Width: 710
Flags: W
LayerCount: 2
Fore
SplineSet
303 397 m 1,0,-1
 223 0 l 1,1,-1
 47 0 l 1,2,-1
 126 397 l 1,3,-1
 53 397 l 1,4,-1
 76 515 l 1,5,-1
 149 515 l 1,6,-1
 161 573 l 2,7,8
 178 655 178 655 239.5 702.5 c 128,-1,9
 301 750 301 750 391 750 c 0,10,11
 446 750 446 750 494 733 c 1,12,-1
 466 594 l 1,13,14
 439 608 439 608 416 608 c 0,15,16
 386 608 386 608 361.5 589.5 c 128,-1,17
 337 571 337 571 332 543 c 2,18,-1
 326 515 l 1,19,-1
 446 515 l 1,20,-1
 423 397 l 1,21,-1
 303 397 l 1,0,-1
553 742 m 1,22,-1
 731 742 l 1,23,-1
 583 0 l 1,24,-1
 405 0 l 1,25,-1
 553 742 l 1,22,-1
EndSplineSet
Ligature2: "<1,2> Common Ligatures in Latin lookup 13 subtable" f l
EndChar

StartChar: Adieresis.alt
Encoding: 65540 -1 711
Width: 773
Flags: W
LayerCount: 2
Fore
SplineSet
157.5 591 m 128,-1,1
 143 606 143 606 143 629 c 0,2,3
 143 660 143 660 165.5 682 c 128,-1,4
 188 704 188 704 220 704 c 0,5,6
 244 704 244 704 258.5 689.5 c 128,-1,7
 273 675 273 675 273 651 c 0,8,9
 273 620 273 620 250 598 c 128,-1,10
 227 576 227 576 196 576 c 0,11,0
 172 576 172 576 157.5 591 c 128,-1,1
617.5 591 m 128,-1,13
 603 606 603 606 603 629 c 0,14,15
 603 660 603 660 626 682 c 128,-1,16
 649 704 649 704 681 704 c 0,17,18
 705 704 705 704 719 689.5 c 128,-1,19
 733 675 733 675 733 651 c 0,20,21
 733 620 733 620 710.5 598 c 128,-1,22
 688 576 688 576 656 576 c 0,23,12
 632 576 632 576 617.5 591 c 128,-1,13
358 701 m 1,24,-1
 546 701 l 1,25,-1
 724 0 l 1,26,-1
 528 0 l 1,27,-1
 501 124 l 1,28,-1
 197 124 l 1,29,-1
 128 0 l 1,30,-1
 -59 0 l 1,31,-1
 358 701 l 1,24,-1
275 264 m 1,32,-1
 471 264 l 1,33,-1
 416 518 l 1,34,-1
 275 264 l 1,32,-1
EndSplineSet
EndChar

StartChar: Udieresis.alt
Encoding: 65541 -1 712
Width: 758
Flags: W
LayerCount: 2
Fore
SplineSet
501.5 689.5 m 128,-1,1
 516 675 516 675 516 651 c 0,2,3
 516 620 516 620 493.5 598 c 128,-1,4
 471 576 471 576 439 576 c 0,5,6
 415 576 415 576 400.5 590.5 c 128,-1,7
 386 605 386 605 386 628 c 0,8,9
 386 660 386 660 409 682 c 128,-1,10
 432 704 432 704 463 704 c 0,11,0
 487 704 487 704 501.5 689.5 c 128,-1,1
707 294 m 2,12,13
 679 154 679 154 581 73 c 128,-1,14
 483 -8 483 -8 336 -8 c 0,15,16
 250 -8 250 -8 186.5 20.5 c 128,-1,17
 123 49 123 49 88.5 102 c 128,-1,18
 54 155 54 155 54 227 c 0,19,20
 54 262 54 262 61 294 c 2,21,-1
 143 701 l 1,22,-1
 325 701 l 1,23,-1
 244 294 l 2,24,25
 240 277 240 277 240 258 c 0,26,27
 240 207 240 207 271.5 177.5 c 128,-1,28
 303 148 303 148 357 148 c 0,29,30
 418 148 418 148 464 187.5 c 128,-1,31
 510 227 510 227 524 294 c 2,32,-1
 605 701 l 1,33,-1
 788 701 l 1,34,-1
 707 294 l 2,12,13
468 524.5 m 128,-1,36
 482 510 482 510 482 486 c 0,37,38
 482 455 482 455 459 433 c 128,-1,39
 436 411 436 411 405 411 c 0,40,41
 381 411 381 411 366.5 425.5 c 128,-1,42
 352 440 352 440 352 463 c 0,43,44
 352 495 352 495 375 517 c 128,-1,45
 398 539 398 539 430 539 c 0,46,35
 454 539 454 539 468 524.5 c 128,-1,36
EndSplineSet
EndChar

StartChar: Udieresis.ss01.alt
Encoding: 65542 -1 713
Width: 764
Flags: W
LayerCount: 2
Fore
SplineSet
501.5 689.5 m 128,-1,1
 516 675 516 675 516 651 c 0,2,3
 516 620 516 620 493.5 598 c 128,-1,4
 471 576 471 576 439 576 c 0,5,6
 415 576 415 576 400.5 590.5 c 128,-1,7
 386 605 386 605 386 628 c 0,8,9
 386 660 386 660 409 682 c 128,-1,10
 432 704 432 704 463 704 c 0,11,0
 487 704 487 704 501.5 689.5 c 128,-1,1
97 42 m 128,-1,13
 45 93 45 93 45 181 c 0,14,15
 45 216 45 216 52 248 c 2,16,-1
 142 701 l 1,17,-1
 328 701 l 1,18,-1
 246 292 l 2,19,20
 242 276 242 276 242 257 c 0,21,22
 242 212 242 212 269 185.5 c 128,-1,23
 296 159 296 159 343 159 c 0,24,25
 407 159 407 159 456.5 200.5 c 128,-1,26
 506 242 506 242 521 308 c 2,27,-1
 600 701 l 1,28,-1
 783 701 l 1,29,-1
 643 0 l 1,30,-1
 460 0 l 1,31,-1
 481 105 l 1,32,33
 434 50 434 50 372 20.5 c 128,-1,34
 310 -9 310 -9 239 -9 c 0,35,12
 149 -9 149 -9 97 42 c 128,-1,13
468 524.5 m 128,-1,37
 482 510 482 510 482 486 c 0,38,39
 482 455 482 455 459 433 c 128,-1,40
 436 411 436 411 405 411 c 0,41,42
 381 411 381 411 366.5 425.5 c 128,-1,43
 352 440 352 440 352 463 c 0,44,45
 352 495 352 495 375 517 c 128,-1,46
 398 539 398 539 430 539 c 0,47,36
 454 539 454 539 468 524.5 c 128,-1,37
EndSplineSet
EndChar

StartChar: A.ss01
Encoding: 65543 -1 714
Width: 757
Flags: W
LayerCount: 2
Fore
SplineSet
660.5 649 m 128,-1,1
 732 587 732 587 732 478 c 0,2,3
 732 442 732 442 725 408 c 2,4,-1
 647 0 l 1,5,-1
 463 0 l 1,6,-1
 495 165 l 1,7,-1
 221 165 l 1,8,-1
 189 0 l 1,9,-1
 6 0 l 1,10,-1
 84 408 l 2,11,12
 102 500 102 500 154 568.5 c 128,-1,13
 206 637 206 637 285 674 c 128,-1,14
 364 711 364 711 461 711 c 0,15,0
 589 711 589 711 660.5 649 c 128,-1,1
546 446 m 0,17,18
 546 497 546 497 516.5 526 c 128,-1,19
 487 555 487 555 433 555 c 0,20,21
 370 555 370 555 325.5 515.5 c 128,-1,22
 281 476 281 476 267 408 c 2,23,-1
 247 305 l 1,24,-1
 522 305 l 1,25,-1
 542 408 l 2,26,16
 546 425 546 425 546 446 c 0,17,18
EndSplineSet
EndChar

StartChar: Aogonek.ss01
Encoding: 65564 -1 735
Width: 757
Flags: W
LayerCount: 2
Fore
SplineSet
660.5 649 m 128,-1,1
 732 587 732 587 732 478 c 0,2,3
 732 442 732 442 725 408 c 2,4,-1
 647 0 l 1,5,-1
 609 0 l 1,6,7
 560 -31 560 -31 536.5 -55.5 c 128,-1,8
 513 -80 513 -80 513 -104 c 0,9,10
 513 -124 513 -124 531 -124 c 0,11,12
 545 -124 545 -124 561 -116 c 1,13,-1
 571 -211 l 1,14,15
 515 -233 515 -233 469 -233 c 0,16,17
 424 -233 424 -233 400 -210 c 128,-1,18
 376 -187 376 -187 376 -148 c 0,19,20
 376 -71 376 -71 463 2 c 1,21,-1
 495 165 l 1,22,-1
 221 165 l 1,23,-1
 189 0 l 1,24,-1
 6 0 l 1,25,-1
 84 408 l 2,26,27
 102 500 102 500 154 568.5 c 128,-1,28
 206 637 206 637 285 674 c 128,-1,29
 364 711 364 711 461 711 c 0,30,0
 589 711 589 711 660.5 649 c 128,-1,1
522 305 m 1,31,-1
 542 408 l 2,32,33
 546 425 546 425 546 446 c 0,34,35
 546 497 546 497 516.5 526 c 128,-1,36
 487 555 487 555 433 555 c 0,37,38
 370 555 370 555 325.5 515.5 c 128,-1,39
 281 476 281 476 267 408 c 2,40,-1
 247 305 l 1,41,-1
 522 305 l 1,31,-1
EndSplineSet
EndChar

StartChar: E.ss01
Encoding: 65570 -1 741
Width: 661
Flags: W
LayerCount: 2
Fore
SplineSet
581 700.5 m 128,-1,1
 648 686 648 686 687 663 c 1,2,-1
 603 527 l 1,3,4
 566 544 566 544 520 554.5 c 128,-1,5
 474 565 474 565 430 565 c 0,6,7
 367 565 367 565 328.5 542.5 c 128,-1,8
 290 520 290 520 290 484 c 0,9,10
 290 459 290 459 314.5 444.5 c 128,-1,11
 339 430 339 430 377 430 c 2,12,-1
 553 430 l 1,13,-1
 526 290 l 1,14,-1
 351 290 l 2,15,16
 291 290 291 290 251.5 267 c 128,-1,17
 212 244 212 244 212 207 c 0,18,19
 212 175 212 175 244.5 156.5 c 128,-1,20
 277 138 277 138 331 138 c 0,21,22
 386 138 386 138 448 154.5 c 128,-1,23
 510 171 510 171 554 196 c 1,24,-1
 597 60 l 1,25,26
 537 27 537 27 452 7 c 128,-1,27
 367 -13 367 -13 285 -13 c 0,28,29
 210 -13 210 -13 148.5 8.5 c 128,-1,30
 87 30 87 30 51 69.5 c 128,-1,31
 15 109 15 109 15 162 c 0,32,33
 15 170 15 170 17 184 c 0,34,35
 26 250 26 250 77.5 300 c 128,-1,36
 129 350 129 350 208 370 c 1,37,38
 167 387 167 387 144.5 420.5 c 128,-1,39
 122 454 122 454 122 497 c 0,40,41
 122 505 122 505 124 523 c 0,42,43
 133 581 133 581 175 624.5 c 128,-1,44
 217 668 217 668 286.5 691.5 c 128,-1,45
 356 715 356 715 444 715 c 0,46,0
 514 715 514 715 581 700.5 c 128,-1,1
EndSplineSet
EndChar

StartChar: uni1E1C.ss01
Encoding: 65574 -1 745
Width: 661
Flags: W
LayerCount: 2
Fore
SplineSet
324.5 787 m 128,-1,1
 288 822 288 822 288 882 c 0,2,3
 288 902 288 902 290 913 c 1,4,-1
 400 913 l 1,5,6
 397 888 397 888 409 872 c 128,-1,7
 421 856 421 856 444 856 c 256,8,9
 467 856 467 856 485 871.5 c 128,-1,10
 503 887 503 887 510 913 c 1,11,-1
 621 913 l 1,12,13
 604 840 604 840 550 796 c 128,-1,14
 496 752 496 752 424 752 c 0,15,0
 361 752 361 752 324.5 787 c 128,-1,1
328.5 542.5 m 128,-1,17
 290 520 290 520 290 484 c 0,18,19
 290 459 290 459 314.5 444.5 c 128,-1,20
 339 430 339 430 377 430 c 2,21,-1
 553 430 l 1,22,-1
 526 290 l 1,23,-1
 351 290 l 2,24,25
 291 290 291 290 251.5 267 c 128,-1,26
 212 244 212 244 212 207 c 0,27,28
 212 175 212 175 244.5 156.5 c 128,-1,29
 277 138 277 138 331 138 c 0,30,31
 386 138 386 138 448 154.5 c 128,-1,32
 510 171 510 171 554 196 c 1,33,-1
 597 60 l 1,34,35
 548 33 548 33 482 14.5 c 128,-1,36
 416 -4 416 -4 347 -10 c 1,37,-1
 323 -52 l 1,38,39
 358 -61 358 -61 374.5 -80 c 128,-1,40
 391 -99 391 -99 391 -124 c 0,41,42
 391 -178 391 -178 347.5 -206 c 128,-1,43
 304 -234 304 -234 242 -234 c 0,44,45
 186 -234 186 -234 134 -213 c 1,46,-1
 178 -129 l 1,47,48
 203 -139 203 -139 228 -139 c 0,49,50
 248 -139 248 -139 261.5 -132 c 128,-1,51
 275 -125 275 -125 275 -114 c 0,52,53
 275 -104 275 -104 260.5 -97.5 c 128,-1,54
 246 -91 246 -91 224 -91 c 2,55,-1
 200 -91 l 1,56,-1
 242 -11 l 1,57,58
 142 -2 142 -2 79 44.5 c 128,-1,59
 16 91 16 91 16 163 c 0,60,61
 16 236 16 236 69 292 c 128,-1,62
 122 348 122 348 208 370 c 1,63,64
 167 387 167 387 144.5 420.5 c 128,-1,65
 122 454 122 454 122 497 c 0,66,67
 122 505 122 505 124 523 c 0,68,69
 133 581 133 581 175 624.5 c 128,-1,70
 217 668 217 668 286.5 691.5 c 128,-1,71
 356 715 356 715 444 715 c 0,72,73
 514 715 514 715 581 700.5 c 128,-1,74
 648 686 648 686 687 663 c 1,75,-1
 603 527 l 1,76,77
 566 544 566 544 520 554.5 c 128,-1,78
 474 565 474 565 430 565 c 0,79,16
 367 565 367 565 328.5 542.5 c 128,-1,17
EndSplineSet
EndChar

StartChar: Eogonek.ss01
Encoding: 65591 -1 762
Width: 661
Flags: W
LayerCount: 2
Fore
SplineSet
328.5 542.5 m 128,-1,1
 290 520 290 520 290 484 c 0,2,3
 290 459 290 459 314.5 444.5 c 128,-1,4
 339 430 339 430 377 430 c 2,5,-1
 553 430 l 1,6,-1
 526 290 l 1,7,-1
 351 290 l 2,8,9
 291 290 291 290 251.5 267 c 128,-1,10
 212 244 212 244 212 207 c 0,11,12
 212 175 212 175 244.5 156.5 c 128,-1,13
 277 138 277 138 331 138 c 0,14,15
 386 138 386 138 448 154.5 c 128,-1,16
 510 171 510 171 554 196 c 1,17,-1
 597 60 l 1,18,19
 545 20 545 20 511 -26 c 128,-1,20
 477 -72 477 -72 477 -103 c 0,21,22
 477 -124 477 -124 495 -124 c 0,23,24
 509 -124 509 -124 525 -116 c 1,25,-1
 535 -211 l 1,26,27
 479 -233 479 -233 435 -233 c 0,28,29
 392 -233 392 -233 366 -211.5 c 128,-1,30
 340 -190 340 -190 340 -148 c 0,31,32
 340 -108 340 -108 360 -72.5 c 128,-1,33
 380 -37 380 -37 424 1 c 1,34,35
 352 -13 352 -13 285 -13 c 0,36,37
 210 -13 210 -13 148.5 8.5 c 128,-1,38
 87 30 87 30 51 69.5 c 128,-1,39
 15 109 15 109 15 162 c 0,40,41
 15 170 15 170 17 184 c 0,42,43
 26 250 26 250 77.5 300 c 128,-1,44
 129 350 129 350 208 370 c 1,45,46
 167 387 167 387 144.5 420.5 c 128,-1,47
 122 454 122 454 122 497 c 0,48,49
 122 505 122 505 124 523 c 0,50,51
 133 581 133 581 175 624.5 c 128,-1,52
 217 668 217 668 286.5 691.5 c 128,-1,53
 356 715 356 715 444 715 c 0,54,55
 514 715 514 715 581 700.5 c 128,-1,56
 648 686 648 686 687 663 c 1,57,-1
 603 527 l 1,58,59
 566 544 566 544 520 554.5 c 128,-1,60
 474 565 474 565 430 565 c 0,61,0
 367 565 367 565 328.5 542.5 c 128,-1,1
EndSplineSet
EndChar

StartChar: F.ss01
Encoding: 65593 -1 764
Width: 555
Flags: W
LayerCount: 2
Fore
SplineSet
320.5 527 m 128,-1,1
 285 498 285 498 277 456 c 2,2,-1
 264 393 l 1,3,-1
 525 393 l 1,4,-1
 496 247 l 1,5,-1
 235 247 l 1,6,-1
 186 0 l 1,7,-1
 2 0 l 1,8,-1
 97 474 l 2,9,10
 119 585 119 585 198.5 648.5 c 128,-1,11
 278 712 278 712 394 712 c 0,12,13
 463 712 463 712 528.5 698 c 128,-1,14
 594 684 594 684 638 662 c 1,15,-1
 575 514 l 1,16,17
 536 533 536 533 487.5 544.5 c 128,-1,18
 439 556 439 556 401 556 c 0,19,0
 356 556 356 556 320.5 527 c 128,-1,1
EndSplineSet
EndChar

StartChar: G.ss01
Encoding: 65594 -1 765
Width: 755
Flags: W
LayerCount: 2
Fore
SplineSet
571 364 m 1,0,-1
 729 364 l 1,1,-1
 657 0 l 1,2,-1
 523 0 l 1,3,-1
 531 42 l 1,4,5
 447 -13 447 -13 362 -13 c 0,6,7
 269 -13 269 -13 195.5 30 c 128,-1,8
 122 73 122 73 81.5 148 c 128,-1,9
 41 223 41 223 41 317 c 0,10,11
 41 427 41 427 97.5 517.5 c 128,-1,12
 154 608 154 608 251 660 c 128,-1,13
 348 712 348 712 463 712 c 0,14,15
 542 712 542 712 618 683.5 c 128,-1,16
 694 655 694 655 744 607 c 1,17,-1
 627 479 l 1,18,19
 594 515 594 515 546.5 536 c 128,-1,20
 499 557 499 557 450 557 c 0,21,22
 391 557 391 557 340 527 c 128,-1,23
 289 497 289 497 259 445 c 128,-1,24
 229 393 229 393 229 330 c 0,25,26
 229 277 229 277 250.5 234.5 c 128,-1,27
 272 192 272 192 310.5 167.5 c 128,-1,28
 349 143 349 143 398 143 c 0,29,30
 435 143 435 143 473 159 c 128,-1,31
 511 175 511 175 540 203 c 1,32,-1
 571 364 l 1,0,-1
EndSplineSet
EndChar

StartChar: I.ss01
Encoding: 65601 -1 772
Width: 507
Flags: W
LayerCount: 2
Fore
SplineSet
520 555 m 1,0,-1
 402 555 l 1,1,-1
 320 146 l 1,2,-1
 437 146 l 1,3,-1
 409 0 l 1,4,-1
 -9 0 l 1,5,-1
 20 146 l 1,6,-1
 137 146 l 1,7,-1
 219 555 l 1,8,-1
 103 555 l 1,9,-1
 131 701 l 1,10,-1
 549 701 l 1,11,-1
 520 555 l 1,0,-1
EndSplineSet
EndChar

StartChar: Iogonek.ss01
Encoding: 65616 -1 787
Width: 507
Flags: W
LayerCount: 2
Fore
SplineSet
402 555 m 1,0,-1
 320 146 l 1,1,-1
 437 146 l 1,2,-1
 409 0 l 1,3,-1
 252 0 l 1,4,5
 203 -31 203 -31 179.5 -55.5 c 128,-1,6
 156 -80 156 -80 156 -104 c 0,7,8
 156 -124 156 -124 174 -124 c 0,9,10
 188 -124 188 -124 204 -116 c 1,11,-1
 214 -211 l 1,12,13
 158 -233 158 -233 112 -233 c 0,14,15
 67 -233 67 -233 43 -210 c 128,-1,16
 19 -187 19 -187 19 -148 c 0,17,18
 19 -72 19 -72 104 0 c 1,19,-1
 -9 0 l 1,20,-1
 20 146 l 1,21,-1
 137 146 l 1,22,-1
 219 555 l 1,23,-1
 103 555 l 1,24,-1
 131 701 l 1,25,-1
 549 701 l 1,26,-1
 520 555 l 1,27,-1
 402 555 l 1,0,-1
EndSplineSet
EndChar

StartChar: J.ss01
Encoding: 65618 -1 789
Width: 537
Flags: W
LayerCount: 2
Fore
SplineSet
567 701 m 1,0,-1
 452 121 l 2,1,2
 429 10 429 10 355.5 -49 c 128,-1,3
 282 -108 282 -108 172 -108 c 0,4,5
 25 -108 25 -108 -57 10 c 1,6,-1
 44 125 l 1,7,8
 72 88 72 88 106 69.5 c 128,-1,9
 140 51 140 51 170 51 c 0,10,11
 208 51 208 51 236 75.5 c 128,-1,12
 264 100 264 100 272 140 c 2,13,-1
 354 550 l 1,14,-1
 114 550 l 1,15,-1
 144 701 l 1,16,-1
 567 701 l 1,0,-1
EndSplineSet
EndChar

StartChar: M.ss01
Encoding: 65622 -1 793
Width: 1175
Flags: W
LayerCount: 2
Fore
SplineSet
1114 658.5 m 128,-1,1
 1163 607 1163 607 1163 520 c 0,2,3
 1163 486 1163 486 1156 452 c 2,4,-1
 1065 0 l 1,5,-1
 880 0 l 1,6,-1
 961 408 l 2,7,8
 965 427 965 427 965 447 c 0,9,10
 965 492 965 492 941 517 c 128,-1,11
 917 542 917 542 873 542 c 0,12,13
 815 542 815 542 768.5 498 c 128,-1,14
 722 454 722 454 708 387 c 2,15,-1
 631 0 l 1,16,-1
 446 0 l 1,17,-1
 527 408 l 2,18,19
 531 427 531 427 531 447 c 0,20,21
 531 492 531 492 507 517 c 128,-1,22
 483 542 483 542 439 542 c 0,23,24
 381 542 381 542 335 499.5 c 128,-1,25
 289 457 289 457 276 393 c 2,26,-1
 197 0 l 1,27,-1
 14 0 l 1,28,-1
 154 701 l 1,29,-1
 337 701 l 1,30,-1
 316 599 l 1,31,32
 361 652 361 652 420.5 681 c 128,-1,33
 480 710 480 710 546 710 c 0,34,35
 620 710 620 710 666.5 671.5 c 128,-1,36
 713 633 713 633 725 564 c 1,37,38
 770 633 770 633 836 671.5 c 128,-1,39
 902 710 902 710 980 710 c 0,40,0
 1065 710 1065 710 1114 658.5 c 128,-1,1
EndSplineSet
EndChar

StartChar: N.ss01
Encoding: 65624 -1 795
Width: 764
Flags: W
LayerCount: 2
Fore
SplineSet
700 658 m 128,-1,1
 752 606 752 606 752 518 c 0,2,3
 752 484 752 484 745 452 c 2,4,-1
 654 0 l 1,5,-1
 469 0 l 1,6,-1
 551 408 l 2,7,8
 555 432 555 432 555 442 c 0,9,10
 555 488 555 488 528 515 c 128,-1,11
 501 542 501 542 454 542 c 0,12,13
 389 542 389 542 340 500 c 128,-1,14
 291 458 291 458 276 393 c 2,15,-1
 197 0 l 1,16,-1
 14 0 l 1,17,-1
 154 701 l 1,18,-1
 337 701 l 1,19,-1
 316 596 l 1,20,21
 363 650 363 650 425 680 c 128,-1,22
 487 710 487 710 557 710 c 0,23,0
 648 710 648 710 700 658 c 128,-1,1
EndSplineSet
EndChar

StartChar: Eng.ss01
Encoding: 65631 -1 802
Width: 765
Flags: W
LayerCount: 2
Fore
SplineSet
698 649 m 128,-1,1
 750 597 750 597 750 509 c 0,2,3
 750 475 750 475 743 443 c 2,4,-1
 654 0 l 2,5,6
 630 -101 630 -101 553 -158.5 c 128,-1,7
 476 -216 476 -216 367 -216 c 0,8,9
 263 -216 263 -216 198 -160 c 1,10,-1
 290 -21 l 1,11,12
 314 -39 314 -39 340 -48 c 128,-1,13
 366 -57 366 -57 389 -57 c 0,14,15
 421 -57 421 -57 442.5 -39 c 128,-1,16
 464 -21 464 -21 471 13 c 2,17,-1
 549 399 l 2,18,19
 553 415 553 415 553 434 c 0,20,21
 553 480 553 480 526 506.5 c 128,-1,22
 499 533 499 533 452 533 c 0,23,24
 388 533 388 533 338.5 491 c 128,-1,25
 289 449 289 449 274 384 c 2,26,-1
 197 0 l 1,27,-1
 14 0 l 1,28,-1
 154 701 l 1,29,-1
 337 701 l 1,30,-1
 314 587 l 1,31,32
 361 641 361 641 423 671 c 128,-1,33
 485 701 485 701 556 701 c 0,34,0
 646 701 646 701 698 649 c 128,-1,1
EndSplineSet
EndChar

StartChar: Q.ss01
Encoding: 65635 -1 806
Width: 811
Flags: W
LayerCount: 2
Fore
SplineSet
753.5 192 m 128,-1,1
 703 105 703 105 615.5 50.5 c 128,-1,2
 528 -4 528 -4 422 -12 c 1,3,-1
 400 -120 l 1,4,-1
 277 -120 l 1,5,-1
 300 -4 l 1,6,7
 223 13 223 13 164.5 58.5 c 128,-1,8
 106 104 106 104 74 171 c 128,-1,9
 42 238 42 238 42 319 c 0,10,11
 42 429 42 429 98 519 c 128,-1,12
 154 609 154 609 249.5 660.5 c 128,-1,13
 345 712 345 712 459 712 c 0,14,15
 559 712 559 712 637.5 669.5 c 128,-1,16
 716 627 716 627 760 552 c 128,-1,17
 804 477 804 477 804 383 c 0,18,0
 804 279 804 279 753.5 192 c 128,-1,1
569 229.5 m 128,-1,20
 615 291 615 291 615 370 c 0,21,22
 615 423 615 423 593 465.5 c 128,-1,23
 571 508 571 508 532 532.5 c 128,-1,24
 493 557 493 557 446 557 c 0,25,26
 390 557 390 557 340 527 c 128,-1,27
 290 497 290 497 260 445 c 128,-1,28
 230 393 230 393 230 332 c 0,29,30
 230 274 230 274 258 227.5 c 128,-1,31
 286 181 286 181 333 159 c 1,32,-1
 360 295 l 1,33,-1
 483 295 l 1,34,-1
 454 150 l 1,35,19
 523 168 523 168 569 229.5 c 128,-1,20
EndSplineSet
EndChar

StartChar: uni018F.ss01
Encoding: 65636 -1 807
Width: 760
Flags: W
LayerCount: 2
Fore
SplineSet
590.5 670 m 128,-1,1
 667 628 667 628 709.5 554 c 128,-1,2
 752 480 752 480 752 386 c 0,3,4
 752 276 752 276 698.5 184.5 c 128,-1,5
 645 93 645 93 553 40 c 128,-1,6
 461 -13 461 -13 353 -13 c 0,7,8
 255 -13 255 -13 185 25 c 128,-1,9
 115 63 115 63 75 125.5 c 128,-1,10
 35 188 35 188 23 263 c 1,11,-1
 547 465 l 1,12,13
 528 508 528 508 490.5 532.5 c 128,-1,14
 453 557 453 557 406 557 c 0,15,16
 356 557 356 557 311 532.5 c 128,-1,17
 266 508 266 508 236 465 c 1,18,-1
 120 594 l 1,19,20
 178 651 178 651 253 681.5 c 128,-1,21
 328 712 328 712 417 712 c 0,22,0
 514 712 514 712 590.5 670 c 128,-1,1
466 170.5 m 128,-1,24
 509 198 509 198 534.5 244.5 c 128,-1,25
 560 291 560 291 565 348 c 1,26,-1
 229 219 l 1,27,28
 250 185 250 185 285 164 c 128,-1,29
 320 143 320 143 368 143 c 0,30,23
 423 143 423 143 466 170.5 c 128,-1,24
EndSplineSet
EndChar

